SplineFontDB: 3.2
FontName: Estedad-Regular
FullName: Estedad Regular
FamilyName: Estedad Regular
Weight: Normal
Copyright: Copyright (c) 2020 by Amin Abedi (@aminabedi68)-www.fontamin.com,\nwith Reserved Font Name Estedad.\n\nThis Font Software is licensed under the SIL Open Font License, Version 1.1.
Version: 5.0
ItalicAngle: 0
UnderlinePosition: -750
UnderlineWidth: 150
Ascent: 1436
Descent: 612
InvalidEm: 0
LayerCount: 2
Layer: 0 0 "Back" 1
Layer: 1 0 "Estedad" 0
StyleMap: 0x0040
FSType: 0
OS2Version: 0
OS2_WeightWidthSlopeOnly: 0
OS2_UseTypoMetrics: 0
CreationTime: 1606825729
ModificationTime: 1606845925
PfmFamily: 17
TTFWeight: 400
TTFWidth: 5
LineGap: 0
VLineGap: 0
OS2TypoAscent: 2400
OS2TypoAOffset: 0
OS2TypoDescent: -1200
OS2TypoDOffset: 0
OS2TypoLinegap: 0
OS2WinAscent: 2400
OS2WinAOffset: 0
OS2WinDescent: 1200
OS2WinDOffset: 0
HheadAscent: 2400
HheadAOffset: 0
HheadDescent: -1200
HheadDOffset: 0
OS2CapHeight: 1500
OS2XHeight: 1090
OS2Vendor: 'amin'
Lookup: 4 0 0 "'ccmp' Glyph Composition Decomposition lookup 0" { "'ccmp' Glyph Composition Decomposition lookup 0 subtable"  } ['ccmp' ('DFLT' <'dflt' > 'arab' <'FAR ' 'MLY ' 'SND ' 'URD ' 'dflt' > ) ]
Lookup: 1 1 0 "'locl' Localized Forms in Arabic lookup 5" { "'locl' Localized Forms in Arabic lookup 5 subtable"  } ['locl' ('arab' <'URD ' > ) ]
Lookup: 1 1 0 "'locl' Localized Forms in Arabic lookup 6" { "'locl' Localized Forms in Arabic lookup 6 subtable"  } ['locl' ('arab' <'FAR ' > ) ]
Lookup: 1 0 0 "Single Substitution 1" { "Single Substitution 1 subtable"  } []
Lookup: 1 0 0 "Single Substitution 2" { "Single Substitution 2 subtable"  } []
Lookup: 1 9 0 "'isol' Isolated Forms in Arabic lookup 11" { "'isol' Isolated Forms in Arabic lookup 11 subtable"  } ['isol' ('DFLT' <'dflt' > 'arab' <'FAR ' 'MLY ' 'SND ' 'URD ' 'dflt' > ) ]

StartChar: A
Encoding: 65 65 0
GlifName: A_
Width: 1271
VWidth: 0
GlyphClass: 2
Flags: HW
LayerCount: 2
Fore
SplineSet
340 374 m 257
 206 0 l 257
 10 0 l 257
 531 1396 l 257
 742 1396 l 257
 1262 0 l 257
 1066 0 l 257
 932 374 l 257
 340 374 l 257
390 522 m 257
 882 522 l 257
 637 1200 l 257
 390 522 l 257
EndSplineSet
Substitution2: "'c2sc' Capitals to Small Capitals in Latin lookup 0 subtable" uni1D00
EndChar

StartChar: AE
Encoding: 198 198 1
GlifName: A_E_
Width: 1567
VWidth: 0
GlyphClass: 2
Flags: HW
LayerCount: 2
Fore
SplineSet
742 1238 m 257
 684 1238 l 257
 422 554 l 257
 742 554 l 257
 742 1238 l 257
576 1396 m 257
 1486 1396 l 257
 1486 1238 l 257
 926 1238 l 257
 926 772 l 257
 1430 772 l 257
 1430 623 l 257
 926 623 l 257
 926 156 l 257
 1486 156 l 257
 1486 0 l 257
 742 0 l 257
 742 406 l 257
 368 406 l 257
 213 0 l 257
 18 0 l 257
 576 1396 l 257
EndSplineSet
EndChar

StartChar: Arabic_Double_Dot_H.alt
Encoding: 1114113 -1 11
GlifName: A_rabic_D_ouble_D_ot_H_.alt
Width: 758
VWidth: 0
GlyphClass: 2
Flags: HW
LayerCount: 2
Fore
SplineSet
380 97 m 257
 494 211 l 257
 608 97 l 257
 494 -17 l 257
 380 97 l 257
142 97 m 257
 256 211 l 257
 370 97 l 257
 256 -17 l 257
 142 97 l 257
EndSplineSet
EndChar

StartChar: Arabic_Double_Dot_V.alt
Encoding: 1114115 -1 13
GlifName: A_rabic_D_ouble_D_ot_V_.alt
Width: 497
VWidth: 0
GlyphClass: 2
Flags: HW
LayerCount: 2
Fore
SplineSet
244 232 m 257
 130 346 l 257
 244 460 l 257
 358 346 l 257
 244 232 l 257
244 -6 m 257
 130 108 l 257
 244 222 l 257
 358 108 l 257
 244 -6 l 257
EndSplineSet
EndChar

StartChar: Arabic_Single_Dot
Encoding: 1114117 -1 15
GlifName: A_rabic_S_ingle_D_ot
Width: 490
VWidth: 0
GlyphClass: 2
Flags: HW
LayerCount: 2
Fore
SplineSet
96 142 m 257
 246 292 l 257
 394 142 l 257
 246 -7 l 257
 96 142 l 257
EndSplineSet
EndChar

StartChar: Arabic_Single_Dot.alt
Encoding: 1114118 -1 16
GlifName: A_rabic_S_ingle_D_ot.alt
Width: 433
VWidth: 0
GlyphClass: 2
Flags: HW
LayerCount: 2
Fore
SplineSet
86 130 m 257
 216 260 l 257
 346 130 l 257
 216 0 l 257
 86 130 l 257
EndSplineSet
EndChar

StartChar: B
Encoding: 66 66 23
GlifName: B_
Width: 1258
VWidth: 0
GlyphClass: 2
Flags: HW
LayerCount: 2
Fore
SplineSet
156 1396 m 257
 682 1396 l 258
 932 1396 1098 1260 1098 1016 c 256
 1098 872 1030 764 916 708 c 257
 1058 662 1152 534 1152 366 c 256
 1152 120 991 0 732 0 c 258
 156 0 l 257
 156 1396 l 257
340 1238 m 257
 340 772 l 257
 662 772 l 258
 817 772 913 858 913 1006 c 256
 913 1154 818 1238 662 1238 c 258
 340 1238 l 257
340 630 m 257
 340 156 l 257
 720 156 l 258
 875 156 970 244 970 392 c 256
 970 540 876 630 720 630 c 258
 340 630 l 257
EndSplineSet
Substitution2: "'c2sc' Capitals to Small Capitals in Latin lookup 0 subtable" uni0299
EndChar

StartChar: C
Encoding: 67 67 24
GlifName: C_
Width: 1385
VWidth: 0
GlyphClass: 2
Flags: HW
LayerCount: 2
Fore
SplineSet
298 698 m 256
 298 366 435 147 715 147 c 256
 921 147 1041 281 1078 427 c 257
 1266 416 l 257
 1231 202 1033 -11 717 -11 c 256
 335 -11 114 266 114 698 c 256
 114 1130 335 1407 717 1407 c 256
 1033 1407 1231 1194 1266 980 c 257
 1078 968 l 257
 1041 1114 921 1249 715 1249 c 256
 435 1249 298 1030 298 698 c 256
EndSplineSet
Substitution2: "'c2sc' Capitals to Small Capitals in Latin lookup 0 subtable" uni1D04
EndChar

StartChar: D
Encoding: 68 68 30
GlifName: D_
Width: 1369
VWidth: 0
GlyphClass: 2
Flags: HW
LayerCount: 2
Fore
SplineSet
1244 698 m 256
 1244 309 1046 0 616 0 c 258
 186 0 l 257
 186 1396 l 257
 616 1396 l 258
 1046 1396 1244 1087 1244 698 c 256
1058 698 m 256
 1058 1030 926 1238 616 1238 c 258
 370 1238 l 257
 370 156 l 257
 616 156 l 258
 926 156 1058 366 1058 698 c 256
EndSplineSet
Substitution2: "'c2sc' Capitals to Small Capitals in Latin lookup 0 subtable" uni1D05
EndChar

StartChar: E
Encoding: 69 69 33
GlifName: E_
Width: 1085
VWidth: 0
GlyphClass: 2
Flags: HW
LayerCount: 2
Fore
SplineSet
1022 156 m 257
 1022 0 l 257
 186 0 l 257
 186 1396 l 257
 1022 1396 l 257
 1022 1238 l 257
 370 1238 l 257
 370 772 l 257
 966 772 l 257
 966 623 l 257
 370 623 l 257
 370 156 l 257
 1022 156 l 257
EndSplineSet
Substitution2: "'c2sc' Capitals to Small Capitals in Latin lookup 0 subtable" uni1D07
EndChar

StartChar: Eng
Encoding: 330 330 42
GlifName: E_ng
Width: 1414
VWidth: 0
GlyphClass: 2
Flags: HW
LayerCount: 2
Fore
SplineSet
216 1396 m 257
 400 1396 l 257
 400 0 l 257
 216 0 l 257
 216 1396 l 257
836 1407 m 256
 1154 1407 1298 1210 1298 878 c 258
 1298 258 l 258
 1298 66 1168 -11 1002 -11 c 256
 940 -11 876 0 820 20 c 257
 846 145 l 257
 877 137 920 132 958 132 c 256
 1060 132 1116 178 1116 278 c 258
 1116 878 l 258
 1116 1104 1008 1243 782 1243 c 256
 559 1243 431 1077 400 853 c 257
 340 854 l 257
 378 1180 540 1407 836 1407 c 256
EndSplineSet
EndChar

StartChar: F
Encoding: 70 70 46
GlifName: F_
Width: 1078
VWidth: 0
GlyphClass: 2
Flags: HW
LayerCount: 2
Fore
SplineSet
370 0 m 257
 186 0 l 257
 186 1396 l 257
 1022 1396 l 257
 1022 1238 l 257
 370 1238 l 257
 370 726 l 257
 943 726 l 257
 943 578 l 257
 370 578 l 257
 370 0 l 257
EndSplineSet
Substitution2: "'c2sc' Capitals to Small Capitals in Latin lookup 0 subtable" uniA730
EndChar

StartChar: G
Encoding: 71 71 47
GlifName: G_
Width: 1414
VWidth: 0
GlyphClass: 2
Flags: HW
LayerCount: 2
Fore
SplineSet
702 726 m 257
 1302 726 l 257
 1302 207 l 257
 1189 69 985 -12 757 -12 c 256
 352 -12 109 252 109 694 c 256
 109 1128 352 1407 729 1407 c 256
 973 1407 1167 1270 1252 1036 c 257
 1106 978 l 257
 1045 1148 904 1249 728 1249 c 256
 455 1249 294 1043 294 694 c 256
 294 334 452 148 760 148 c 256
 885 148 1052 195 1119 249 c 257
 1119 578 l 257
 702 578 l 257
 702 726 l 257
EndSplineSet
Substitution2: "'c2sc' Capitals to Small Capitals in Latin lookup 0 subtable" uni0262
EndChar

StartChar: GAFbar
Encoding: 1114122 -1 48
GlifName: G_A_F_bar
Width: 1093
VWidth: 0
GlyphClass: 2
Flags: HW
LayerCount: 2
Fore
SplineSet
848 2057 m 257
 872 1956 l 257
 607 1894 335 1782 104 1638 c 257
 48 1727 l 257
 289 1877 570 1991 848 2057 c 257
EndSplineSet
EndChar

StartChar: H
Encoding: 72 72 53
GlifName: H_
Width: 1424
VWidth: 0
GlyphClass: 2
Flags: HW
LayerCount: 2
Fore
SplineSet
1054 1396 m 257
 1238 1396 l 257
 1238 0 l 257
 1054 0 l 257
 1054 622 l 257
 370 622 l 257
 370 0 l 257
 186 0 l 257
 186 1396 l 257
 370 1396 l 257
 370 774 l 257
 1054 774 l 257
 1054 1396 l 257
EndSplineSet
Substitution2: "'c2sc' Capitals to Small Capitals in Latin lookup 0 subtable" uni029C
EndChar

StartChar: I
Encoding: 73 73 63
GlifName: I_
Width: 637
VWidth: 0
GlyphClass: 2
Flags: HW
LayerCount: 2
Fore
SplineSet
410 0 m 257
 226 0 l 257
 226 1396 l 257
 410 1396 l 257
 410 0 l 257
EndSplineSet
Substitution2: "'c2sc' Capitals to Small Capitals in Latin lookup 0 subtable" uni026A
EndChar

StartChar: J
Encoding: 74 74 74
GlifName: J_
Width: 742
VWidth: 0
GlyphClass: 2
Flags: HW
LayerCount: 2
Fore
SplineSet
78 20 m 257
 106 145 l 257
 137 137 179 132 217 132 c 256
 319 132 374 178 374 278 c 258
 374 1396 l 257
 558 1396 l 257
 558 258 l 258
 558 66 428 -11 262 -11 c 256
 200 -11 134 0 78 20 c 257
EndSplineSet
Substitution2: "'c2sc' Capitals to Small Capitals in Latin lookup 0 subtable" uni1D0A
EndChar

StartChar: K
Encoding: 75 75 76
GlifName: K_
Width: 1268
VWidth: 0
GlyphClass: 2
Flags: HW
LayerCount: 2
Fore
SplineSet
1018 1396 m 257
 1240 1396 l 257
 642 698 l 257
 1240 0 l 257
 1018 0 l 257
 492 630 l 257
 370 630 l 257
 370 0 l 257
 186 0 l 257
 186 1396 l 257
 370 1396 l 257
 370 773 l 257
 490 773 l 257
 1018 1396 l 257
EndSplineSet
Substitution2: "'c2sc' Capitals to Small Capitals in Latin lookup 0 subtable" uni1D0B
EndChar

StartChar: K.alt
Encoding: 1114130 -1 77
GlifName: K_.alt
Width: 1268
VWidth: 0
GlyphClass: 2
Flags: HW
LayerCount: 2
Fore
SplineSet
1018 1396 m 257
 1240 1396 l 257
 642 698 l 257
 1240 0 l 257
 1018 0 l 257
 537 572 l 257
 370 379 l 257
 370 0 l 257
 186 0 l 257
 186 1396 l 257
 370 1396 l 257
 370 636 l 257
 1018 1396 l 257
EndSplineSet
Substitution2: "'c2sc' Capitals to Small Capitals in Latin lookup 0 subtable" uni1D0B
EndChar

StartChar: L
Encoding: 76 76 78
GlifName: L_
Width: 1067
VWidth: 0
GlyphClass: 2
Flags: HW
LayerCount: 2
Fore
SplineSet
1012 156 m 257
 1012 0 l 257
 186 0 l 257
 186 1396 l 257
 370 1396 l 257
 370 156 l 257
 1012 156 l 257
EndSplineSet
Substitution2: "'c2sc' Capitals to Small Capitals in Latin lookup 0 subtable" uni029F
EndChar

StartChar: M
Encoding: 77 77 83
GlifName: M_
Width: 1865
VWidth: 0
GlyphClass: 2
Flags: HW
LayerCount: 2
Fore
SplineSet
370 0 m 257
 186 0 l 257
 186 1396 l 257
 423 1396 l 257
 916 166 l 257
 1444 1396 l 257
 1682 1396 l 257
 1682 0 l 257
 1498 0 l 257
 1498 1132 l 257
 1016 0 l 257
 814 0 l 257
 370 1128 l 257
 370 0 l 257
EndSplineSet
Substitution2: "'c2sc' Capitals to Small Capitals in Latin lookup 0 subtable" uni1D0D
EndChar

StartChar: N
Encoding: 78 78 84
GlifName: N_
Width: 1435
VWidth: 0
GlyphClass: 2
Flags: HW
LayerCount: 2
Fore
SplineSet
1066 1396 m 257
 1250 1396 l 257
 1250 0 l 257
 1055 0 l 257
 370 1112 l 257
 370 0 l 257
 186 0 l 257
 186 1396 l 257
 381 1396 l 257
 1066 283 l 257
 1066 1396 l 257
EndSplineSet
Substitution2: "'c2sc' Capitals to Small Capitals in Latin lookup 0 subtable" uni0274
EndChar

StartChar: O
Encoding: 79 79 88
GlifName: O_
Width: 1519
VWidth: 0
GlyphClass: 2
Flags: HW
LayerCount: 2
Fore
SplineSet
760 1407 m 256
 1184 1407 1379 1096 1379 698 c 256
 1379 300 1183 -11 760 -11 c 256
 337 -11 140 300 140 698 c 256
 140 1096 336 1407 760 1407 c 256
760 1248 m 256
 472 1248 325 1030 325 698 c 256
 325 366 470 148 760 148 c 256
 1050 148 1195 366 1195 698 c 256
 1195 1030 1048 1248 760 1248 c 256
EndSplineSet
Substitution2: "'c2sc' Capitals to Small Capitals in Latin lookup 0 subtable" uni1D0F
EndChar

StartChar: OE
Encoding: 338 338 89
GlifName: O_E_
Width: 1692
VWidth: 0
GlyphClass: 2
Flags: HW
LayerCount: 2
Fore
SplineSet
894 1238 m 257
 771 1238 l 258
 482 1238 330 1027 330 698 c 256
 330 368 482 156 771 156 c 258
 894 156 l 257
 894 1238 l 257
1078 1238 m 257
 1078 772 l 257
 1583 772 l 257
 1583 623 l 257
 1078 623 l 257
 1078 156 l 257
 1638 156 l 257
 1638 0 l 257
 771 0 l 258
 363 0 145 300 145 698 c 256
 145 1096 363 1396 771 1396 c 258
 1638 1396 l 257
 1638 1238 l 257
 1078 1238 l 257
EndSplineSet
EndChar

StartChar: P
Encoding: 80 80 102
GlifName: P_
Width: 1218
VWidth: 0
GlyphClass: 2
Flags: HW
LayerCount: 2
Fore
SplineSet
340 0 m 257
 156 0 l 257
 156 1396 l 257
 686 1396 l 258
 959 1396 1115 1240 1115 984 c 256
 1115 728 960 570 686 570 c 258
 340 570 l 257
 340 0 l 257
340 1238 m 257
 340 728 l 257
 682 728 l 258
 848 728 932 832 932 984 c 256
 932 1136 848 1238 682 1238 c 258
 340 1238 l 257
EndSplineSet
Substitution2: "'c2sc' Capitals to Small Capitals in Latin lookup 0 subtable" uni1D18
EndChar

StartChar: R
Encoding: 82 82 105
GlifName: R_
Width: 1219
VWidth: 0
GlyphClass: 2
Flags: HW
LayerCount: 2
Fore
SplineSet
832 670 m 257
 1194 0 l 257
 1008 0 l 257
 668 670 l 257
 832 670 l 257
EndSplineSet
Refer: 102 80 N 1 0 0 1 0 0 2
Substitution2: "'c2sc' Capitals to Small Capitals in Latin lookup 0 subtable" uni0280
EndChar

StartChar: S
Encoding: 83 83 108
GlifName: S_
Width: 1199
VWidth: 0
GlyphClass: 2
Flags: HW
LayerCount: 2
Fore
SplineSet
104 420 m 257
 285 420 l 257
 285 241 429 148 616 148 c 256
 780 148 915 219 915 370 c 256
 915 526 739 578 591 621 c 256
 378 682 136 766 136 1030 c 256
 136 1267 332 1406 582 1406 c 256
 864 1406 1072 1241 1072 988 c 257
 891 988 l 257
 891 1149 762 1249 592 1249 c 256
 434 1249 318 1171 318 1033 c 256
 318 878 498 826 648 780 c 256
 860 718 1097 630 1097 370 c 256
 1097 112 870 -10 622 -10 c 256
 333 -10 104 137 104 420 c 257
EndSplineSet
Substitution2: "'c2sc' Capitals to Small Capitals in Latin lookup 0 subtable" uniA731
EndChar

StartChar: T
Encoding: 84 84 113
GlifName: T_
Width: 1327
VWidth: 0
GlyphClass: 2
Flags: HW
LayerCount: 2
Fore
SplineSet
756 0 m 257
 572 0 l 257
 572 1238 l 257
 87 1238 l 257
 87 1396 l 257
 1242 1396 l 257
 1242 1238 l 257
 756 1238 l 257
 756 0 l 257
EndSplineSet
Substitution2: "'c2sc' Capitals to Small Capitals in Latin lookup 0 subtable" uni1D1B
EndChar

StartChar: Thorn
Encoding: 222 222 123
GlifName: T_horn
Width: 1218
VWidth: 0
GlyphClass: 2
Flags: HW
LayerCount: 2
Fore
SplineSet
341 432 m 257
 672 432 l 258
 840 432 934 525 934 688 c 256
 934 852 838 942 672 942 c 258
 341 942 l 257
 341 432 l 257
341 0 m 257
 158 0 l 257
 158 1396 l 257
 341 1396 l 257
 341 1100 l 257
 672 1100 l 258
 929 1100 1118 946 1118 688 c 256
 1118 430 927 274 672 274 c 258
 341 274 l 257
 341 0 l 257
EndSplineSet
EndChar

StartChar: U
Encoding: 85 85 124
GlifName: U_
Width: 1392
VWidth: 0
GlyphClass: 2
Flags: HW
LayerCount: 2
Fore
SplineSet
1054 1396 m 257
 1238 1396 l 257
 1238 495 l 258
 1238 175 1037 -11 696 -11 c 256
 355 -11 154 175 154 495 c 258
 154 1396 l 257
 338 1396 l 257
 338 496 l 258
 338 281 464 153 696 153 c 256
 928 153 1054 281 1054 496 c 258
 1054 1396 l 257
EndSplineSet
Substitution2: "'c2sc' Capitals to Small Capitals in Latin lookup 0 subtable" uni1D1C
EndChar

StartChar: V
Encoding: 86 86 136
GlifName: V_
Width: 1271
VWidth: 0
GlyphClass: 2
Flags: HW
LayerCount: 2
Fore
SplineSet
635 196 m 257
 1066 1396 l 257
 1262 1396 l 257
 741 0 l 257
 529 0 l 257
 10 1396 l 257
 206 1396 l 257
 635 196 l 257
EndSplineSet
Substitution2: "'c2sc' Capitals to Small Capitals in Latin lookup 0 subtable" uni1D20
EndChar

StartChar: W
Encoding: 87 87 137
GlifName: W_
Width: 1883
VWidth: 0
GlyphClass: 2
Flags: HW
LayerCount: 2
Fore
SplineSet
1652 1396 m 257
 1842 1396 l 257
 1448 0 l 257
 1240 0 l 257
 942 1148 l 257
 638 0 l 257
 434 0 l 257
 40 1396 l 257
 231 1396 l 257
 548 238 l 257
 845 1396 l 257
 1038 1396 l 257
 1335 238 l 257
 1652 1396 l 257
EndSplineSet
Substitution2: "'c2sc' Capitals to Small Capitals in Latin lookup 0 subtable" uni1D21
EndChar

StartChar: X
Encoding: 88 88 142
GlifName: X_
Width: 1343
VWidth: 0
GlyphClass: 2
Flags: HW
LayerCount: 2
Fore
SplineSet
1318 0 m 257
 1100 0 l 257
 672 556 l 257
 244 0 l 257
 26 0 l 257
 566 698 l 257
 26 1396 l 257
 244 1396 l 257
 672 838 l 257
 1100 1396 l 257
 1318 1396 l 257
 776 698 l 257
 1318 0 l 257
EndSplineSet
Substitution2: "'c2sc' Capitals to Small Capitals in Latin lookup 0 subtable" uniA7EF
EndChar

StartChar: Y
Encoding: 89 89 143
GlifName: Y_
Width: 1240
VWidth: 0
GlyphClass: 2
Flags: HW
LayerCount: 2
Fore
SplineSet
1030 1396 m 257
 1241 1396 l 257
 712 603 l 257
 712 0 l 257
 528 0 l 257
 528 603 l 257
 -1 1396 l 257
 212 1396 l 257
 620 758 l 257
 1030 1396 l 257
EndSplineSet
Substitution2: "'c2sc' Capitals to Small Capitals in Latin lookup 0 subtable" uni028F
EndChar

StartChar: Z
Encoding: 90 90 148
GlifName: Z_
Width: 1215
VWidth: 0
GlyphClass: 2
Flags: HW
LayerCount: 2
Fore
SplineSet
84 1240 m 257
 84 1396 l 257
 1130 1396 l 257
 1130 1249 l 257
 286 156 l 257
 1130 156 l 257
 1130 0 l 257
 84 0 l 257
 84 148 l 257
 930 1240 l 257
 84 1240 l 257
EndSplineSet
Substitution2: "'c2sc' Capitals to Small Capitals in Latin lookup 0 subtable" uni1D22
EndChar

StartChar: a
Encoding: 97 97 152
GlifName: a
Width: 1078
VWidth: 0
GlyphClass: 2
Flags: HW
LayerCount: 2
Fore
SplineSet
526 1054 m 256
 779 1054 938 933 938 725 c 258
 938 253 l 258
 938 165 964 120 1058 120 c 257
 1059 -0 l 257
 879 -17 754 56 754 252 c 258
 754 725 l 258
 754 851 659 908 520 908 c 256
 381 908 284 852 284 725 c 257
 124 725 l 257
 117 937 274 1054 526 1054 c 256
EndSplineSet
Refer: 1670 57355 N 1 0 0 1 -5 0 2
Substitution2: "'smcp' Lowercase to Small Capitals in Latin lookup 0 subtable" uni1D00
EndChar

StartChar: acute
Encoding: 180 180 156
GlifName: acute
Width: 547
VWidth: 0
GlyphClass: 2
Flags: HW
LayerCount: 2
Fore
SplineSet
284 1467 m 257
 434 1467 l 257
 244 1132 l 257
 112 1132 l 257
 284 1467 l 257
EndSplineSet
EndChar

StartChar: ae
Encoding: 230 230 158
GlifName: ae
Width: 1777
VWidth: 0
GlyphClass: 2
Flags: HW
LayerCount: 2
Fore
SplineSet
754 274 m 257
 754 725 l 258
 754 851 658 908 519 908 c 256
 380 908 284 852 284 725 c 257
 123 725 l 257
 116 937 274 1054 526 1054 c 256
 779 1054 938 933 938 725 c 258
 938 273 l 257
 754 274 l 257
98 273 m 256
 98 499 284 597 502 597 c 258
 920 597 l 257
 920 472 l 257
 512 472 l 258
 371 472 264 424 264 294 c 256
 264 196 315 129 453 129 c 256
 615 129 727 249 762 301 c 257
 824 288 l 257
 784 189 650 -14 394 -14 c 256
 208 -14 98 89 98 273 c 256
EndSplineSet
Refer: 225 101 N 1 0 0 1 674 0 2
Substitution2: "'c2sc' Capitals to Small Capitals in Latin lookup 0 subtable" uni1D01
Substitution2: "'smcp' Lowercase to Small Capitals in Latin lookup 0 subtable" uni1D01
EndChar

StartChar: ampersand
Encoding: 38 38 162
GlifName: ampersand
Width: 1382
VWidth: 0
GlyphClass: 2
Flags: HW
LayerCount: 2
Fore
SplineSet
204 1072 m 256
 204 1248 335 1403 562 1403 c 256
 776 1403 919 1262 919 1072 c 256
 919 874 769 763 568 657 c 256
 404 569 274 478 274 352 c 256
 274 212 402 146 556 146 c 256
 833 146 1046 386 1046 630 c 257
 1203 630 l 257
 1203 292 953 -10 560 -10 c 256
 298 -10 104 120 104 350 c 256
 104 543 253 664 471 782 c 256
 635 870 754 941 754 1074 c 256
 754 1182 678 1256 562 1256 c 256
 437 1256 368 1170 368 1078 c 256
 368 992 416 923 492 851 c 258
 1283 107 l 257
 1174 -11 l 257
 362 756 l 258
 265 848 204 951 204 1072 c 256
EndSplineSet
EndChar

StartChar: approxequal
Encoding: 8776 8776 164
GlifName: approxequal
Width: 1149
VWidth: 0
GlyphClass: 2
Flags: HW
LayerCount: 2
Fore
SplineSet
132 330 m 257
 214 444 301 498 395 498 c 256
 447 498 509 480 590 434 c 256
 662 394 716 374 753 374 c 256
 808 374 866 410 928 486 c 257
 1012 412 l 257
 927 296 844 244 748 244 c 256
 695 244 636 264 550 312 c 256
 475 354 422 370 386 370 c 256
 331 370 278 337 220 260 c 257
 132 330 l 257
132 822 m 257
 214 936 301 991 395 991 c 256
 447 991 509 972 590 926 c 256
 662 886 716 867 753 867 c 256
 808 867 866 902 928 978 c 257
 1012 904 l 257
 927 788 844 736 748 736 c 256
 695 736 636 755 550 803 c 256
 475 845 422 862 386 862 c 256
 331 862 278 829 220 752 c 257
 132 822 l 257
EndSplineSet
EndChar

StartChar: arrowboth
Encoding: 8596 8596 167
GlifName: arrowboth
Width: 1770
VWidth: 0
GlyphClass: 2
Flags: HW
LayerCount: 2
Fore
SplineSet
551 933 m 257
 627 857 l 257
 340 570 l 257
 392 584 l 257
 1378 584 l 257
 1430 570 l 257
 1143 857 l 257
 1219 933 l 257
 1620 532 l 257
 1219 130 l 257
 1143 206 l 257
 1430 492 l 257
 1378 479 l 257
 392 479 l 257
 340 492 l 257
 627 206 l 257
 551 130 l 257
 150 532 l 257
 551 933 l 257
EndSplineSet
EndChar

StartChar: arrowdown
Encoding: 8595 8595 168
GlifName: arrowdown
Width: 1103
VWidth: 0
GlyphClass: 2
Flags: HW
LayerCount: 2
Fore
SplineSet
604 1096 m 257
 604 266 l 257
 590 214 l 257
 877 502 l 257
 953 426 l 257
 552 24 l 257
 150 426 l 257
 226 502 l 257
 512 214 l 257
 499 266 l 257
 499 1096 l 257
 604 1096 l 257
EndSplineSet
EndChar

StartChar: arrowleft
Encoding: 8592 8592 169
GlifName: arrowleft
Width: 1371
VWidth: 0
GlyphClass: 2
Flags: HW
LayerCount: 2
Fore
SplineSet
1221 479 m 257
 392 479 l 257
 340 492 l 257
 627 206 l 257
 551 130 l 257
 150 532 l 257
 551 933 l 257
 627 857 l 257
 340 570 l 257
 392 584 l 257
 1221 584 l 257
 1221 479 l 257
EndSplineSet
EndChar

StartChar: arrowright
Encoding: 8594 8594 170
GlifName: arrowright
Width: 1371
VWidth: 0
GlyphClass: 2
Flags: HW
LayerCount: 2
Fore
SplineSet
150 584 m 257
 978 584 l 257
 1030 570 l 257
 744 857 l 257
 820 933 l 257
 1221 532 l 257
 820 130 l 257
 744 206 l 257
 1030 492 l 257
 978 479 l 257
 150 479 l 257
 150 584 l 257
EndSplineSet
EndChar

StartChar: arrowup
Encoding: 8593 8593 171
GlifName: arrowup
Width: 1103
VWidth: 0
GlyphClass: 2
Flags: HW
LayerCount: 2
Fore
SplineSet
499 -38 m 257
 499 790 l 257
 512 842 l 257
 226 556 l 257
 150 632 l 257
 552 1033 l 257
 953 632 l 257
 877 556 l 257
 590 842 l 257
 604 790 l 257
 604 -38 l 257
 499 -38 l 257
EndSplineSet
EndChar

StartChar: arrowupdn
Encoding: 8597 8597 172
GlifName: arrowupdn
Width: 1103
VWidth: 0
GlyphClass: 2
Flags: HW
LayerCount: 2
Fore
SplineSet
552 1267 m 257
 953 866 l 257
 877 790 l 257
 590 1076 l 257
 604 1024 l 257
 604 39 l 257
 590 -13 l 257
 877 274 l 257
 953 198 l 257
 552 -204 l 257
 150 198 l 257
 226 274 l 257
 512 -13 l 257
 499 39 l 257
 499 1024 l 257
 512 1076 l 257
 226 790 l 257
 150 866 l 257
 552 1267 l 257
EndSplineSet
EndChar

StartChar: asciicircum
Encoding: 94 94 173
GlifName: asciicircum
Width: 772
VWidth: 0
GlyphClass: 2
Flags: HW
LayerCount: 2
Fore
SplineSet
660 1132 m 257
 528 1132 l 257
 386 1376 l 257
 243 1132 l 257
 112 1132 l 257
 290 1467 l 257
 482 1467 l 257
 660 1132 l 257
EndSplineSet
Substitution2: "'tnum' Tabular Numbers lookup 22 subtable" asciicircum.tnum
EndChar

StartChar: asciitilde
Encoding: 126 126 175
GlifName: asciitilde
Width: 1006
VWidth: 0
GlyphClass: 2
Flags: HW
LayerCount: 2
Fore
SplineSet
116 1172 m 257
 173 1294 252 1358 340 1358 c 256
 398 1358 444 1336 523 1290 c 256
 586 1253 625 1235 663 1235 c 256
 714 1235 760 1268 806 1360 c 257
 890 1317 l 257
 834 1191 756 1133 668 1133 c 256
 610 1133 561 1154 474 1204 c 256
 415 1238 374 1256 341 1256 c 256
 292 1256 246 1228 200 1132 c 257
 116 1172 l 257
EndSplineSet
EndChar

StartChar: asterisk
Encoding: 42 42 176
GlifName: asterisk
Width: 1241
VWidth: 0
GlyphClass: 2
Flags: HW
LayerCount: 2
Fore
SplineSet
188 1034 m 257
 231 1159 l 257
 559 1048 l 257
 554 1396 l 257
 688 1396 l 257
 684 1048 l 257
 1013 1159 l 257
 1054 1034 l 257
 724 930 l 257
 930 650 l 257
 824 572 l 257
 621 856 l 257
 420 572 l 257
 313 650 l 257
 520 930 l 257
 188 1034 l 257
EndSplineSet
Substitution2: "'tnum' Tabular Numbers lookup 22 subtable" asterisk.tnum
EndChar

StartChar: at
Encoding: 64 64 178
GlifName: at
Width: 1925
VWidth: 0
GlyphClass: 2
Flags: HW
LayerCount: 2
Fore
SplineSet
972 820 m 256
 790 820 644 688 644 414 c 256
 644 190 768 120 900 120 c 256
 1032 120 1150 221 1170 439 c 258
 1198 754 l 257
 1143 794 1084 820 972 820 c 256
972 940 m 256
 1148 940 1246 876 1334 808 c 257
 1287 300 l 258
 1285 283 1284 266 1284 257 c 256
 1284 167 1335 120 1420 120 c 256
 1576 120 1656 301 1656 518 c 256
 1656 878 1379 1189 989 1189 c 256
 597 1189 276 889 276 439 c 256
 276 3 536 -234 984 -234 c 256
 1058 -234 1130 -220 1197 -200 c 257
 1242 -312 l 257
 1161 -337 1074 -354 982 -354 c 256
 456 -354 145 -55 145 440 c 256
 145 954 513 1306 985 1306 c 256
 1465 1306 1781 937 1781 512 c 256
 1781 254 1671 -8 1422 -8 c 256
 1307 -8 1222 48 1200 166 c 257
 1142 44 1009 -8 900 -8 c 256
 690 -8 514 136 514 414 c 256
 514 748 704 940 972 940 c 256
EndSplineSet
EndChar

StartChar: b
Encoding: 98 98 180
GlifName: b
Width: 1123
VWidth: 0
GlyphClass: 2
Flags: HW
LayerCount: 2
Fore
SplineSet
337 0 m 257
 154 0 l 257
 154 1454 l 257
 337 1454 l 257
 337 0 l 257
EndSplineSet
Refer: 1674 57359 N 1 0 0 1 4 0 2
Substitution2: "'smcp' Lowercase to Small Capitals in Latin lookup 0 subtable" uni0299
EndChar

StartChar: backslash
Encoding: 92 92 181
GlifName: backslash
Width: 1157
VWidth: 0
GlyphClass: 2
Flags: HW
LayerCount: 2
Fore
SplineSet
1006 0 m 257
 792 0 l 257
 145 1396 l 257
 360 1396 l 257
 1006 0 l 257
EndSplineSet
Substitution2: "'tnum' Tabular Numbers lookup 22 subtable" backslash.tnum
EndChar

StartChar: bar
Encoding: 124 124 183
GlifName: bar
Width: 586
VWidth: 0
GlyphClass: 2
Flags: HW
LayerCount: 2
Fore
SplineSet
202 1418 m 257
 385 1418 l 257
 385 -444 l 257
 202 -444 l 257
 202 1418 l 257
EndSplineSet
Substitution2: "'tnum' Tabular Numbers lookup 22 subtable" bar.tnum
EndChar

StartChar: braceleft
Encoding: 123 123 185
GlifName: braceleft
Width: 882
VWidth: 0
GlyphClass: 2
Flags: HW
LayerCount: 2
Fore
SplineSet
268 676 m 257
 406 608 470 494 470 356 c 258
 470 144 l 258
 470 80 515 28 584 28 c 258
 767 28 l 257
 767 -122 l 257
 574 -122 l 258
 421 -122 317 -14 317 124 c 258
 317 356 l 258
 317 483 230 575 128 600 c 257
 78 607 l 257
 78 744 l 257
 128 752 l 257
 230 777 317 870 317 997 c 258
 317 1226 l 258
 317 1364 420 1471 574 1471 c 258
 767 1471 l 257
 767 1324 l 257
 584 1324 l 258
 515 1324 470 1271 470 1207 c 258
 470 997 l 258
 470 859 405 744 268 676 c 257
EndSplineSet
Substitution2: "'tnum' Tabular Numbers lookup 22 subtable" braceleft.tnum
EndChar

StartChar: braceright
Encoding: 125 125 187
GlifName: braceright
Width: 882
VWidth: 0
GlyphClass: 2
Flags: HW
LayerCount: 2
Fore
SplineSet
614 674 m 257
 476 742 412 856 412 994 c 258
 412 1206 l 258
 412 1270 367 1322 298 1322 c 258
 115 1322 l 257
 115 1471 l 257
 308 1471 l 258
 461 1471 565 1364 565 1226 c 258
 565 994 l 258
 565 867 652 775 754 750 c 257
 804 742 l 257
 804 606 l 257
 754 597 l 257
 652 572 565 480 565 353 c 258
 565 124 l 258
 565 -14 462 -122 308 -122 c 258
 115 -122 l 257
 115 26 l 257
 298 26 l 258
 367 26 412 78 412 142 c 258
 412 353 l 258
 412 491 477 606 614 674 c 257
EndSplineSet
Substitution2: "'tnum' Tabular Numbers lookup 22 subtable" braceright.tnum
EndChar

StartChar: bracketleft
Encoding: 91 91 189
GlifName: bracketleft
Width: 714
VWidth: 0
GlyphClass: 2
Flags: HW
LayerCount: 2
Fore
SplineSet
612 28 m 257
 612 -122 l 257
 162 -122 l 257
 162 1472 l 257
 612 1472 l 257
 612 1324 l 257
 316 1324 l 257
 316 28 l 257
 612 28 l 257
EndSplineSet
Substitution2: "'tnum' Tabular Numbers lookup 22 subtable" bracketleft.tnum
EndChar

StartChar: bracketright
Encoding: 93 93 191
GlifName: bracketright
Width: 715
VWidth: 0
GlyphClass: 2
Flags: HW
LayerCount: 2
Fore
SplineSet
102 1322 m 257
 102 1471 l 257
 553 1471 l 257
 553 -122 l 257
 102 -122 l 257
 102 26 l 257
 400 26 l 257
 400 1322 l 257
 102 1322 l 257
EndSplineSet
Substitution2: "'tnum' Tabular Numbers lookup 22 subtable" bracketright.tnum
EndChar

StartChar: breve
Encoding: 728 728 193
GlifName: breve
Width: 854
VWidth: 0
GlyphClass: 2
Flags: HW
LayerCount: 2
Fore
SplineSet
738 1446 m 257
 738 1250 622 1132 428 1132 c 256
 234 1132 116 1250 116 1446 c 257
 220 1446 l 257
 220 1308 296 1234 428 1234 c 256
 560 1234 634 1308 634 1446 c 257
 738 1446 l 257
EndSplineSet
EndChar

StartChar: brokenbar
Encoding: 166 166 194
GlifName: brokenbar
Width: 479
VWidth: 0
GlyphClass: 2
Flags: HW
LayerCount: 2
Fore
SplineSet
332 870 m 257
 148 870 l 257
 148 1396 l 257
 332 1396 l 257
 332 870 l 257
332 0 m 257
 148 0 l 257
 148 534 l 257
 332 534 l 257
 332 0 l 257
EndSplineSet
EndChar

StartChar: bullet
Encoding: 8226 8226 195
GlifName: bullet
Width: 520
VWidth: 0
GlyphClass: 2
Flags: HW
LayerCount: 2
Fore
SplineSet
100 688 m 256
 100 778 168 848 260 848 c 256
 352 848 421 778 421 688 c 256
 421 598 352 526 260 526 c 256
 168 526 100 598 100 688 c 256
EndSplineSet
EndChar

StartChar: c
Encoding: 99 99 196
GlifName: c
Width: 1131
VWidth: 0
GlyphClass: 2
Flags: HW
LayerCount: 2
Fore
SplineSet
580 1054 m 256
 828 1054 986 922 1025 710 c 257
 850 696 l 257
 818 832 718 906 580 906 c 256
 404 906 283 790 283 524 c 256
 283 256 404 138 580 138 c 256
 718 138 818 212 850 348 c 257
 1025 336 l 257
 986 121 828 -10 580 -10 c 256
 277 -10 99 183 99 522 c 256
 99 861 277 1054 580 1054 c 256
EndSplineSet
Substitution2: "'smcp' Lowercase to Small Capitals in Latin lookup 0 subtable" uni1D04
EndChar

StartChar: caron
Encoding: 711 711 198
GlifName: caron
Width: 772
VWidth: 0
GlyphClass: 2
Flags: HW
LayerCount: 2
Fore
SplineSet
112 1467 m 257
 244 1467 l 257
 386 1223 l 257
 529 1467 l 257
 660 1467 l 257
 482 1132 l 257
 290 1132 l 257
 112 1467 l 257
EndSplineSet
EndChar

StartChar: cedilla
Encoding: 184 184 203
GlifName: cedilla
Width: 655
VWidth: 0
GlyphClass: 2
Flags: HW
LayerCount: 2
Fore
SplineSet
540 -274 m 256
 540 -390 448 -460 302 -460 c 256
 236 -460 174 -445 116 -417 c 257
 152 -334 l 257
 191 -354 249 -366 304 -366 c 256
 390 -366 438 -336 438 -280 c 256
 438 -217 376 -178 280 -178 c 256
 265 -178 249 -178 234 -180 c 257
 234 1 l 257
 321 1 l 257
 321 -98 l 257
 459 -98 540 -164 540 -274 c 256
EndSplineSet
EndChar

StartChar: circumflex
Encoding: 710 710 206
GlifName: circumflex
Width: 772
VWidth: 0
GlyphClass: 2
Flags: HW
LayerCount: 2
Fore
SplineSet
660 1132 m 257
 528 1132 l 257
 386 1376 l 257
 243 1132 l 257
 112 1132 l 257
 290 1467 l 257
 482 1467 l 257
 660 1132 l 257
EndSplineSet
EndChar

StartChar: comma
Encoding: 44 44 208
GlifName: comma
Width: 586
VWidth: 0
GlyphClass: 2
Flags: HW
LayerCount: 2
Fore
SplineSet
202 276 m 257
 384 276 l 257
 230 -208 l 257
 108 -152 l 257
 202 276 l 257
EndSplineSet
Substitution2: "'tnum' Tabular Numbers lookup 22 subtable" comma.tnum
EndChar

StartChar: copyright
Encoding: 169 169 210
GlifName: copyright
Width: 1879
VWidth: 0
GlyphClass: 2
Flags: HW
LayerCount: 2
Fore
SplineSet
280 756 m 256
 280 384 556 94 940 94 c 256
 1324 94 1601 384 1601 756 c 256
 1601 1127 1324 1418 940 1418 c 256
 556 1418 280 1127 280 756 c 256
142 756 m 256
 142 1186 460 1544 940 1544 c 256
 1420 1544 1740 1186 1740 756 c 256
 1740 326 1420 -32 940 -32 c 256
 460 -32 142 326 142 756 c 256
1217 984 m 257
 1154 931 l 257
 1091 999 1028 1030 940 1030 c 256
 788 1030 689 903 689 759 c 256
 689 615 788 488 940 488 c 256
 1028 488 1091 519 1154 587 c 257
 1217 532 l 257
 1135 445 1059 400 934 400 c 256
 724 400 594 577 594 759 c 256
 594 941 724 1118 934 1118 c 256
 1059 1118 1135 1071 1217 984 c 257
EndSplineSet
EndChar

StartChar: currency
Encoding: 164 164 211
GlifName: currency
Width: 1347
VWidth: 0
GlyphClass: 2
Flags: HW
LayerCount: 2
Fore
SplineSet
894 98 m 257
 1005 195 l 257
 1254 -81 l 257
 1144 -177 l 257
 894 98 l 257
344 195 m 257
 454 98 l 257
 205 -177 l 257
 95 -81 l 257
 344 195 l 257
1005 830 m 257
 894 926 l 257
 1144 1202 l 257
 1254 1106 l 257
 1005 830 l 257
454 926 m 257
 344 830 l 257
 95 1106 l 257
 205 1202 l 257
 454 926 l 257
EndSplineSet
Refer: 324 111 N 1 0 0 1 118 0 2
EndChar

StartChar: d
Encoding: 100 100 212
GlifName: d
Width: 1119
VWidth: 0
GlyphClass: 2
Flags: HW
LayerCount: 2
Fore
SplineSet
968 0 m 257
 784 0 l 257
 784 1418 l 257
 968 1418 l 257
 968 0 l 257
EndSplineSet
Refer: 1674 57359 N -1 0 0 -1 1116 1044 2
Substitution2: "'smcp' Lowercase to Small Capitals in Latin lookup 0 subtable" uni1D05
EndChar

StartChar: dagger
Encoding: 8224 8224 213
GlifName: dagger
Width: 1387
VWidth: 0
GlyphClass: 2
Flags: HW
LayerCount: 2
Fore
SplineSet
200 879 m 257
 200 1042 l 257
 1187 1042 l 257
 1187 879 l 257
 200 879 l 257
611 1396 m 257
 776 1396 l 257
 776 -471 l 257
 611 -471 l 257
 611 1396 l 257
EndSplineSet
EndChar

StartChar: daggerdbl
Encoding: 8225 8225 214
GlifName: daggerdbl
Width: 1387
VWidth: 0
GlyphClass: 2
Flags: HW
LayerCount: 2
Fore
SplineSet
200 -118 m 257
 200 46 l 257
 1187 46 l 257
 1187 -118 l 257
 200 -118 l 257
200 879 m 257
 200 1042 l 257
 1187 1042 l 257
 1187 879 l 257
 200 879 l 257
611 1396 m 257
 776 1396 l 257
 776 -471 l 257
 611 -471 l 257
 611 1396 l 257
EndSplineSet
EndChar

StartChar: degree
Encoding: 176 176 217
GlifName: degree
Width: 710
VWidth: 0
GlyphClass: 2
Flags: HW
LayerCount: 2
Fore
SplineSet
505 1371 m 256
 505 1455 438 1522 354 1522 c 256
 270 1522 206 1455 206 1371 c 256
 206 1287 270 1222 354 1222 c 256
 438 1222 505 1287 505 1371 c 256
594 1371 m 256
 594 1239 486 1132 354 1132 c 256
 222 1132 116 1239 116 1371 c 256
 116 1503 222 1610 354 1610 c 256
 486 1610 594 1503 594 1371 c 256
EndSplineSet
EndChar

StartChar: dieresis
Encoding: 168 168 218
GlifName: dieresis
Width: 794
VWidth: 0
GlyphClass: 2
Flags: HW
LayerCount: 2
Fore
SplineSet
116 1234 m 256
 116 1289 161 1332 218 1332 c 256
 275 1332 318 1289 318 1234 c 256
 318 1179 275 1132 218 1132 c 256
 161 1132 116 1179 116 1234 c 256
476 1234 m 256
 476 1289 520 1332 577 1332 c 256
 634 1332 678 1289 678 1234 c 256
 678 1179 634 1132 577 1132 c 256
 520 1132 476 1179 476 1234 c 256
EndSplineSet
EndChar

StartChar: dollar.alt
Encoding: 1114151 -1 222
GlifName: dollar.alt
Width: 1199
VWidth: 0
GlyphClass: 2
Flags: HW
LayerCount: 2
Fore
SplineSet
641 66 m 257
 641 -215 l 257
 544 -215 l 257
 544 66 l 257
 641 66 l 257
544 1338 m 257
 544 1604 l 257
 641 1604 l 257
 641 1338 l 257
 544 1338 l 257
EndSplineSet
Refer: 108 83 N 1 0 0 1 0 0 2
EndChar

StartChar: dotaccent
Encoding: 729 729 223
GlifName: dotaccent
Width: 498
VWidth: 0
GlyphClass: 2
Flags: HW
LayerCount: 2
Fore
SplineSet
116 1264 m 256
 116 1336 178 1395 250 1395 c 256
 322 1395 382 1336 382 1264 c 256
 382 1192 322 1132 250 1132 c 256
 178 1132 116 1192 116 1264 c 256
EndSplineSet
EndChar

StartChar: dotlessi
Encoding: 305 305 224
GlifName: dotlessi
Width: 511
VWidth: 0
GlyphClass: 2
Flags: HW
LayerCount: 2
Fore
SplineSet
164 1044 m 257
 348 1044 l 257
 348 0 l 257
 164 0 l 257
 164 1044 l 257
EndSplineSet
EndChar

StartChar: e
Encoding: 101 101 225
GlifName: e
Width: 1102
VWidth: 0
GlyphClass: 2
Flags: HW
LayerCount: 2
Fore
SplineSet
266 472 m 257
 274 275 372 139 566 139 c 256
 699 139 790 206 826 304 c 257
 1001 268 l 257
 937 92 786 -11 560 -11 c 256
 251 -11 82 194 82 522 c 256
 82 852 258 1054 554 1054 c 256
 922 1054 1044 800 1029 472 c 257
 266 472 l 257
268 598 m 257
 843 598 l 257
 830 786 749 906 555 906 c 256
 388 906 280 788 268 598 c 257
EndSplineSet
Substitution2: "'smcp' Lowercase to Small Capitals in Latin lookup 0 subtable" uni1D07
EndChar

StartChar: eight
Encoding: 56 56 233
GlifName: eight
Width: 1145
VWidth: 0
GlyphClass: 2
Flags: HW
LayerCount: 2
Fore
SplineSet
574 1407 m 256
 825 1407 982 1247 982 1046 c 256
 982 915 916 794 800 728 c 257
 954 645 1038 509 1038 364 c 256
 1038 152 861 -12 574 -12 c 256
 286 -12 107 154 107 368 c 256
 107 514 192 649 344 729 c 257
 228 795 162 914 162 1044 c 256
 162 1245 322 1407 574 1407 c 256
574 1260 m 256
 434 1260 344 1170 344 1028 c 256
 344 883 434 791 573 791 c 256
 712 791 800 883 800 1028 c 256
 800 1172 713 1260 574 1260 c 256
569 650 m 256
 407 650 295 541 295 384 c 256
 295 233 399 142 573 142 c 256
 746 142 850 233 850 382 c 256
 850 538 733 650 569 650 c 256
EndSplineSet
Substitution2: "'sups' Superscript lookup 0 subtable" uni2078
Substitution2: "'subs' Subscript lookup 0 subtable" uni2088
Substitution2: "'sinf' Scientific Inferiors lookup 20 subtable" uni2088
Substitution2: "'tnum' Tabular Numbers lookup 22 subtable" eight.tnum
Substitution2: "'onum' Oldstyle Figures lookup 23 subtable" eight.onum
Substitution2: "'smcp' Lowercase to Small Capitals in Latin lookup 0 subtable" eight.SC
EndChar

StartChar: eight.SC
Encoding: 1114152 -1 234
GlifName: eight.S_C_
Width: 917
VWidth: 0
GlyphClass: 2
Flags: HW
LayerCount: 2
Fore
SplineSet
460 1053 m 256
 650 1053 769 932 769 780 c 256
 769 685 726 589 636 543 c 257
 752 485 811 380 811 272 c 256
 811 111 695 -9 460 -9 c 256
 225 -9 107 112 107 274 c 256
 107 382 164 488 280 544 c 257
 190 590 148 685 148 779 c 256
 148 931 270 1053 460 1053 c 256
460 914 m 256
 364 914 302 852 302 754 c 256
 302 654 363 593 459 593 c 256
 555 593 616 654 616 754 c 256
 616 852 556 914 460 914 c 256
456 480 m 256
 344 480 267 406 267 298 c 256
 267 196 337 137 459 137 c 256
 580 137 650 194 650 296 c 256
 650 403 570 480 456 480 c 256
EndSplineSet
EndChar

StartChar: eight.onum
Encoding: 1114153 -1 235
GlifName: eight.onum
Width: 1145
VWidth: 0
GlyphClass: 2
Flags: HW
LayerCount: 2
Fore
SplineSet
574 1407 m 256
 825 1407 982 1222 982 1046 c 256
 982 915 916 794 800 728 c 257
 954 645 1038 498 1038 364 c 256
 1038 180 861 -12 574 -12 c 256
 286 -12 107 184 107 368 c 256
 107 503 192 649 344 729 c 257
 228 795 162 914 162 1044 c 256
 162 1220 322 1407 574 1407 c 256
574 1260 m 256
 434 1260 344 1146 344 1028 c 256
 344 883 434 791 573 791 c 256
 712 791 800 883 800 1028 c 256
 800 1146 713 1260 574 1260 c 256
569 650 m 256
 407 650 295 530 295 384 c 256
 295 254 399 142 573 142 c 256
 746 142 850 254 850 382 c 256
 850 528 733 650 569 650 c 256
EndSplineSet
EndChar

StartChar: emdash
Encoding: 8212 8212 239
GlifName: emdash
Width: 2048
VWidth: 0
GlyphClass: 2
Flags: HW
LayerCount: 2
Fore
SplineSet
1963 661 m 257
 1963 520 l 257
 85 520 l 257
 85 661 l 257
 1963 661 l 257
EndSplineSet
EndChar

StartChar: eng
Encoding: 331 331 241
GlifName: eng
Width: 1162
VWidth: 0
GlyphClass: 2
Flags: HW
LayerCount: 2
Fore
SplineSet
838 15 m 257
 1022 15 l 257
 1022 -218 l 258
 1022 -410 886 -487 720 -487 c 256
 638 -487 564 -466 510 -434 c 257
 548 -314 l 257
 578 -332 624 -344 676 -344 c 256
 778 -344 838 -298 838 -198 c 258
 838 15 l 257
EndSplineSet
Refer: 312 110 N 1 0 0 1 0 0 2
EndChar

StartChar: eth
Encoding: 240 240 245
GlifName: eth
Width: 1124
VWidth: 0
GlyphClass: 2
Flags: HW
LayerCount: 2
Fore
SplineSet
561 906 m 256
 358 906 266 756 266 522 c 256
 266 288 357 138 561 138 c 256
 765 138 859 288 859 522 c 256
 859 756 764 906 561 906 c 256
546 1053 m 256
 670 1053 780 1014 858 902 c 257
 797 1052 672 1216 571 1300 c 257
 400 1158 l 257
 336 1233 l 257
 495 1362 l 257
 441 1402 364 1437 304 1458 c 257
 345 1580 l 257
 419 1558 518 1509 600 1447 c 257
 753 1570 l 257
 814 1494 l 257
 672 1382 l 257
 916 1153 1043 849 1043 558 c 256
 1043 196 879 -11 563 -11 c 256
 247 -11 82 204 82 522 c 256
 82 862 271 1053 546 1053 c 256
EndSplineSet
EndChar

StartChar: exclam
Encoding: 33 33 246
GlifName: exclam
Width: 647
VWidth: 0
GlyphClass: 2
Flags: HW
LayerCount: 2
Fore
SplineSet
401 430 m 257
 246 430 l 257
 231 1396 l 257
 416 1396 l 257
 401 430 l 257
EndSplineSet
Refer: 357 46 N 1 0 0 1 27 0 2
Substitution2: "'tnum' Tabular Numbers lookup 22 subtable" exclam.tnum
EndChar

StartChar: f
Encoding: 102 102 249
GlifName: f
Width: 742
VWidth: 0
GlyphClass: 2
Flags: HW
LayerCount: 2
Fore
SplineSet
750 1414 m 257
 711 1294 l 257
 681 1312 636 1324 584 1324 c 256
 482 1324 421 1278 421 1178 c 258
 421 0 l 257
 237 0 l 257
 237 1198 l 258
 237 1390 372 1467 538 1467 c 256
 620 1467 696 1446 750 1414 c 257
EndSplineSet
Refer: 1669 57354 N 1 0 0 1 -37 392 2
Substitution2: "'smcp' Lowercase to Small Capitals in Latin lookup 0 subtable" uniA730
EndChar

StartChar: figuredash
Encoding: 8210 8210 250
GlifName: figuredash
Width: 1432
VWidth: 0
GlyphClass: 2
Flags: HW
LayerCount: 2
Fore
SplineSet
1320 661 m 257
 1320 520 l 257
 114 520 l 257
 114 661 l 257
 1320 661 l 257
EndSplineSet
EndChar

StartChar: filledbox
Encoding: 9632 9632 251
GlifName: filledbox
Width: 1062
VWidth: 0
GlyphClass: 2
Flags: HW
LayerCount: 2
Fore
SplineSet
190 685 m 257
 874 685 l 257
 874 0 l 257
 190 0 l 257
 190 685 l 257
EndSplineSet
EndChar

StartChar: five
Encoding: 53 53 252
GlifName: five
Width: 1116
VWidth: 0
GlyphClass: 2
Flags: HW
LayerCount: 2
Fore
SplineSet
111 399 m 257
 293 399 l 257
 293 233 385 143 557 143 c 256
 725 143 825 240 825 454 c 256
 825 668 738 798 548 798 c 256
 436 798 346 752 246 654 c 257
 126 722 l 257
 184 1396 l 257
 1000 1396 l 257
 1000 1248 l 257
 340 1248 l 257
 306 854 l 257
 386 908 478 946 584 946 c 256
 858 946 1006 758 1006 464 c 256
 1006 156 829 -11 547 -11 c 256
 278 -11 111 141 111 399 c 257
EndSplineSet
Substitution2: "'sups' Superscript lookup 0 subtable" uni2075
Substitution2: "'subs' Subscript lookup 0 subtable" uni2085
Substitution2: "'sinf' Scientific Inferiors lookup 20 subtable" uni2085
Substitution2: "'tnum' Tabular Numbers lookup 22 subtable" five.tnum
Substitution2: "'onum' Oldstyle Figures lookup 23 subtable" five.onum
Substitution2: "'smcp' Lowercase to Small Capitals in Latin lookup 0 subtable" five.SC
EndChar

StartChar: five.SC
Encoding: 1114157 -1 253
GlifName: five.S_C_
Width: 895
VWidth: 0
GlyphClass: 2
Flags: HW
LayerCount: 2
Fore
SplineSet
110 306 m 257
 266 304 l 257
 266 200 331 138 443 138 c 256
 554 138 624 206 624 348 c 256
 624 486 566 564 438 564 c 256
 362 564 303 533 238 471 c 257
 122 528 l 257
 166 1044 l 257
 782 1044 l 257
 782 900 l 257
 300 900 l 257
 278 632 l 257
 334 670 396 696 472 696 c 256
 680 696 787 562 787 344 c 256
 787 114 657 -9 446 -9 c 256
 240 -9 110 109 110 306 c 257
EndSplineSet
EndChar

StartChar: five.onum
Encoding: 1114158 -1 254
GlifName: five.onum
Width: 1116
VWidth: 0
GlyphClass: 2
Flags: HW
LayerCount: 2
Fore
SplineSet
186 -107 m 257
 264 -149 370 -180 480 -180 c 256
 698 -180 824 -92 824 105 c 256
 824 293 705 383 520 383 c 256
 414 383 305 351 230 311 c 257
 142 372 l 257
 192 1044 l 257
 988 1044 l 257
 988 896 l 257
 342 896 l 257
 311 489 l 257
 369 513 450 532 526 532 c 256
 814 532 989 375 989 98 c 256
 989 -198 790 -353 482 -353 c 256
 346 -353 231 -317 117 -255 c 257
 186 -107 l 257
EndSplineSet
EndChar

StartChar: four
Encoding: 52 52 257
GlifName: four
Width: 1205
VWidth: 0
GlyphClass: 2
Flags: HW
LayerCount: 2
Fore
SplineSet
731 472 m 257
 731 1154 l 257
 254 472 l 257
 731 472 l 257
731 320 m 257
 93 320 l 257
 93 470 l 257
 740 1396 l 257
 913 1396 l 257
 913 472 l 257
 1143 472 l 257
 1143 320 l 257
 913 320 l 257
 913 0 l 257
 731 0 l 257
 731 320 l 257
EndSplineSet
Substitution2: "'sups' Superscript lookup 0 subtable" uni2074
Substitution2: "'subs' Subscript lookup 0 subtable" uni2084
Substitution2: "'sinf' Scientific Inferiors lookup 20 subtable" uni2084
Substitution2: "'tnum' Tabular Numbers lookup 22 subtable" four.tnum
Substitution2: "'onum' Oldstyle Figures lookup 23 subtable" four.onum
Substitution2: "'smcp' Lowercase to Small Capitals in Latin lookup 0 subtable" four.SC
EndChar

StartChar: four.SC
Encoding: 1114160 -1 258
GlifName: four.S_C_
Width: 1002
VWidth: 0
GlyphClass: 2
Flags: HW
LayerCount: 2
Fore
SplineSet
580 350 m 257
 580 858 l 257
 226 350 l 257
 580 350 l 257
580 208 m 257
 92 208 l 257
 92 384 l 257
 562 1044 l 257
 762 1044 l 257
 762 350 l 257
 940 350 l 257
 940 208 l 257
 762 208 l 257
 762 0 l 257
 580 0 l 257
 580 208 l 257
EndSplineSet
EndChar

StartChar: four.onum
Encoding: 1114161 -1 259
GlifName: four.onum
Width: 1205
VWidth: 0
GlyphClass: 2
Flags: HW
LayerCount: 2
Fore
SplineSet
731 147 m 257
 731 806 l 257
 250 147 l 257
 731 147 l 257
731 0 m 257
 93 0 l 257
 93 146 l 257
 740 1044 l 257
 915 1044 l 257
 915 147 l 257
 1143 147 l 257
 1143 0 l 257
 915 0 l 257
 915 -330 l 257
 731 -330 l 257
 731 0 l 257
EndSplineSet
EndChar

StartChar: g
Encoding: 103 103 261
GlifName: g
Width: 1123
VWidth: 0
GlyphClass: 2
Flags: HW
LayerCount: 2
Fore
SplineSet
540 -481 m 256
 278 -481 111 -354 118 -142 c 257
 279 -142 l 257
 279 -268 382 -336 532 -336 c 256
 683 -336 787 -268 787 -142 c 258
 787 1044 l 257
 971 1044 l 257
 971 -142 l 258
 971 -348 804 -481 540 -481 c 256
EndSplineSet
Refer: 1674 57359 N -1 0 0 -1 1120 1044 2
Substitution2: "'smcp' Lowercase to Small Capitals in Latin lookup 0 subtable" uni0262
EndChar

StartChar: g.alt
Encoding: 1114163 -1 262
GlifName: g.alt
Width: 1164
VWidth: 0
GlyphClass: 2
Flags: HW
LayerCount: 2
Fore
SplineSet
804 955 m 257
 866 1045 957 1112 1092 1112 c 257
 1092 982 l 257
 992 982 940 946 880 876 c 257
 804 955 l 257
571 1054 m 256
 839 1054 978 899 978 679 c 256
 978 459 838 302 571 302 c 256
 304 302 164 459 164 679 c 256
 164 899 303 1054 571 1054 c 256
1080 -144 m 256
 1080 -372 864 -488 570 -488 c 256
 260 -488 96 -393 96 -214 c 256
 96 -90 196 15 335 53 c 257
 436 -20 l 257
 323 -46 252 -116 252 -200 c 256
 252 -319 372 -358 570 -358 c 256
 770 -358 906 -286 906 -172 c 256
 906 -72 822 -42 590 -42 c 256
 285 -42 160 14 160 200 c 256
 160 296 219 388 306 436 c 257
 384 362 l 257
 332 326 299 272 299 226 c 256
 299 116 402 104 658 104 c 256
 980 104 1080 36 1080 -144 c 256
571 920 m 256
 427 920 348 835 348 679 c 256
 348 523 427 437 571 437 c 256
 715 437 795 523 795 679 c 256
 795 835 715 920 571 920 c 256
EndSplineSet
EndChar

StartChar: germandbls
Encoding: 223 223 267
GlifName: germandbls
Width: 1208
VWidth: 0
GlyphClass: 2
Flags: HW
LayerCount: 2
Fore
SplineSet
500 0 m 257
 518 154 l 257
 566 148 619 145 665 145 c 256
 832 145 928 202 928 286 c 256
 928 369 867 422 798 468 c 256
 714 524 615 602 615 730 c 256
 615 823 660 890 708 948 c 256
 759 1008 788 1077 788 1168 c 256
 788 1282 722 1382 566 1382 c 256
 405 1382 339 1278 339 1126 c 258
 339 0 l 257
 169 0 l 257
 169 1126 l 258
 169 1333 285 1531 566 1531 c 256
 839 1531 962 1336 962 1154 c 256
 962 1022 923 939 856 867 c 256
 810 817 782 784 782 734 c 256
 782 664 840 621 912 575 c 256
 996 521 1102 427 1102 273 c 256
 1102 67 911 -11 668 -11 c 256
 614 -11 558 -7 500 0 c 257
EndSplineSet
EndChar

StartChar: grave
Encoding: 96 96 268
GlifName: grave
Width: 547
VWidth: 0
GlyphClass: 2
Flags: HW
LayerCount: 2
Fore
SplineSet
434 1132 m 257
 304 1132 l 257
 112 1467 l 257
 264 1467 l 257
 434 1132 l 257
EndSplineSet
EndChar

StartChar: greater
Encoding: 62 62 269
GlifName: greater
Width: 741
VWidth: 0
GlyphClass: 2
Flags: HW
LayerCount: 2
Fore
SplineSet
159 200 m 257
 78 282 l 257
 506 672 l 257
 78 1061 l 257
 159 1144 l 257
 664 672 l 257
 159 200 l 257
EndSplineSet
EndChar

StartChar: guillemotleft.alt
Encoding: 1114164 -1 271
GlifName: guillemotleft.alt
Width: 890
VWidth: 0
GlyphClass: 2
Flags: HW
LayerCount: 2
Fore
SplineSet
428 675 m 256
 428 844 559 1004 736 1134 c 257
 812 1038 l 257
 682 942 558 817 558 675 c 256
 558 533 682 407 812 311 c 257
 736 216 l 257
 559 346 428 506 428 675 c 256
78 675 m 256
 78 857 159 1012 332 1194 c 257
 431 1110 l 257
 301 968 216 835 216 675 c 256
 216 515 301 381 431 239 c 257
 332 156 l 257
 159 338 78 493 78 675 c 256
EndSplineSet
EndChar

StartChar: guillemotright.alt
Encoding: 1114165 -1 273
GlifName: guillemotright.alt
Width: 890
VWidth: 0
GlyphClass: 2
Flags: HW
LayerCount: 2
Fore
SplineSet
462 675 m 256
 462 506 332 346 155 216 c 257
 78 311 l 257
 208 407 332 533 332 675 c 256
 332 817 208 942 78 1038 c 257
 155 1134 l 257
 332 1004 462 844 462 675 c 256
812 675 m 256
 812 493 731 338 558 156 c 257
 460 239 l 257
 590 381 674 515 674 675 c 256
 674 835 590 968 460 1110 c 257
 558 1194 l 257
 731 1012 812 857 812 675 c 256
EndSplineSet
EndChar

StartChar: h
Encoding: 104 104 274
GlifName: h
Width: 1162
VWidth: 0
GlyphClass: 2
Flags: HW
LayerCount: 2
Fore
SplineSet
331 0 m 257
 148 0 l 257
 148 1456 l 257
 331 1456 l 257
 331 0 l 257
EndSplineSet
Refer: 1672 57357 N 1 0 0 1 18 0 2
Substitution2: "'smcp' Lowercase to Small Capitals in Latin lookup 0 subtable" uni029C
EndChar

StartChar: hyphen
Encoding: 45 45 279
GlifName: hyphen
Width: 1097
VWidth: 0
GlyphClass: 2
Flags: HW
LayerCount: 2
Fore
SplineSet
982 661 m 257
 982 520 l 257
 116 520 l 257
 116 661 l 257
 982 661 l 257
EndSplineSet
Substitution2: "'tnum' Tabular Numbers lookup 22 subtable" hyphen.tnum
EndChar

StartChar: k
Encoding: 107 107 293
GlifName: k
Width: 1088
VWidth: 0
GlyphClass: 2
Flags: HW
LayerCount: 2
Fore
SplineSet
791 1044 m 257
 1024 1044 l 257
 614 551 l 257
 1066 0 l 257
 834 0 l 257
 456 476 l 257
 336 476 l 257
 336 0 l 257
 154 0 l 257
 154 1456 l 257
 336 1456 l 257
 336 606 l 257
 456 606 l 257
 791 1044 l 257
EndSplineSet
Substitution2: "'smcp' Lowercase to Small Capitals in Latin lookup 0 subtable" uni1D0B
EndChar

StartChar: k.alt
Encoding: 1114167 -1 294
GlifName: k.alt
Width: 1088
VWidth: 0
GlyphClass: 2
Flags: HW
LayerCount: 2
Fore
SplineSet
791 1044 m 257
 1024 1044 l 257
 611 599 l 257
 1066 0 l 257
 834 0 l 257
 500 478 l 257
 336 317 l 257
 336 0 l 257
 154 0 l 257
 154 1456 l 257
 336 1456 l 257
 336 552 l 257
 791 1044 l 257
EndSplineSet
Substitution2: "'smcp' Lowercase to Small Capitals in Latin lookup 0 subtable" uni1D0B
EndChar

StartChar: kgreenlandic
Encoding: 312 312 295
GlifName: kgreenlandic
Width: 1018
VWidth: 0
GlyphClass: 2
Flags: HW
LayerCount: 2
Fore
SplineSet
147 1044 m 257
 330 1044 l 257
 330 536 l 257
 766 1044 l 257
 972 1044 l 257
 544 522 l 257
 985 0 l 257
 765 0 l 257
 434 391 l 257
 330 270 l 257
 330 0 l 257
 147 0 l 257
 147 1044 l 257
EndSplineSet
EndChar

StartChar: l
Encoding: 108 108 296
GlifName: l
Width: 500
VWidth: 0
GlyphClass: 2
Flags: HW
LayerCount: 2
Fore
SplineSet
342 0 m 257
 158 0 l 257
 158 1456 l 257
 342 1456 l 257
 342 0 l 257
EndSplineSet
Substitution2: "'smcp' Lowercase to Small Capitals in Latin lookup 0 subtable" uni029F
EndChar

StartChar: less
Encoding: 60 60 300
GlifName: less
Width: 741
VWidth: 0
GlyphClass: 2
Flags: HW
LayerCount: 2
Fore
SplineSet
582 1143 m 257
 664 1061 l 257
 236 672 l 257
 664 282 l 257
 582 200 l 257
 78 672 l 257
 582 1143 l 257
EndSplineSet
EndChar

StartChar: logicalnot
Encoding: 172 172 301
GlifName: logicalnot
Width: 1159
VWidth: 0
GlyphClass: 2
Flags: HW
LayerCount: 2
Fore
SplineSet
100 520 m 257
 100 660 l 257
 984 660 l 257
 984 266 l 257
 842 266 l 257
 842 520 l 257
 100 520 l 257
EndSplineSet
EndChar

StartChar: longs
Encoding: 383 383 302
GlifName: longs
Width: 742
VWidth: 0
GlyphClass: 2
Flags: HW
LayerCount: 2
Fore
SplineSet
750 1414 m 257
 711 1294 l 257
 681 1312 636 1324 584 1324 c 256
 482 1324 421 1278 421 1178 c 258
 421 0 l 257
 237 0 l 257
 237 1198 l 258
 237 1390 372 1467 538 1467 c 256
 620 1467 696 1446 750 1414 c 257
EndSplineSet
Refer: 1681 57366 N 1 0 0 1 -20 0 2
EndChar

StartChar: m
Encoding: 109 109 304
GlifName: m
Width: 1747
VWidth: 0
GlyphClass: 2
Flags: HW
LayerCount: 2
Fore
SplineSet
139 1044 m 257
 314 1044 l 257
 322 757 l 257
 322 0 l 257
 139 0 l 257
 139 1044 l 257
EndSplineSet
Refer: 1671 57356 N 1 0 0 1 -614 1 2
Refer: 1671 57356 N 1 0 0 1 37 1 2
Substitution2: "'smcp' Lowercase to Small Capitals in Latin lookup 0 subtable" uni1D0D
EndChar

StartChar: macron
Encoding: 175 175 305
GlifName: macron
Width: 973
VWidth: 0
GlyphClass: 2
Flags: HW
LayerCount: 2
Fore
SplineSet
857 1255 m 257
 857 1132 l 257
 116 1132 l 257
 116 1255 l 257
 857 1255 l 257
EndSplineSet
EndChar

StartChar: macron.alt
Encoding: 1114168 -1 306
GlifName: macron.alt
Width: 779
VWidth: 0
GlyphClass: 2
Flags: HW
LayerCount: 2
Fore
SplineSet
663 1255 m 257
 663 1132 l 257
 116 1132 l 257
 116 1255 l 257
 663 1255 l 257
EndSplineSet
EndChar

StartChar: minute
Encoding: 8242 8242 308
GlifName: minute
Width: 456
VWidth: 0
GlyphClass: 2
Flags: HW
LayerCount: 2
Fore
SplineSet
218 1396 m 257
 346 1396 l 257
 211 945 l 257
 111 945 l 257
 218 1396 l 257
EndSplineSet
EndChar

StartChar: mu
Encoding: 181 181 309
GlifName: mu
Width: 1162
VWidth: 0
GlyphClass: 2
Flags: HW
LayerCount: 2
Fore
SplineSet
140 1044 m 257
 324 1044 l 257
 324 -432 l 257
 140 -432 l 257
 140 1044 l 257
EndSplineSet
Refer: 422 117 N 1 0 0 1 0 0 2
EndChar

StartChar: multiply
Encoding: 215 215 310
GlifName: multiply
Width: 1004
VWidth: 0
GlyphClass: 2
Flags: HW
LayerCount: 2
Fore
SplineSet
776 970 m 257
 876 870 l 257
 603 599 l 257
 876 326 l 257
 776 226 l 257
 504 498 l 257
 231 225 l 257
 130 326 l 257
 404 599 l 257
 130 872 l 257
 230 972 l 257
 504 698 l 257
 776 970 l 257
EndSplineSet
Substitution2: "'tnum' Tabular Numbers lookup 22 subtable" multiply.tnum
EndChar

StartChar: n
Encoding: 110 110 312
GlifName: n
Width: 1162
VWidth: 0
GlyphClass: 2
Flags: HW
LayerCount: 2
Fore
SplineSet
331 0 m 257
 148 0 l 257
 148 1044 l 257
 323 1044 l 257
 331 757 l 257
 331 0 l 257
EndSplineSet
Refer: 1672 57357 N 1 0 0 1 18 0 2
Substitution2: "'smcp' Lowercase to Small Capitals in Latin lookup 0 subtable" uni0274
EndChar

StartChar: nine
Encoding: 57 57 316
GlifName: nine
Width: 1133
VWidth: 0
GlyphClass: 2
Flags: HW
LayerCount: 2
Fore
SplineSet
545 648 m 256
 671 648 784 722 840 844 c 257
 834 1112 750 1250 552 1250 c 256
 386 1250 292 1142 292 946 c 256
 292 764 382 648 545 648 c 256
526 -11 m 256
 291 -11 131 142 131 350 c 257
 286 350 l 257
 286 246 359 143 532 143 c 256
 775 143 852 391 846 679 c 257
 776 555 662 486 512 486 c 256
 265 486 110 670 110 930 c 256
 110 1223 268 1407 547 1407 c 256
 868 1407 1017 1198 1017 756 c 256
 1017 268 864 -11 526 -11 c 256
EndSplineSet
Substitution2: "'sups' Superscript lookup 0 subtable" uni2079
Substitution2: "'subs' Subscript lookup 0 subtable" uni2089
Substitution2: "'sinf' Scientific Inferiors lookup 20 subtable" uni2089
Substitution2: "'tnum' Tabular Numbers lookup 22 subtable" nine.tnum
Substitution2: "'onum' Oldstyle Figures lookup 23 subtable" nine.onum
Substitution2: "'smcp' Lowercase to Small Capitals in Latin lookup 0 subtable" nine.SC
EndChar

StartChar: nine.SC
Encoding: 1114170 -1 317
GlifName: nine.S_C_
Width: 930
VWidth: 0
GlyphClass: 2
Flags: HW
LayerCount: 2
Fore
SplineSet
452 500 m 256
 541 500 621 554 656 638 c 257
 654 824 568 908 456 908 c 257
 335 908 274 828 274 702 c 256
 274 580 338 500 452 500 c 256
444 -12 m 256
 254 -12 140 115 140 272 c 257
 281 273 l 257
 281 209 330 134 444 134 c 256
 604 134 660 305 660 496 c 257
 610 420 518 376 418 376 c 256
 230 376 117 506 117 712 c 256
 117 934 248 1053 450 1053 c 256
 710 1053 814 860 814 562 c 256
 814 207 702 -12 444 -12 c 256
EndSplineSet
EndChar

StartChar: nine.onum
Encoding: 1114171 -1 318
GlifName: nine.onum
Width: 1133
VWidth: 0
GlyphClass: 2
Flags: HW
LayerCount: 2
Fore
SplineSet
561 896 m 256
 403 896 296 787 296 612 c 256
 296 450 408 352 548 352 c 256
 714 352 854 483 912 635 c 257
 937 484 l 257
 866 328 714 202 518 202 c 256
 290 202 116 360 116 608 c 256
 116 878 292 1054 564 1054 c 256
 858 1054 1024 849 1024 484 c 256
 1024 64 804 -196 368 -340 c 257
 306 -194 l 257
 682 -72 852 120 852 502 c 256
 852 749 756 896 561 896 c 256
EndSplineSet
EndChar

StartChar: numbersign
Encoding: 35 35 322
GlifName: numbersign
Width: 1746
VWidth: 0
GlyphClass: 2
Flags: HW
LayerCount: 2
Fore
SplineSet
1113 895 m 257
 746 895 l 257
 642 514 l 257
 1008 514 l 257
 1113 895 l 257
498 -10 m 257
 335 -10 l 257
 444 382 l 257
 165 382 l 257
 165 514 l 257
 480 514 l 257
 584 895 l 257
 274 895 l 257
 274 1026 l 257
 621 1026 l 257
 724 1398 l 257
 886 1398 l 257
 784 1026 l 257
 1149 1026 l 257
 1253 1398 l 257
 1414 1398 l 257
 1311 1026 l 257
 1582 1026 l 257
 1582 895 l 257
 1274 895 l 257
 1170 514 l 257
 1474 514 l 257
 1474 382 l 257
 1134 382 l 257
 1026 -10 l 257
 862 -10 l 257
 971 382 l 257
 606 382 l 257
 498 -10 l 257
EndSplineSet
Substitution2: "'tnum' Tabular Numbers lookup 22 subtable" numbersign.tnum
EndChar

StartChar: o
Encoding: 111 111 324
GlifName: o
Width: 1125
VWidth: 0
GlyphClass: 2
Flags: HW
LayerCount: 2
Fore
SplineSet
563 906 m 256
 387 906 266 789 266 522 c 256
 266 255 385 138 563 138 c 256
 741 138 860 255 860 522 c 256
 860 789 739 906 563 906 c 256
563 1054 m 256
 866 1054 1044 861 1044 522 c 256
 1044 182 865 -11 563 -11 c 256
 261 -11 82 182 82 522 c 256
 82 861 260 1054 563 1054 c 256
EndSplineSet
Substitution2: "'smcp' Lowercase to Small Capitals in Latin lookup 0 subtable" uni1D0F
EndChar

StartChar: ogonek
Encoding: 731 731 330
GlifName: ogonek
Width: 701
VWidth: 0
GlyphClass: 2
Flags: HW
LayerCount: 2
Fore
SplineSet
348 -500 m 256
 207 -500 116 -415 116 -286 c 256
 116 -236 130 -186 156 -141 c 258
 237 0 l 257
 237 2 l 257
 358 2 l 257
 358 0 l 257
 251 -194 l 257
 234 -222 224 -256 224 -288 c 256
 224 -356 270 -396 348 -396 c 256
 430 -396 476 -354 476 -281 c 257
 585 -280 l 257
 585 -413 491 -500 348 -500 c 256
EndSplineSet
EndChar

StartChar: one
Encoding: 49 49 335
GlifName: one
Width: 763
VWidth: 0
GlyphClass: 2
Flags: HW
LayerCount: 2
Fore
SplineSet
413 1086 m 257
 359 1010 245 977 50 977 c 257
 50 1124 l 257
 316 1124 413 1168 413 1396 c 257
 595 1396 l 257
 595 0 l 257
 413 0 l 257
 413 1086 l 257
EndSplineSet
Substitution2: "'sups' Superscript lookup 0 subtable" uni00B9
Substitution2: "'subs' Subscript lookup 0 subtable" uni2081
Substitution2: "'sinf' Scientific Inferiors lookup 20 subtable" uni2081
Substitution2: "'tnum' Tabular Numbers lookup 22 subtable" one.tnum
Substitution2: "'onum' Oldstyle Figures lookup 23 subtable" one.onum
Substitution2: "'smcp' Lowercase to Small Capitals in Latin lookup 0 subtable" one.SC
EndChar

StartChar: one.SC
Encoding: 1114174 -1 336
GlifName: one.S_C_
Width: 670
VWidth: 0
GlyphClass: 2
Flags: HW
LayerCount: 2
Fore
SplineSet
372 713 m 257
 326 657 234 621 39 621 c 257
 39 768 l 257
 305 768 372 816 372 1044 c 257
 539 1044 l 257
 539 0 l 257
 372 0 l 257
 372 713 l 257
EndSplineSet
EndChar

StartChar: one.onum
Encoding: 1114175 -1 337
GlifName: one.onum
Width: 763
VWidth: 0
GlyphClass: 2
Flags: HW
LayerCount: 2
Fore
SplineSet
413 734 m 257
 359 658 245 625 50 625 c 257
 50 772 l 257
 316 772 413 816 413 1044 c 257
 595 1044 l 257
 595 0 l 257
 413 0 l 257
 413 734 l 257
EndSplineSet
EndChar

StartChar: ordfeminine
Encoding: 170 170 343
GlifName: ordfeminine
Width: 854
VWidth: 0
GlyphClass: 2
Flags: HW
LayerCount: 2
Fore
SplineSet
544 1509 m 257
 544 1591 l 258
 544 1667 484 1703 396 1703 c 256
 306 1703 251 1671 251 1590 c 257
 140 1590 l 257
 136 1732 238 1804 400 1804 c 256
 560 1804 668 1727 668 1591 c 258
 668 1294 l 258
 668 1238 686 1216 746 1216 c 257
 746 1131 l 257
 650 1123 580 1150 555 1226 c 257
 510 1170 434 1122 322 1122 c 256
 202 1122 124 1189 124 1307 c 256
 124 1451 244 1523 392 1523 c 256
 446 1523 498 1519 544 1509 c 257
544 1424 m 257
 504 1434 461 1437 407 1437 c 256
 300 1437 237 1391 237 1318 c 256
 237 1248 279 1218 357 1218 c 256
 453 1218 516 1275 544 1312 c 257
 544 1424 l 257
EndSplineSet
EndChar

StartChar: p
Encoding: 112 112 349
GlifName: p
Width: 1119
VWidth: 0
GlyphClass: 2
Flags: HW
LayerCount: 2
Fore
SplineSet
154 1044 m 257
 337 1044 l 257
 337 -459 l 257
 154 -459 l 257
 154 1044 l 257
EndSplineSet
Refer: 1674 57359 N 1 0 0 1 4 0 2
Substitution2: "'smcp' Lowercase to Small Capitals in Latin lookup 0 subtable" uni1D18
EndChar

StartChar: paragraph
Encoding: 182 182 350
GlifName: paragraph
Width: 1382
VWidth: 0
GlyphClass: 2
Flags: HW
LayerCount: 2
Fore
SplineSet
1206 -471 m 257
 1064 -471 l 257
 1064 1238 l 257
 894 1238 l 257
 894 -471 l 257
 752 -471 l 257
 752 368 l 257
 578 368 l 258
 296 368 104 584 104 882 c 256
 104 1180 296 1396 578 1396 c 258
 1206 1396 l 257
 1206 -471 l 257
EndSplineSet
EndChar

StartChar: parenleft
Encoding: 40 40 351
GlifName: parenleft
Width: 671
VWidth: 0
GlyphClass: 2
Flags: HW
LayerCount: 2
Fore
SplineSet
451 1513 m 257
 575 1442 l 257
 402 1186 314 859 314 474 c 256
 314 90 401 -235 575 -492 c 257
 451 -563 l 257
 245 -255 142 72 142 474 c 256
 142 876 245 1205 451 1513 c 257
EndSplineSet
Substitution2: "'tnum' Tabular Numbers lookup 22 subtable" parenleft.tnum
EndChar

StartChar: parenright
Encoding: 41 41 353
GlifName: parenright
Width: 671
VWidth: 0
GlyphClass: 2
Flags: HW
LayerCount: 2
Fore
SplineSet
220 -563 m 257
 96 -493 l 257
 269 -237 358 91 358 476 c 256
 358 860 270 1185 96 1442 c 257
 220 1513 l 257
 426 1205 528 878 528 476 c 256
 528 74 426 -255 220 -563 c 257
EndSplineSet
Substitution2: "'tnum' Tabular Numbers lookup 22 subtable" parenright.tnum
EndChar

StartChar: period
Encoding: 46 46 357
GlifName: period
Width: 593
VWidth: 0
GlyphClass: 2
Flags: HW
LayerCount: 2
Fore
SplineSet
170 115 m 256
 170 185 224 238 296 238 c 256
 368 238 423 185 423 115 c 256
 423 45 368 -11 296 -11 c 256
 224 -11 170 45 170 115 c 256
EndSplineSet
Substitution2: "'tnum' Tabular Numbers lookup 22 subtable" period.tnum
EndChar

StartChar: periodcentered
Encoding: 183 183 359
GlifName: periodcentered
Width: 530
VWidth: 0
GlyphClass: 2
Flags: HW
LayerCount: 2
Fore
SplineSet
140 700 m 256
 140 770 194 822 266 822 c 256
 338 822 392 770 392 700 c 256
 392 630 338 574 266 574 c 256
 194 574 140 630 140 700 c 256
EndSplineSet
EndChar

StartChar: plus
Encoding: 43 43 361
GlifName: plus
Width: 1078
VWidth: 0
GlyphClass: 2
Flags: HW
LayerCount: 2
Fore
SplineSet
962 644 m 257
 962 501 l 257
 616 501 l 257
 616 148 l 257
 463 148 l 257
 463 501 l 257
 116 501 l 257
 116 644 l 257
 463 644 l 257
 463 996 l 257
 616 996 l 257
 616 644 l 257
 962 644 l 257
EndSplineSet
Substitution2: "'tnum' Tabular Numbers lookup 22 subtable" plus.tnum
EndChar

StartChar: q
Encoding: 113 113 365
GlifName: q
Width: 1119
VWidth: 0
GlyphClass: 2
Flags: HW
LayerCount: 2
Fore
SplineSet
784 1044 m 257
 968 1044 l 257
 968 -462 l 257
 784 -462 l 257
 784 1044 l 257
EndSplineSet
Refer: 1674 57359 N -1 0 0 -1 1116 1044 2
Substitution2: "'smcp' Lowercase to Small Capitals in Latin lookup 0 subtable" uniA7EE
EndChar

StartChar: question
Encoding: 63 63 366
GlifName: question
Width: 1096
VWidth: 0
GlyphClass: 2
Flags: HW
LayerCount: 2
Fore
SplineSet
506 -11 m 256
 434 -11 380 45 380 115 c 256
 380 185 434 238 506 238 c 256
 578 238 632 185 632 115 c 256
 632 45 578 -11 506 -11 c 256
326 898 m 257
 174 890 l 257
 161 936 154 987 154 1030 c 256
 154 1237 300 1384 538 1384 c 256
 800 1384 942 1202 942 1020 c 256
 942 847 853 764 759 686 c 256
 671 614 598 550 598 426 c 257
 424 426 l 257
 424 588 517 666 624 752 c 256
 718 826 768 892 768 1000 c 256
 768 1136 681 1234 534 1234 c 256
 396 1234 316 1142 316 1014 c 256
 316 976 318 932 326 898 c 257
EndSplineSet
Substitution2: "'tnum' Tabular Numbers lookup 22 subtable" question.tnum
EndChar

StartChar: quoteleft
Encoding: 8216 8216 373
GlifName: quoteleft
Width: 582
VWidth: 0
GlyphClass: 2
Flags: HW
LayerCount: 2
Fore
SplineSet
335 1544 m 257
 428 1115 l 257
 308 1059 l 257
 154 1544 l 257
 335 1544 l 257
EndSplineSet
EndChar

StartChar: quoteright
Encoding: 8217 8217 375
GlifName: quoteright
Width: 582
VWidth: 0
GlyphClass: 2
Flags: HW
LayerCount: 2
Fore
SplineSet
248 1544 m 257
 428 1544 l 257
 274 1059 l 257
 154 1115 l 257
 248 1544 l 257
EndSplineSet
EndChar

StartChar: quotesingle
Encoding: 39 39 377
GlifName: quotesingle
Width: 422
VWidth: 0
GlyphClass: 2
Flags: HW
LayerCount: 2
Fore
SplineSet
140 1418 m 257
 282 1418 l 257
 267 954 l 257
 155 954 l 257
 140 1418 l 257
EndSplineSet
EndChar

StartChar: r
Encoding: 114 114 378
GlifName: r
Width: 824
VWidth: 0
GlyphClass: 2
Flags: HW
LayerCount: 2
Fore
SplineSet
154 1044 m 257
 330 1044 l 257
 337 670 l 257
 337 0 l 257
 154 0 l 257
 154 1044 l 257
EndSplineSet
Refer: 1673 57358 N 1 0 0 1 0 0 2
Substitution2: "'smcp' Lowercase to Small Capitals in Latin lookup 0 subtable" uni0280
EndChar

StartChar: registered
Encoding: 174 174 381
GlifName: registered
Width: 1879
VWidth: 0
GlyphClass: 2
Flags: HW
LayerCount: 2
Fore
SplineSet
280 756 m 256
 280 384 556 94 940 94 c 256
 1324 94 1601 384 1601 756 c 256
 1601 1127 1324 1418 940 1418 c 256
 556 1418 280 1127 280 756 c 256
142 756 m 256
 142 1186 460 1544 940 1544 c 256
 1420 1544 1740 1186 1740 756 c 256
 1740 326 1420 -32 940 -32 c 256
 460 -32 142 326 142 756 c 256
1246 415 m 257
 1133 415 l 257
 978 606 l 257
 965 605 952 604 938 604 c 258
 798 604 l 257
 798 413 l 257
 709 413 l 257
 709 1106 l 257
 959 1106 l 258
 1119 1106 1237 1000 1237 854 c 256
 1237 748 1174 664 1076 626 c 257
 1246 415 l 257
798 690 m 257
 959 690 l 258
 1061 690 1144 754 1144 854 c 256
 1144 954 1063 1023 959 1023 c 258
 798 1023 l 257
 798 690 l 257
EndSplineSet
EndChar

StartChar: ring
Encoding: 730 730 382
GlifName: ring
Width: 749
VWidth: 0
GlyphClass: 2
Flags: HW
LayerCount: 2
Fore
SplineSet
374 1563 m 256
 270 1563 204 1486 204 1391 c 256
 204 1296 270 1220 374 1220 c 256
 478 1220 546 1296 546 1391 c 256
 546 1486 478 1563 374 1563 c 256
374 1650 m 256
 524 1650 632 1534 632 1391 c 256
 632 1248 524 1132 374 1132 c 256
 224 1132 116 1248 116 1391 c 256
 116 1534 224 1650 374 1650 c 256
EndSplineSet
EndChar

StartChar: s
Encoding: 115 115 383
GlifName: s
Width: 991
VWidth: 0
GlyphClass: 2
Flags: HW
LayerCount: 2
Fore
SplineSet
506 1054 m 256
 757 1054 903 928 895 720 c 257
 742 724 l 257
 742 840 655 908 507 908 c 256
 369 908 284 847 284 749 c 256
 284 668 344 632 522 590 c 256
 792 528 902 437 902 288 c 256
 902 108 742 -10 498 -10 c 256
 241 -10 84 120 94 325 c 257
 246 320 l 257
 246 204 341 136 503 136 c 256
 648 136 734 194 734 290 c 256
 734 370 670 408 488 450 c 256
 222 511 118 601 118 755 c 256
 118 939 267 1054 506 1054 c 256
EndSplineSet
Substitution2: "'smcp' Lowercase to Small Capitals in Latin lookup 0 subtable" uniA731
EndChar

StartChar: section
Encoding: 167 167 389
GlifName: section
Width: 967
VWidth: 0
GlyphClass: 2
Flags: HW
LayerCount: 2
Fore
SplineSet
852 246 m 256
 852 36 669 -57 467 -57 c 256
 307 -57 173 -10 96 39 c 257
 163 181 l 257
 227 141 349 94 468 94 c 256
 588 94 691 138 691 244 c 256
 691 339 606 368 474 400 c 256
 286 444 139 500 139 684 c 256
 139 802 205 883 290 927 c 257
 204 970 146 1029 146 1141 c 256
 146 1347 326 1454 510 1454 c 256
 640 1454 752 1409 830 1351 c 257
 768 1230 l 257
 702 1275 617 1309 515 1309 c 256
 411 1309 309 1259 309 1150 c 256
 309 1058 386 1030 518 998 c 256
 704 954 859 903 859 703 c 256
 859 586 796 511 708 469 c 257
 791 428 852 366 852 246 c 256
508 540 m 257
 616 545 700 600 700 698 c 256
 700 794 612 830 492 854 c 257
 394 852 304 792 304 690 c 256
 304 598 384 565 508 540 c 257
EndSplineSet
EndChar

StartChar: seven
Encoding: 55 55 391
GlifName: seven
Width: 1130
VWidth: 0
GlyphClass: 2
Flags: HW
LayerCount: 2
Fore
SplineSet
1042 1240 m 257
 769 919 559 478 559 0 c 257
 382 0 l 257
 382 461 592 942 835 1234 c 257
 96 1234 l 257
 96 1396 l 257
 1008 1396 l 257
 1042 1240 l 257
EndSplineSet
Substitution2: "'sups' Superscript lookup 0 subtable" uni2077
Substitution2: "'subs' Subscript lookup 0 subtable" uni2087
Substitution2: "'sinf' Scientific Inferiors lookup 20 subtable" uni2087
Substitution2: "'tnum' Tabular Numbers lookup 22 subtable" seven.tnum
Substitution2: "'onum' Oldstyle Figures lookup 23 subtable" seven.onum
Substitution2: "'smcp' Lowercase to Small Capitals in Latin lookup 0 subtable" seven.SC
EndChar

StartChar: seven.SC
Encoding: 1114185 -1 392
GlifName: seven.S_C_
Width: 966
VWidth: 0
GlyphClass: 2
Flags: HW
LayerCount: 2
Fore
SplineSet
114 890 m 257
 114 1044 l 257
 836 1044 l 257
 864 922 l 257
 660 683 502 356 502 0 c 257
 334 0 l 257
 334 342 479 689 643 890 c 257
 114 890 l 257
EndSplineSet
EndChar

StartChar: seven.onum
Encoding: 1114186 -1 393
GlifName: seven.onum
Width: 1130
VWidth: 0
GlyphClass: 2
Flags: HW
LayerCount: 2
Fore
SplineSet
1042 888 m 257
 769 567 559 148 559 -330 c 257
 382 -330 l 257
 382 131 592 590 835 882 c 257
 96 882 l 257
 96 1044 l 257
 1008 1044 l 257
 1042 888 l 257
EndSplineSet
EndChar

StartChar: six
Encoding: 54 54 396
GlifName: six
Width: 1133
VWidth: 0
GlyphClass: 2
Flags: HW
LayerCount: 2
Fore
SplineSet
588 748 m 256
 462 748 350 673 294 551 c 257
 300 283 384 146 582 146 c 256
 748 146 842 254 842 450 c 256
 842 632 751 748 588 748 c 256
608 1407 m 256
 843 1407 1002 1254 1002 1046 c 257
 848 1046 l 257
 848 1150 775 1253 602 1253 c 256
 359 1253 282 1005 288 717 c 257
 358 841 472 910 622 910 c 256
 869 910 1024 726 1024 466 c 256
 1024 173 866 -11 587 -11 c 256
 266 -11 117 198 117 640 c 256
 117 1128 270 1407 608 1407 c 256
EndSplineSet
Substitution2: "'sups' Superscript lookup 0 subtable" uni2076
Substitution2: "'subs' Subscript lookup 0 subtable" uni2086
Substitution2: "'sinf' Scientific Inferiors lookup 20 subtable" uni2086
Substitution2: "'tnum' Tabular Numbers lookup 22 subtable" six.tnum
Substitution2: "'onum' Oldstyle Figures lookup 23 subtable" six.onum
Substitution2: "'smcp' Lowercase to Small Capitals in Latin lookup 0 subtable" six.SC
EndChar

StartChar: six.SC
Encoding: 1114188 -1 397
GlifName: six.S_C_
Width: 930
VWidth: 0
GlyphClass: 2
Flags: HW
LayerCount: 2
Fore
SplineSet
478 542 m 256
 389 542 311 486 276 402 c 257
 278 216 362 134 474 134 c 257
 595 134 656 212 656 338 c 256
 656 460 592 542 478 542 c 256
487 1053 m 256
 677 1053 790 925 790 768 c 257
 650 768 l 257
 650 832 600 907 486 907 c 256
 326 907 272 736 272 545 c 257
 322 621 413 664 513 664 c 256
 701 664 814 536 814 330 c 256
 814 108 683 -12 481 -12 c 256
 221 -12 117 180 117 478 c 256
 117 833 229 1053 487 1053 c 256
EndSplineSet
EndChar

StartChar: six.onum
Encoding: 1114189 -1 398
GlifName: six.onum
Width: 1133
VWidth: 0
GlyphClass: 2
Flags: HW
LayerCount: 2
Fore
SplineSet
578 146 m 256
 736 146 844 255 844 430 c 256
 844 592 731 690 591 690 c 256
 425 690 286 558 228 406 c 257
 202 558 l 257
 273 714 424 840 620 840 c 256
 848 840 1024 682 1024 434 c 256
 1024 164 846 -12 574 -12 c 256
 280 -12 116 193 116 558 c 256
 116 978 335 1264 771 1408 c 257
 833 1260 l 257
 457 1138 288 922 288 540 c 256
 288 293 383 146 578 146 c 256
EndSplineSet
EndChar

StartChar: slash
Encoding: 47 47 400
GlifName: slash
Width: 1171
VWidth: 0
GlyphClass: 2
Flags: HW
LayerCount: 2
Fore
SplineSet
817 1396 m 257
 1028 1396 l 257
 356 0 l 257
 144 0 l 257
 817 1396 l 257
EndSplineSet
Substitution2: "'tnum' Tabular Numbers lookup 22 subtable" slash.tnum
Substitution2: "'smcp' Lowercase to Small Capitals in Latin lookup 0 subtable" slash.sc
EndChar

StartChar: slash.fraction
Encoding: 1114191 -1 401
GlifName: slash.fraction
Width: 1662
VWidth: 0
GlyphClass: 2
Flags: HW
LayerCount: 2
Fore
SplineSet
472 0 m 257
 275 0 l 257
 1191 1396 l 257
 1388 1396 l 257
 472 0 l 257
EndSplineSet
EndChar

StartChar: slash.sc
Encoding: 1114192 -1 402
GlifName: slash.sc
Width: 1017
VWidth: 0
GlyphClass: 2
Flags: HW
LayerCount: 2
Fore
SplineSet
661 1044 m 257
 873 1044 l 257
 358 0 l 257
 144 0 l 257
 661 1044 l 257
EndSplineSet
EndChar

StartChar: sterling
Encoding: 163 163 405
GlifName: sterling
Width: 1264
VWidth: 0
GlyphClass: 2
Flags: HW
LayerCount: 2
Fore
SplineSet
670 1248 m 256
 568 1248 494 1198 494 1055 c 258
 494 312 l 258
 494 254 479 200 439 158 c 257
 1142 158 l 257
 1142 0 l 257
 124 0 l 257
 124 156 l 257
 245 156 310 200 310 312 c 258
 310 1058 l 258
 310 1265 436 1407 670 1407 c 256
 920 1407 1031 1256 1025 1078 c 257
 844 1078 l 257
 844 1172 792 1248 670 1248 c 256
EndSplineSet
Refer: 1669 57354 N 1 0 0 1 26 12 2
EndChar

StartChar: t
Encoding: 116 116 406
GlifName: t
Width: 761
VWidth: 0
GlyphClass: 2
Flags: HW
LayerCount: 2
Fore
SplineSet
688 146 m 257
 714 20 l 257
 658 0 593 -10 531 -10 c 256
 365 -10 230 66 230 258 c 258
 230 1333 l 257
 413 1333 l 257
 413 278 l 258
 413 178 474 132 576 132 c 256
 614 132 657 138 688 146 c 257
EndSplineSet
Refer: 1669 57354 N 1 0 0 1 -32 392 2
Substitution2: "'smcp' Lowercase to Small Capitals in Latin lookup 0 subtable" uni1D1B
EndChar

StartChar: three
Encoding: 51 51 410
GlifName: three
Width: 1158
VWidth: 0
GlyphClass: 2
Flags: HW
LayerCount: 2
Fore
SplineSet
96 420 m 257
 277 420 l 257
 270 246 392 143 576 143 c 256
 761 143 866 239 866 406 c 256
 866 570 764 664 560 664 c 258
 462 664 l 257
 462 799 l 257
 560 799 l 258
 735 799 824 882 824 1018 c 256
 824 1158 728 1247 574 1247 c 256
 414 1247 322 1153 328 1013 c 257
 160 1013 l 257
 152 1259 315 1407 578 1407 c 256
 808 1407 1002 1264 1002 1022 c 256
 1002 906 939 796 812 734 c 257
 959 670 1042 544 1042 394 c 256
 1042 134 854 -11 576 -11 c 256
 278 -11 85 146 96 420 c 257
EndSplineSet
Substitution2: "'sups' Superscript lookup 0 subtable" uni00B3
Substitution2: "'subs' Subscript lookup 0 subtable" uni2083
Substitution2: "'sinf' Scientific Inferiors lookup 20 subtable" uni2083
Substitution2: "'tnum' Tabular Numbers lookup 22 subtable" three.tnum
Substitution2: "'onum' Oldstyle Figures lookup 23 subtable" three.onum
Substitution2: "'smcp' Lowercase to Small Capitals in Latin lookup 0 subtable" three.SC
EndChar

StartChar: three.SC
Encoding: 1114194 -1 411
GlifName: three.S_C_
Width: 932
VWidth: 0
GlyphClass: 2
Flags: HW
LayerCount: 2
Fore
SplineSet
96 322 m 257
 253 322 l 257
 253 208 332 143 464 143 c 256
 588 143 666 208 666 318 c 256
 666 433 584 494 440 494 c 258
 367 494 l 257
 368 598 l 257
 447 598 l 258
 571 598 643 660 643 756 c 256
 643 858 566 914 460 914 c 256
 352 914 286 857 286 763 c 257
 142 763 l 257
 134 947 258 1060 460 1060 c 256
 642 1060 786 954 786 772 c 256
 786 689 742 597 652 550 c 257
 756 502 815 409 815 298 c 256
 815 106 663 -3 457 -3 c 256
 234 -3 88 114 96 322 c 257
EndSplineSet
EndChar

StartChar: three.onum
Encoding: 1114195 -1 412
GlifName: three.onum
Width: 1103
VWidth: 0
GlyphClass: 2
Flags: HW
LayerCount: 2
Fore
SplineSet
544 317 m 258
 434 317 l 257
 434 453 l 257
 544 454 l 258
 673 455 776 571 776 684 c 256
 776 819 674 900 540 900 c 256
 404 900 308 817 310 698 c 257
 144 698 l 257
 138 906 306 1054 546 1054 c 256
 776 1054 944 916 944 702 c 256
 944 570 860 458 740 393 c 257
 911 347 987 216 987 54 c 256
 987 -182 812 -334 526 -334 c 256
 234 -334 58 -185 68 85 c 257
 248 85 l 257
 242 -93 352 -182 551 -182 c 256
 723 -182 829 -86 829 64 c 256
 829 194 749 317 544 317 c 258
EndSplineSet
EndChar

StartChar: two
Encoding: 50 50 417
GlifName: two
Width: 1090
VWidth: 0
GlyphClass: 2
Flags: HW
LayerCount: 2
Fore
SplineSet
124 981 m 257
 113 1247 301 1407 558 1407 c 256
 822 1407 1002 1249 1002 995 c 256
 1002 761 849 643 646 518 c 256
 476 413 306 286 298 158 c 257
 1014 158 l 257
 1014 0 l 257
 103 0 l 257
 99 28 97 53 97 77 c 256
 97 345 357 508 543 624 c 256
 729 740 842 826 842 980 c 256
 842 1146 728 1254 559 1254 c 256
 401 1254 278 1165 282 981 c 257
 124 981 l 257
EndSplineSet
Substitution2: "'sups' Superscript lookup 0 subtable" uni00B2
Substitution2: "'subs' Subscript lookup 0 subtable" uni2082
Substitution2: "'sinf' Scientific Inferiors lookup 20 subtable" uni2082
Substitution2: "'tnum' Tabular Numbers lookup 22 subtable" two.tnum
Substitution2: "'onum' Oldstyle Figures lookup 23 subtable" two.onum
Substitution2: "'smcp' Lowercase to Small Capitals in Latin lookup 0 subtable" two.SC
EndChar

StartChar: two.SC
Encoding: 1114197 -1 418
GlifName: two.S_C_
Width: 905
VWidth: 0
GlyphClass: 2
Flags: HW
LayerCount: 2
Fore
SplineSet
109 712 m 257
 98 914 240 1053 456 1053 c 256
 668 1053 802 923 802 718 c 256
 802 562 723 491 544 384 c 256
 464 336 329 254 310 156 c 257
 812 156 l 257
 812 0 l 257
 97 0 l 257
 69 236 247 371 422 465 c 256
 594 561 648 620 648 712 c 256
 648 826 569 899 449 899 c 256
 331 899 254 828 258 716 c 257
 109 712 l 257
EndSplineSet
EndChar

StartChar: two.onum
Encoding: 1114198 -1 419
GlifName: two.onum
Width: 1017
VWidth: 0
GlyphClass: 2
Flags: HW
LayerCount: 2
Fore
SplineSet
726 703 m 256
 726 817 625 900 490 900 c 256
 355 900 256 816 256 698 c 257
 94 698 l 257
 87 904 257 1054 497 1054 c 256
 726 1054 890 918 890 728 c 256
 890 608 824 507 692 416 c 257
 356 159 l 257
 922 159 l 257
 922 0 l 257
 90 0 l 257
 90 164 l 257
 552 475 l 258
 675 557 726 623 726 703 c 256
EndSplineSet
EndChar

StartChar: u
Encoding: 117 117 422
GlifName: u
Width: 1162
VWidth: 0
GlyphClass: 2
Flags: HW
LayerCount: 2
Fore
SplineSet
832 1044 m 257
 1015 1044 l 257
 1015 0 l 257
 840 0 l 257
 832 288 l 257
 832 1044 l 257
EndSplineSet
Refer: 1672 57357 N -1 0 0 -1 1145 1044 2
Substitution2: "'smcp' Lowercase to Small Capitals in Latin lookup 0 subtable" uni1D1C
EndChar

StartChar: underscore
Encoding: 95 95 431
GlifName: underscore
Width: 950
VWidth: 0
GlyphClass: 2
Flags: HW
LayerCount: 2
Fore
SplineSet
850 0 m 257
 850 -183 l 257
 100 -183 l 257
 100 0 l 257
 850 0 l 257
EndSplineSet
EndChar

StartChar: uni00AD
Encoding: 173 173 433
GlifName: uni00A_D_
Width: 1076
VWidth: 0
GlyphClass: 2
Flags: HW
LayerCount: 2
Fore
SplineSet
962 660 m 257
 962 520 l 257
 116 520 l 257
 116 660 l 257
 962 660 l 257
EndSplineSet
EndChar

StartChar: uni00B2
Encoding: 178 178 434
GlifName: uni00B_2
Width: 693
VWidth: 0
GlyphClass: 2
Flags: HW
LayerCount: 2
Fore
SplineSet
124 1132 m 257
 124 1219 l 257
 418 1482 l 258
 454 1514 472 1539 472 1594 c 256
 472 1674 412 1716 342 1716 c 256
 270 1716 212 1672 212 1590 c 257
 124 1590 l 257
 124 1735 235 1804 342 1804 c 256
 446 1804 560 1736 560 1594 c 256
 560 1514 524 1459 478 1420 c 258
 257 1221 l 257
 568 1221 l 257
 568 1132 l 257
 124 1132 l 257
EndSplineSet
EndChar

StartChar: uni00B3
Encoding: 179 179 435
GlifName: uni00B_3
Width: 704
VWidth: 0
GlyphClass: 2
Flags: HW
LayerCount: 2
Fore
SplineSet
240 1619 m 257
 150 1619 l 257
 150 1736 233 1804 355 1804 c 256
 465 1804 564 1732 564 1614 c 256
 564 1560 525 1498 461 1474 c 257
 527 1453 580 1389 580 1314 c 256
 580 1186 485 1122 355 1122 c 256
 216 1122 124 1197 124 1323 c 257
 220 1323 l 257
 220 1245 277 1209 355 1209 c 256
 437 1209 486 1244 486 1320 c 256
 486 1399 428 1434 342 1434 c 258
 289 1434 l 257
 289 1512 l 257
 342 1512 l 258
 414 1512 466 1546 466 1612 c 256
 466 1676 420 1716 352 1716 c 256
 284 1716 240 1681 240 1619 c 257
EndSplineSet
EndChar

StartChar: uni00B9
Encoding: 185 185 436
GlifName: uni00B_9
Width: 543
VWidth: 0
GlyphClass: 2
Flags: HW
LayerCount: 2
Fore
SplineSet
124 1549 m 257
 124 1637 l 257
 331 1637 l 257
 331 1794 l 257
 420 1794 l 257
 420 1132 l 257
 331 1132 l 257
 331 1549 l 257
 124 1549 l 257
EndSplineSet
EndChar

StartChar: uni018F
Encoding: 399 399 451
GlifName: uni018F_
Width: 1439
VWidth: 0
GlyphClass: 2
Flags: HW
LayerCount: 2
Fore
SplineSet
1144 583 m 257
 284 583 l 257
 295 337 444 148 716 148 c 256
 969 148 1130 323 1144 583 c 257
1150 733 m 257
 1142 1065 982 1249 708 1249 c 256
 501 1249 358 1141 300 972 c 257
 132 1032 l 257
 216 1260 414 1407 706 1407 c 256
 1116 1407 1336 1116 1336 696 c 256
 1336 283 1125 -12 708 -12 c 256
 282 -12 65 331 99 733 c 257
 1150 733 l 257
EndSplineSet
EndChar

StartChar: uni01B7
Encoding: 439 439 452
GlifName: uni01B_7
Width: 1296
VWidth: 0
GlyphClass: 2
Flags: HW
LayerCount: 2
Fore
SplineSet
620 -487 m 256
 347 -487 140 -360 87 -126 c 257
 268 -107 l 257
 320 -244 447 -330 626 -330 c 256
 898 -330 1028 -172 1028 104 c 256
 1028 404 812 553 515 526 c 257
 440 620 l 257
 938 1240 l 257
 92 1240 l 257
 92 1396 l 257
 1138 1396 l 257
 1138 1249 l 257
 694 692 l 257
 1018 653 1210 452 1210 104 c 256
 1210 -280 1000 -487 620 -487 c 256
EndSplineSet
EndChar

StartChar: uni0237
Encoding: 567 567 544
GlifName: uni0237
Width: 492
VWidth: 0
GlyphClass: 2
Flags: HW
LayerCount: 2
Fore
SplineSet
-149 -438 m 257
 -122 -312 l 257
 -91 -320 -48 -326 -10 -326 c 256
 92 -326 151 -280 151 -180 c 258
 151 1044 l 257
 336 1044 l 257
 336 -200 l 258
 336 -392 200 -468 34 -468 c 256
 -28 -468 -93 -458 -149 -438 c 257
EndSplineSet
EndChar

StartChar: uni0239
Encoding: 569 569 546
GlifName: uni0239
Width: 1748
VWidth: 0
GlyphClass: 2
Flags: HW
LayerCount: 2
Fore
SplineSet
782 1044 m 257
 966 1044 l 257
 966 -462 l 257
 782 -462 l 257
 782 1044 l 257
EndSplineSet
Refer: 1674 57359 N -1 0 0 -1 1116 1043 2
Refer: 1674 57359 N 1 0 0 1 634 0 2
EndChar

StartChar: uni0240
Encoding: 576 576 547
GlifName: uni0240
Width: 959
VWidth: 0
GlyphClass: 2
Flags: HW
LayerCount: 2
Fore
SplineSet
790 -280 m 256
 656 -280 572 -218 496 -150 c 256
 408 -71 316 0 66 0 c 257
 66 145 l 257
 688 886 l 257
 66 886 l 257
 66 1044 l 257
 892 1044 l 257
 892 900 l 257
 239 124 l 257
 417 120 495 60 567 -8 c 256
 630 -67 702 -122 790 -122 c 256
 878 -122 918 -86 968 -16 c 257
 1090 -106 l 257
 1016 -212 936 -280 790 -280 c 256
EndSplineSet
EndChar

StartChar: uni0255
Encoding: 597 597 550
GlifName: uni0255
Width: 1117
VWidth: 0
GlyphClass: 2
Flags: HW
LayerCount: 2
Fore
SplineSet
598 139 m 256
 403 139 283 259 283 522 c 256
 283 785 403 906 581 906 c 256
 715 906 814 838 850 700 c 257
 1025 742 l 257
 967 943 809 1054 578 1054 c 256
 274 1054 99 853 99 522 c 256
 99 191 274 -11 588 -11 c 256
 812 -11 1009 117 1009 322 c 256
 1009 476 888 572 742 572 c 256
 492 572 312 362 70 4 c 257
 178 -70 l 257
 435 290 564 454 722 454 c 256
 807 454 856 399 856 326 c 256
 856 210 728 139 598 139 c 256
EndSplineSet
EndChar

StartChar: uni0262
Encoding: 610 610 552
GlifName: uni0262
Width: 1092
VWidth: 0
GlyphClass: 2
Flags: HW
LayerCount: 2
Fore
SplineSet
246 521 m 256
 246 267 370 140 594 140 c 256
 704 140 789 175 845 239 c 257
 845 431 l 257
 540 431 l 257
 540 550 l 257
 1008 554 l 257
 1008 178 l 257
 906 54 775 -10 593 -10 c 256
 272 -10 80 181 80 521 c 256
 80 847 266 1055 562 1055 c 256
 757 1055 909 940 968 782 c 257
 834 726 l 257
 796 832 684 904 560 904 c 256
 364 904 246 758 246 521 c 256
EndSplineSet
EndChar

StartChar: uni0274
Encoding: 628 628 555
GlifName: uni0274
Width: 1199
VWidth: 0
GlyphClass: 2
Flags: HW
LayerCount: 2
Fore
SplineSet
862 1044 m 257
 1046 1044 l 257
 1046 0 l 257
 851 0 l 257
 336 799 l 257
 336 0 l 257
 154 0 l 257
 154 1044 l 257
 348 1044 l 257
 862 244 l 257
 862 1044 l 257
EndSplineSet
EndChar

StartChar: uni0280
Encoding: 640 640 556
GlifName: uni0280
Width: 1096
VWidth: 0
GlyphClass: 2
Flags: HW
LayerCount: 2
Fore
SplineSet
343 502 m 257
 533 502 l 258
 693 502 772 558 772 708 c 256
 772 858 693 913 533 913 c 258
 343 913 l 257
 343 502 l 257
343 372 m 257
 343 0 l 257
 160 0 l 257
 160 1044 l 257
 559 1044 l 258
 809 1044 954 934 954 708 c 256
 954 480 808 372 559 372 c 258
 343 372 l 257
606 446 m 257
 770 446 l 257
 1038 0 l 257
 852 0 l 257
 606 446 l 257
EndSplineSet
EndChar

StartChar: uni0283
Encoding: 643 643 557
GlifName: uni0283
Width: 797
VWidth: 0
GlyphClass: 2
Flags: HW
LayerCount: 2
Fore
SplineSet
804 1414 m 257
 766 1294 l 257
 736 1312 690 1324 638 1324 c 256
 536 1324 476 1278 476 1178 c 258
 476 -212 l 258
 476 -404 340 -481 174 -481 c 256
 92 -481 18 -460 -36 -428 c 257
 2 -308 l 257
 32 -326 78 -338 130 -338 c 256
 232 -338 292 -292 292 -192 c 258
 292 1198 l 258
 292 1390 428 1467 594 1467 c 256
 676 1467 750 1446 804 1414 c 257
EndSplineSet
EndChar

StartChar: uni028F
Encoding: 655 655 558
GlifName: uni028F_
Width: 984
VWidth: 0
GlyphClass: 2
Flags: HW
LayerCount: 2
Fore
SplineSet
774 1044 m 257
 985 1044 l 257
 584 449 l 257
 584 0 l 257
 400 0 l 257
 400 449 l 257
 -2 1044 l 257
 212 1044 l 257
 492 604 l 257
 774 1044 l 257
EndSplineSet
EndChar

StartChar: uni0291
Encoding: 657 657 559
GlifName: uni0291
Width: 1414
VWidth: 0
GlyphClass: 2
Flags: HW
LayerCount: 2
Fore
SplineSet
936 158 m 258
 268 158 l 257
 892 900 l 257
 892 1044 l 257
 66 1044 l 257
 66 886 l 257
 688 886 l 257
 66 145 l 257
 66 0 l 257
 929 0 l 258
 1152 0 1348 129 1348 334 c 256
 1348 488 1252 604 1072 604 c 256
 816 604 633 368 283 -168 c 257
 394 -240 l 257
 754 291 904 464 1062 464 c 256
 1144 464 1194 412 1194 340 c 256
 1194 224 1066 158 936 158 c 258
EndSplineSet
EndChar

StartChar: uni0292
Encoding: 658 658 560
GlifName: uni0292
Width: 1111
VWidth: 0
GlyphClass: 2
Flags: HW
LayerCount: 2
Fore
SplineSet
536 -487 m 256
 298 -487 132 -379 82 -147 c 257
 261 -124 l 257
 299 -259 394 -338 535 -338 c 256
 705 -338 832 -242 832 -10 c 256
 832 270 636 330 431 306 c 257
 352 398 l 257
 750 886 l 257
 122 886 l 257
 122 1044 l 257
 969 1044 l 257
 969 900 l 257
 606 456 l 257
 828 436 1016 302 1016 -10 c 256
 1016 -326 829 -487 536 -487 c 256
EndSplineSet
EndChar

StartChar: uni0293
Encoding: 659 659 561
GlifName: uni0293
Width: 1114
VWidth: 0
GlyphClass: 2
Flags: HW
LayerCount: 2
Fore
SplineSet
126 886 m 257
 126 1044 l 257
 972 1044 l 257
 972 900 l 257
 610 456 l 257
 832 436 1019 302 1019 -10 c 256
 1019 -326 813 -488 520 -488 c 256
 293 -488 91 -362 91 -154 c 256
 91 0 212 96 358 96 c 256
 608 96 788 -115 1030 -473 c 257
 923 -546 l 257
 666 -186 536 -22 378 -22 c 256
 293 -22 244 -77 244 -150 c 256
 244 -270 385 -338 518 -338 c 256
 688 -338 834 -242 834 -10 c 256
 834 270 639 330 434 306 c 257
 356 398 l 257
 754 886 l 257
 126 886 l 257
EndSplineSet
EndChar

StartChar: uni0299
Encoding: 665 665 562
GlifName: uni0299
Width: 1055
VWidth: 0
GlyphClass: 2
Flags: HW
LayerCount: 2
Fore
SplineSet
160 1044 m 257
 587 1044 l 258
 799 1044 911 930 911 756 c 256
 911 657 864 580 788 540 c 257
 894 501 960 406 960 286 c 256
 960 104 838 0 648 0 c 258
 160 0 l 257
 160 1044 l 257
346 914 m 257
 346 576 l 257
 564 576 l 258
 678 576 744 632 744 746 c 256
 744 860 678 914 564 914 c 258
 346 914 l 257
346 468 m 257
 346 130 l 257
 592 130 l 258
 706 130 772 184 772 298 c 256
 772 412 706 468 592 468 c 258
 346 468 l 257
EndSplineSet
EndChar

StartChar: uni029C
Encoding: 668 668 563
GlifName: uni029C_
Width: 1192
VWidth: 0
GlyphClass: 2
Flags: HW
LayerCount: 2
Fore
SplineSet
855 1044 m 257
 1039 1044 l 257
 1039 0 l 257
 855 0 l 257
 855 447 l 257
 336 447 l 257
 336 0 l 257
 154 0 l 257
 154 1044 l 257
 336 1044 l 257
 336 598 l 257
 855 598 l 257
 855 1044 l 257
EndSplineSet
EndChar

StartChar: uni029F
Encoding: 671 671 565
GlifName: uni029F_
Width: 937
VWidth: 0
GlyphClass: 2
Flags: HW
LayerCount: 2
Fore
SplineSet
186 1044 m 257
 370 1044 l 257
 370 149 l 257
 882 149 l 257
 882 0 l 257
 186 0 l 257
 186 1044 l 257
EndSplineSet
EndChar

StartChar: uni02C2
Encoding: 706 706 575
GlifName: uni02C_2
Width: 672
VWidth: 0
GlyphClass: 2
Flags: HW
LayerCount: 2
Fore
SplineSet
279 717 m 257
 563 433 l 257
 478 348 l 257
 109 717 l 257
 478 1086 l 257
 563 1001 l 257
 279 717 l 257
EndSplineSet
EndChar

StartChar: uni02C3
Encoding: 707 707 576
GlifName: uni02C_3
Width: 672
VWidth: 0
GlyphClass: 2
Flags: HW
LayerCount: 2
Fore
SplineSet
393 717 m 257
 109 1001 l 257
 194 1086 l 257
 563 717 l 257
 194 348 l 257
 109 433 l 257
 393 717 l 257
EndSplineSet
EndChar

StartChar: uni02C4
Encoding: 708 708 577
GlifName: uni02C_4
Width: 956
VWidth: 0
GlyphClass: 2
Flags: HW
LayerCount: 2
Fore
SplineSet
478 774 m 257
 194 490 l 257
 109 575 l 257
 478 944 l 257
 847 575 l 257
 762 490 l 257
 478 774 l 257
EndSplineSet
EndChar

StartChar: uni02C5
Encoding: 709 709 578
GlifName: uni02C_5
Width: 956
VWidth: 0
GlyphClass: 2
Flags: HW
LayerCount: 2
Fore
SplineSet
478 660 m 257
 762 944 l 257
 847 859 l 257
 478 490 l 257
 109 859 l 257
 194 944 l 257
 478 660 l 257
EndSplineSet
EndChar

StartChar: uni02D2
Encoding: 722 722 579
GlifName: uni02D_2
Width: 506
VWidth: 0
GlyphClass: 2
Flags: HW
LayerCount: 2
Fore
SplineSet
116 1224 m 257
 230 1224 296 1300 296 1402 c 256
 296 1504 231 1578 117 1578 c 257
 117 1672 l 257
 280 1672 390 1563 390 1402 c 256
 390 1241 280 1131 116 1131 c 257
 116 1224 l 257
EndSplineSet
EndChar

StartChar: uni02D3
Encoding: 723 723 580
GlifName: uni02D_3
Width: 573
VWidth: 0
GlyphClass: 2
Flags: HW
LayerCount: 2
Fore
SplineSet
424 1578 m 257
 310 1578 244 1504 244 1402 c 256
 244 1300 309 1224 423 1224 c 257
 423 1131 l 257
 260 1131 150 1241 150 1402 c 256
 150 1563 260 1672 424 1672 c 257
 424 1578 l 257
EndSplineSet
EndChar

StartChar: uni031B
Encoding: 795 795 584
GlifName: uni031B_
Width: 672
VWidth: 0
GlyphClass: 2
Flags: HW
LayerCount: 2
Fore
SplineSet
478 1549 m 257
 504 1467 522 1395 522 1320 c 256
 522 1207 454 1132 296 1132 c 258
 150 1132 l 257
 150 1230 l 257
 306 1230 l 258
 392 1230 420 1263 420 1321 c 256
 420 1371 404 1440 381 1514 c 257
 478 1549 l 257
EndSplineSet
EndChar

StartChar: uni0600
Encoding: 1536 1536 585
GlifName: uni0600
Width: 2967
VWidth: 0
GlyphClass: 2
Flags: HW
LayerCount: 2
Fore
SplineSet
2268 184 m 257
 2222 221 2198 280 2198 350 c 256
 2198 526 2296 696 2460 890 c 257
 2598 772 l 257
 2450 599 2381 468 2381 358 c 256
 2381 232 2478 174 2648 135 c 258
 2868 87 l 257
 2814 -94 l 257
 2578 -24 2452 0 2346 0 c 258
 100 0 l 257
 100 184 l 257
 2268 184 l 257
EndSplineSet
EndChar

StartChar: uni0601
Encoding: 1537 1537 586
GlifName: uni0601
Width: 3927
VWidth: 0
GlyphClass: 2
Flags: HW
LayerCount: 2
Fore
SplineSet
99 260 m 257
 247 338 l 257
 307 212 341 154 412 154 c 256
 480 154 508 233 546 343 c 256
 620 541 690 679 850 679 c 256
 988 679 1084 570 1196 400 c 256
 1290 259 1368 155 1490 155 c 256
 1613 155 1690 287 1764 460 c 257
 1878 476 l 257
 2084 236 2376 155 2600 155 c 256
 2850 155 3056 266 3260 404 c 256
 3427 516 3504 556 3602 556 c 256
 3732 556 3825 460 3825 326 c 256
 3825 209 3764 89 3618 -61 c 257
 3506 48 l 257
 3590 128 3627 199 3627 258 c 256
 3627 309 3597 340 3553 340 c 256
 3499 340 3458 316 3348 242 c 256
 3133 98 2886 -29 2602 -29 c 256
 2374 -29 2096 38 1854 252 c 257
 1768 100 1669 -29 1488 -29 c 256
 1297 -29 1172 112 1044 306 c 256
 972 412 916 489 846 489 c 256
 764 489 731 399 692 283 c 256
 624 93 557 -29 404 -29 c 256
 257 -29 195 57 99 260 c 257
EndSplineSet
EndChar

StartChar: uni0603
Encoding: 1539 1539 587
GlifName: uni0603
Width: 2054
VWidth: 0
GlyphClass: 2
Flags: HW
LayerCount: 2
Fore
SplineSet
99 0 m 257
 99 184 l 257
 400 184 591 319 680 704 c 257
 858 664 l 257
 754 206 517 0 99 0 c 257
1757 406 m 256
 1757 517 1684 594 1562 594 c 256
 1436 594 1270 493 1088 227 c 257
 960 308 l 257
 1188 639 1399 776 1589 776 c 256
 1817 776 1956 618 1956 404 c 256
 1956 110 1718 0 1392 0 c 256
 1052 0 824 127 624 367 c 257
 750 502 l 257
 943 295 1137 183 1412 183 c 256
 1598 183 1757 231 1757 406 c 256
EndSplineSet
EndChar

StartChar: uni0604
Encoding: 1540 1540 588
GlifName: uni0604
Width: 2883
VWidth: 0
GlyphClass: 2
Flags: HW
LayerCount: 2
Fore
SplineSet
1287 -178 m 257
 1065 -68 922 0 696 0 c 258
 100 0 l 257
 100 184 l 257
 626 184 l 258
 682 184 734 179 788 163 c 257
 743 215 724 281 724 347 c 256
 724 585 906 806 1148 806 c 256
 1348 806 1445 694 1540 582 c 256
 1634 470 1713 384 1881 384 c 256
 2030 384 2096 457 2096 609 c 258
 2096 828 l 257
 2260 828 l 257
 2260 609 l 258
 2260 465 2308 384 2436 384 c 256
 2563 384 2602 466 2602 588 c 256
 2602 670 2587 789 2567 880 c 257
 2746 917 l 257
 2771 803 2784 692 2784 578 c 256
 2784 346 2690 200 2458 200 c 256
 2292 200 2210 272 2180 388 c 257
 2150 272 2073 200 1895 200 c 256
 1667 200 1552 326 1448 442 c 256
 1364 537 1287 622 1159 622 c 256
 995 622 907 491 907 345 c 256
 907 182 1089 105 1233 46 c 256
 1283 25 1329 4 1368 -14 c 257
 1287 -178 l 257
EndSplineSet
EndChar

StartChar: uni060C
Encoding: 1548 1548 592
GlifName: uni060C_
Width: 610
VWidth: 0
GlyphClass: 2
Flags: HW
LayerCount: 2
Fore
SplineSet
280 261 m 257
 380 276 451 226 451 132 c 256
 451 50 396 -7 318 -7 c 256
 222 -7 160 64 160 194 c 256
 160 360 231 504 354 622 c 257
 429 545 l 257
 343 459 290 369 280 261 c 257
EndSplineSet
EndChar

StartChar: uni060D
Encoding: 1549 1549 593
GlifName: uni060D_
Width: 880
VWidth: 0
GlyphClass: 2
Flags: HW
LayerCount: 2
Fore
SplineSet
248 -647 m 257
 50 -647 l 257
 554 641 l 257
 751 641 l 257
 248 -647 l 257
EndSplineSet
EndChar

StartChar: uni060E
Encoding: 1550 1550 594
GlifName: uni060E_
Width: 2198
VWidth: 0
GlyphClass: 2
Flags: HW
LayerCount: 2
Fore
SplineSet
1024 415 m 256
 1024 239 920 72 830 -49 c 257
 687 61 l 257
 764 163 840 286 840 400 c 256
 840 554 732 656 572 656 c 256
 428 656 282 541 282 360 c 256
 282 185 454 120 646 120 c 258
 2099 120 l 257
 2099 -62 l 257
 642 -62 l 258
 330 -62 100 75 100 351 c 256
 100 641 332 839 572 839 c 256
 831 839 1024 665 1024 415 c 256
EndSplineSet
EndChar

StartChar: uni060F
Encoding: 1551 1551 595
GlifName: uni060F_
Width: 1530
VWidth: 0
GlyphClass: 2
Flags: HW
LayerCount: 2
Fore
SplineSet
822 -742 m 256
 430 -742 100 -564 100 -206 c 256
 100 44 268 264 542 384 c 257
 344 415 191 543 191 748 c 256
 191 1024 410 1222 660 1222 c 256
 820 1222 946 1152 1036 1058 c 257
 930 922 l 257
 870 985 783 1038 664 1038 c 256
 517 1038 376 930 376 756 c 256
 376 584 536 514 790 514 c 256
 873 514 991 527 1087 537 c 257
 1098 355 l 257
 666 329 283 149 283 -200 c 256
 283 -448 550 -560 834 -560 c 256
 1034 -560 1232 -502 1232 -332 c 256
 1232 -223 1157 -146 1035 -146 c 256
 910 -146 752 -237 565 -518 c 257
 322 -880 l 257
 186 -788 l 257
 438 -438 l 257
 666 -102 886 28 1076 28 c 256
 1296 28 1430 -123 1430 -327 c 256
 1430 -613 1149 -742 822 -742 c 256
EndSplineSet
EndChar

StartChar: uni0615.alt
Encoding: 1114200 -1 597
GlifName: uni0615.alt
Width: 749
VWidth: 0
GlyphClass: 2
Flags: HW
LayerCount: 2
Fore
SplineSet
312 68 m 257
 393 68 l 258
 470 68 547 78 547 142 c 256
 547 179 522 206 482 206 c 256
 434 206 379 162 312 68 c 257
236 68 m 257
 236 416 l 257
 305 416 l 257
 305 150 l 257
 371 233 426 274 494 274 c 256
 563 274 616 225 616 143 c 256
 616 33 517 0 393 -0 c 258
 133 -0 l 257
 133 68 l 257
 236 68 l 257
EndSplineSet
EndChar

StartChar: uni061C
Encoding: 1564 1564 599
GlifName: uni061C_
Width: 2390
VWidth: 0
GlyphClass: 2
Flags: HW
LayerCount: 2
Fore
SplineSet
850 1110 m 257
 1083 1110 l 257
 1083 1047 l 257
 850 1047 l 257
 850 1110 l 257
1316 1110 m 257
 1549 1110 l 257
 1549 1047 l 257
 1316 1047 l 257
 1316 1110 l 257
2127 1047 m 257
 1782 1047 l 257
 1782 1110 l 257
 2190 1108 l 257
 2190 800 l 257
 2127 800 l 257
 2127 1047 l 257
200 1110 m 257
 617 1110 l 257
 617 1047 l 257
 264 1049 l 257
 264 802 l 257
 200 802 l 257
 200 1110 l 257
1551 -280 m 257
 1318 -280 l 257
 1318 -216 l 257
 1551 -216 l 257
 1551 -280 l 257
200 -280 m 257
 619 -280 l 257
 619 -216 l 257
 264 -216 l 257
 264 30 l 257
 200 30 l 257
 200 -280 l 257
2127 -216 m 257
 1784 -216 l 257
 1784 -280 l 257
 2190 -280 l 257
 2190 28 l 257
 2127 28 l 257
 2127 -216 l 257
1085 -280 m 257
 852 -280 l 257
 852 -216 l 257
 1085 -216 l 257
 1085 -280 l 257
2127 261 m 257
 2127 568 l 257
 2190 568 l 257
 2190 261 l 257
 2127 261 l 257
264 570 m 257
 264 263 l 257
 200 263 l 257
 200 570 l 257
 264 570 l 257
EndSplineSet
Refer: 1334 7437 N 0.5 0 0 0.5 1282 146 2
Refer: 1327 7424 N 0.5 0 0 0.5 386 146 2
Refer: 565 671 N 0.5 0 0 0.5 836 146 2
EndChar

StartChar: uni061F
Encoding: 1567 1567 601
GlifName: uni061F_
Width: 1096
VWidth: 0
GlyphClass: 2
Flags: HW
LayerCount: 2
Fore
SplineSet
578 -11 m 256
 506 -11 452 45 452 115 c 256
 452 185 506 238 578 238 c 256
 650 238 704 185 704 115 c 256
 704 45 650 -11 578 -11 c 256
772 898 m 257
 780 932 782 976 782 1014 c 256
 782 1142 702 1234 564 1234 c 256
 417 1234 330 1136 330 1000 c 256
 330 892 379 826 473 752 c 256
 581 666 675 588 675 426 c 257
 500 426 l 257
 500 550 427 614 339 686 c 256
 245 764 154 847 154 1020 c 256
 154 1202 298 1384 560 1384 c 256
 798 1384 942 1237 942 1030 c 256
 942 987 938 936 925 890 c 257
 772 898 l 257
EndSplineSet
Substitution2: "'tnum' Tabular Numbers lookup 22 subtable" uni061F.tnum
EndChar

StartChar: uni0652.alt
Encoding: 1114236 -1 688
GlifName: uni0652.alt
Width: 457
VWidth: 0
GlyphClass: 2
Flags: HW
LayerCount: 2
Fore
SplineSet
228 222 m 256
 176 222 150 192 150 142 c 256
 150 92 176 62 228 62 c 256
 278 62 308 94 308 142 c 256
 308 190 280 222 228 222 c 256
228 284 m 256
 314 284 370 226 370 142 c 256
 370 58 314 0 228 0 c 256
 142 0 86 60 86 142 c 256
 86 224 142 284 228 284 c 256
EndSplineSet
EndChar

StartChar: uni0660
Encoding: 1632 1632 702
GlifName: uni0660
Width: 689
VWidth: 0
GlyphClass: 2
Flags: HW
LayerCount: 2
Fore
SplineSet
344 663 m 257
 131 449 l 257
 344 234 l 257
 558 449 l 257
 344 663 l 257
EndSplineSet
PairPos2: "'kern' Horizontal Kerning in Arabic lookup 7 subtable" uni0662 dx=-111 dy=0 dh=-111 dv=0 dx=0 dy=0 dh=0 dv=0
PairPos2: "'kern' Horizontal Kerning in Arabic lookup 7 subtable" uni0667 dx=-89 dy=0 dh=-89 dv=0 dx=0 dy=0 dh=0 dv=0
PairPos2: "'kern' Horizontal Kerning in Arabic lookup 7 subtable" uni0661 dx=45 dy=0 dh=45 dv=0 dx=0 dy=0 dh=0 dv=0
Substitution2: "'tnum' Tabular Numbers lookup 22 subtable" uni0660.tnum
EndChar

StartChar: uni0661
Encoding: 1633 1633 704
GlifName: uni0661
Width: 680
VWidth: 0
GlyphClass: 2
Flags: HW
LayerCount: 2
Fore
SplineSet
531 0 m 257
 347 0 l 257
 347 524 286 884 102 1342 c 257
 278 1410 l 257
 463 938 531 544 531 0 c 257
EndSplineSet
PairPos2: "'kern' Horizontal Kerning in Arabic lookup 7 subtable" uni0665 dx=-56 dy=0 dh=-56 dv=0 dx=0 dy=0 dh=0 dv=0
Substitution2: "'tnum' Tabular Numbers lookup 22 subtable" uni0661.tnum
EndChar

StartChar: uni0662
Encoding: 1634 1634 706
GlifName: uni0662
Width: 1181
VWidth: 0
GlyphClass: 2
Flags: HW
LayerCount: 2
Fore
SplineSet
608 932 m 256
 779 932 828 1048 850 1276 c 258
 864 1399 l 257
 1044 1374 l 257
 1016 1075 978 751 633 751 c 256
 562 751 499 775 453 820 c 257
 509 562 530 302 530 0 c 257
 346 0 l 257
 346 507 291 866 101 1342 c 257
 278 1410 l 257
 328 1275 l 258
 425 1018 478 932 608 932 c 256
EndSplineSet
Substitution2: "'tnum' Tabular Numbers lookup 22 subtable" uni0662.tnum
EndChar

StartChar: uni0663
Encoding: 1635 1635 708
GlifName: uni0663
Width: 1516
VWidth: 0
GlyphClass: 2
Flags: HW
LayerCount: 2
Fore
SplineSet
569 926 m 256
 666 926 713 998 726 1140 c 256
 732 1232 735 1294 737 1370 c 257
 884 1366 l 257
 876 1291 870 1219 870 1124 c 256
 870 993 917 926 1031 926 c 256
 1145 926 1180 1001 1180 1127 c 256
 1180 1204 1172 1290 1158 1382 c 257
 1336 1412 l 257
 1351 1321 1360 1235 1360 1157 c 256
 1360 911 1274 742 1042 742 c 256
 914 742 813 815 792 933 c 257
 768 817 695 743 587 742 c 256
 523 742 488 766 453 810 c 257
 509 550 526 297 526 0 c 257
 342 0 l 257
 342 532 273 913 101 1344 c 257
 278 1410 l 257
 334 1218 l 257
 410 1011 461 926 569 926 c 256
EndSplineSet
PairPos2: "'kern' Horizontal Kerning in Arabic lookup 7 subtable" uni0668 dx=-56 dy=0 dh=-56 dv=0 dx=0 dy=0 dh=0 dv=0
Substitution2: "'tnum' Tabular Numbers lookup 22 subtable" uni0663.tnum
EndChar

StartChar: uni0664
Encoding: 1636 1636 710
GlifName: uni0664
Width: 1039
VWidth: 0
GlyphClass: 2
Flags: HW
LayerCount: 2
Fore
SplineSet
452 714 m 257
 292 752 191 832 191 968 c 256
 191 1213 463 1375 756 1410 c 257
 777 1234 l 257
 507 1206 378 1084 378 972 c 256
 378 854 514 804 776 804 c 257
 776 644 l 257
 500 644 310 502 310 346 c 256
 310 206 444 180 592 180 c 258
 894 180 l 257
 894 0 l 257
 577 0 l 258
 337 0 126 72 126 322 c 256
 126 478 238 646 452 714 c 257
EndSplineSet
PairPos2: "'kern' Horizontal Kerning in Arabic lookup 7 subtable" uni0666 dx=56 dy=0 dh=56 dv=0 dx=0 dy=0 dh=0 dv=0
Substitution2: "'tnum' Tabular Numbers lookup 22 subtable" uni0664.tnum
EndChar

StartChar: uni0664.urdu
Encoding: 1114242 -1 712
GlifName: uni0664.urdu
Width: 1175
VWidth: 0
GlyphClass: 2
Flags: HW
LayerCount: 2
Fore
SplineSet
1077 1258 m 257
 933 1175 813 1087 715 973 c 257
 622 974 l 257
 491 1152 l 258
 457 1198 416 1218 376 1218 c 256
 314 1218 262 1167 262 1104 c 256
 262 1079 270 1051 290 1023 c 258
 622 464 l 258
 672 380 706 279 706 177 c 256
 706 105 690 32 656 -38 c 257
 487 34 l 257
 511 80 523 127 523 173 c 256
 523 241 498 308 464 368 c 258
 138 932 l 258
 100 992 77 1054 77 1116 c 256
 77 1278 210 1407 368 1407 c 256
 467 1407 553 1358 616 1278 c 258
 677 1196 l 257
 765 1282 878 1356 985 1418 c 257
 1077 1258 l 257
EndSplineSet
Substitution2: "'tnum' Tabular Numbers lookup 22 subtable" uni0664.urdu.tnum
EndChar

StartChar: uni0665
Encoding: 1637 1637 714
GlifName: uni0665
Width: 1309
VWidth: 0
GlyphClass: 2
Flags: HW
LayerCount: 2
Fore
SplineSet
546 1410 m 257
 834 1180 1164 812 1164 418 c 256
 1164 104 958 -18 662 -18 c 256
 376 -18 146 102 146 404 c 256
 146 680 291 933 550 1164 c 257
 516 1197 468 1240 430 1270 c 257
 546 1410 l 257
658 1056 m 257
 421 838 329 614 329 420 c 256
 329 238 441 166 662 166 c 256
 887 166 981 233 981 424 c 256
 981 618 852 858 658 1056 c 257
EndSplineSet
PairPos2: "'kern' Horizontal Kerning in Arabic lookup 7 subtable" uni0667 dx=-111 dy=0 dh=-111 dv=0 dx=0 dy=0 dh=0 dv=0
PairPos2: "'kern' Horizontal Kerning in Arabic lookup 7 subtable" uni0661 dx=56 dy=0 dh=56 dv=0 dx=0 dy=0 dh=0 dv=0
Substitution2: "'tnum' Tabular Numbers lookup 22 subtable" uni0665.tnum
EndChar

StartChar: uni0666
Encoding: 1638 1638 716
GlifName: uni0666
Width: 1179
VWidth: 0
GlyphClass: 2
Flags: HW
LayerCount: 2
Fore
SplineSet
126 1207 m 257
 126 1396 l 257
 848 1396 l 257
 958 1276 l 257
 954 1188 952 1106 952 1007 c 256
 952 599 984 383 1082 43 c 257
 904 -1 l 257
 805 351 768 587 768 1007 c 256
 768 1069 770 1140 772 1207 c 257
 126 1207 l 257
EndSplineSet
PairPos2: "'kern' Horizontal Kerning in Arabic lookup 7 subtable" uni0668 dx=-222 dy=0 dh=-222 dv=0 dx=0 dy=0 dh=0 dv=0
PairPos2: "'kern' Horizontal Kerning in Arabic lookup 7 subtable" uni066B dx=-167 dy=0 dh=-167 dv=0 dx=0 dy=0 dh=0 dv=0
PairPos2: "'kern' Horizontal Kerning in Arabic lookup 7 subtable" uni0660 dx=-222 dy=0 dh=-222 dv=0 dx=0 dy=0 dh=0 dv=0
PairPos2: "'kern' Horizontal Kerning in Arabic lookup 7 subtable" uni0665 dx=-195 dy=0 dh=-195 dv=0 dx=0 dy=0 dh=0 dv=0
PairPos2: "'kern' Horizontal Kerning in Arabic lookup 7 subtable" uni0664 dx=-56 dy=0 dh=-56 dv=0 dx=0 dy=0 dh=0 dv=0
Substitution2: "'tnum' Tabular Numbers lookup 22 subtable" uni0666.tnum
EndChar

StartChar: uni0667
Encoding: 1639 1639 718
GlifName: uni0667
Width: 1403
VWidth: 0
GlyphClass: 2
Flags: HW
LayerCount: 2
Fore
SplineSet
1148 1430 m 257
 1293 1315 l 257
 1019 960 852 580 784 0 c 257
 620 0 l 257
 552 580 385 960 111 1315 c 257
 258 1430 l 257
 474 1150 656 727 702 335 c 257
 748 727 932 1150 1148 1430 c 257
EndSplineSet
PairPos2: "'kern' Horizontal Kerning in Arabic lookup 7 subtable" uni066B dx=-139 dy=0 dh=-139 dv=0 dx=0 dy=0 dh=0 dv=0
PairPos2: "'kern' Horizontal Kerning in Arabic lookup 7 subtable" uni0668 dx=-167 dy=0 dh=-167 dv=0 dx=0 dy=0 dh=0 dv=0
PairPos2: "'kern' Horizontal Kerning in Arabic lookup 7 subtable" uni0665 dx=-111 dy=0 dh=-111 dv=0 dx=0 dy=0 dh=0 dv=0
PairPos2: "'kern' Horizontal Kerning in Arabic lookup 7 subtable" uni0660 dx=-111 dy=0 dh=-111 dv=0 dx=0 dy=0 dh=0 dv=0
Substitution2: "'tnum' Tabular Numbers lookup 22 subtable" uni0667.tnum
Substitution2: "'locl' Localized Forms in Arabic lookup 5 subtable" uni0667.urdu
EndChar

StartChar: uni0667.urdu
Encoding: 1114247 -1 720
GlifName: uni0667.urdu
Width: 1173
VWidth: 0
GlyphClass: 2
Flags: HW
LayerCount: 2
Fore
SplineSet
1010 246 m 257
 1075 75 l 257
 923 18 767 -10 608 -10 c 256
 456 -10 304 17 148 67 c 257
 98 204 l 257
 288 523 414 981 472 1412 c 257
 654 1388 l 257
 599 980 487 546 316 216 c 257
 420 190 518 174 614 174 c 256
 752 174 880 197 1010 246 c 257
EndSplineSet
Substitution2: "'tnum' Tabular Numbers lookup 22 subtable" uni0667.urdu.tnum
EndChar

StartChar: uni0668
Encoding: 1640 1640 722
GlifName: uni0668
Width: 1403
VWidth: 0
GlyphClass: 2
Flags: HW
LayerCount: 2
Fore
SplineSet
258 -26 m 257
 111 88 l 257
 385 443 552 824 620 1404 c 257
 784 1404 l 257
 852 824 1019 443 1293 88 c 257
 1148 -26 l 257
 932 254 748 676 702 1068 c 257
 656 676 474 254 258 -26 c 257
EndSplineSet
PairPos2: "'kern' Horizontal Kerning in Arabic lookup 7 subtable" uni0667 dx=-167 dy=0 dh=-167 dv=0 dx=0 dy=0 dh=0 dv=0
PairPos2: "'kern' Horizontal Kerning in Arabic lookup 7 subtable" uni0662 dx=-195 dy=0 dh=-195 dv=0 dx=0 dy=0 dh=0 dv=0
PairPos2: "'kern' Horizontal Kerning in Arabic lookup 7 subtable" uni0663 dx=-222 dy=0 dh=-222 dv=0 dx=0 dy=0 dh=0 dv=0
Substitution2: "'tnum' Tabular Numbers lookup 22 subtable" uni0668.tnum
EndChar

StartChar: uni0669
Encoding: 1641 1641 724
GlifName: uni0669
Width: 1117
VWidth: 0
GlyphClass: 2
Flags: HW
LayerCount: 2
Fore
SplineSet
717 630 m 257
 654 610 592 599 514 599 c 256
 320 599 132 674 132 943 c 256
 132 1165 248 1412 510 1412 c 256
 814 1412 877 1176 882 823 c 257
 886 459 924 268 1012 70 c 257
 843 -4 l 257
 767 180 725 404 717 630 c 257
704 806 m 257
 704 836 l 258
 704 1094 659 1227 507 1227 c 256
 393 1227 306 1116 306 952 c 256
 306 828 376 779 522 779 c 256
 592 779 646 788 704 806 c 257
EndSplineSet
PairPos2: "'kern' Horizontal Kerning in Arabic lookup 7 subtable" uni0665 dx=-56 dy=0 dh=-56 dv=0 dx=0 dy=0 dh=0 dv=0
PairPos2: "'kern' Horizontal Kerning in Arabic lookup 7 subtable" uni0668 dx=-167 dy=0 dh=-167 dv=0 dx=0 dy=0 dh=0 dv=0
Substitution2: "'tnum' Tabular Numbers lookup 22 subtable" uni0669.tnum
EndChar

StartChar: uni066B
Encoding: 1643 1643 728
GlifName: uni066B_
Width: 880
VWidth: 0
GlyphClass: 2
Flags: HW
LayerCount: 2
Fore
SplineSet
248 -647 m 257
 50 -646 l 257
 554 642 l 257
 751 641 l 257
 248 -647 l 257
EndSplineSet
PairPos2: "'kern' Horizontal Kerning in Arabic lookup 7 subtable" uni0667 dx=-111 dy=0 dh=-111 dv=0 dx=0 dy=0 dh=0 dv=0
PairPos2: "'kern' Horizontal Kerning in Arabic lookup 7 subtable" uni0662 dx=-111 dy=0 dh=-111 dv=0 dx=0 dy=0 dh=0 dv=0
PairPos2: "'kern' Horizontal Kerning in Arabic lookup 7 subtable" uni0663 dx=-167 dy=0 dh=-167 dv=0 dx=0 dy=0 dh=0 dv=0
PairPos2: "'kern' Horizontal Kerning in Arabic lookup 7 subtable" uni066B dx=-56 dy=0 dh=-56 dv=0 dx=0 dy=0 dh=0 dv=0
PairPos2: "'kern' Horizontal Kerning in Arabic lookup 7 subtable" uni06F2 dx=-111 dy=0 dh=-111 dv=0 dx=0 dy=0 dh=0 dv=0
PairPos2: "'kern' Horizontal Kerning in Arabic lookup 7 subtable" uni06F3 dx=-84 dy=0 dh=-84 dv=0 dx=0 dy=0 dh=0 dv=0
PairPos2: "'kern' Horizontal Kerning in Arabic lookup 7 subtable" uni06F0 dx=-56 dy=0 dh=-56 dv=0 dx=0 dy=0 dh=0 dv=0
PairPos2: "'kern' Horizontal Kerning in Arabic lookup 7 subtable" uni06F7 dx=-111 dy=0 dh=-111 dv=0 dx=0 dy=0 dh=0 dv=0
Substitution2: "'tnum' Tabular Numbers lookup 22 subtable" uni066B.tnum
EndChar

StartChar: uni066C
Encoding: 1644 1644 730
GlifName: uni066C_
Width: 641
VWidth: 0
GlyphClass: 2
Flags: HW
LayerCount: 2
Fore
SplineSet
344 0 m 257
 262 -6 198 36 198 112 c 256
 198 178 250 226 322 226 c 256
 402 226 452 168 452 62 c 256
 452 -81 386 -203 264 -297 c 257
 196 -220 l 257
 266 -164 332 -81 344 0 c 257
EndSplineSet
Substitution2: "'tnum' Tabular Numbers lookup 22 subtable" uni066C.tnum
EndChar

StartChar: uni066D
Encoding: 1645 1645 732
GlifName: uni066D_
Width: 995
VWidth: 0
GlyphClass: 2
Flags: HW
LayerCount: 2
Fore
SplineSet
564 671 m 257
 432 671 l 257
 440 1024 l 257
 139 842 l 257
 72 957 l 257
 380 1127 l 257
 72 1298 l 257
 139 1411 l 257
 440 1232 l 257
 432 1582 l 257
 564 1582 l 257
 558 1232 l 257
 858 1411 l 257
 924 1298 l 257
 618 1127 l 257
 924 957 l 257
 858 842 l 257
 558 1024 l 257
 564 671 l 257
EndSplineSet
Substitution2: "'tnum' Tabular Numbers lookup 22 subtable" uni066D.tnum
EndChar

StartChar: uni06DD
Encoding: 1757 1757 985
GlifName: uni06D_D_
Width: 0
VWidth: 0
GlyphClass: 2
Flags: H
LayerCount: 2
Fore
SplineSet
1020 641 m 256
 1020 426 1031 170 1060 -80 c 256
 1060 -81 1060 -83 1060 -84 c 256
 1060 -96 1050 -107 1038 -109 c 256
 794 -153 646 -217 514 -275 c 256
 360 -343 206 -398 0 -398 c 256
 -206 -398 -360 -343 -514 -275 c 256
 -646 -217 -794 -153 -1038 -109 c 256
 -1050 -107 -1060 -96 -1060 -84 c 256
 -1060 -83 -1060 -81 -1060 -80 c 256
 -1031 170 -1020 426 -1020 641 c 256
 -1020 856 -1031 1114 -1060 1364 c 256
 -1060 1365 -1060 1365 -1060 1366 c 256
 -1060 1378 -1050 1390 -1038 1392 c 256
 -794 1436 -646 1500 -514 1558 c 256
 -360 1626 -206 1682 0 1682 c 256
 206 1682 360 1626 514 1558 c 256
 646 1500 794 1436 1038 1392 c 256
 1050 1390 1060 1378 1060 1366 c 256
 1060 1365 1060 1365 1060 1364 c 256
 1031 1114 1020 856 1020 641 c 256
0 1594 m 256
 -189 1594 -328 1544 -475 1479 c 256
 -598 1425 -743 1363 -969 1320 c 257
 -943 1084 -933 843 -933 641 c 256
 -933 439 -943 199 -969 -37 c 257
 -743 -80 -598 -142 -475 -196 c 256
 -328 -261 -189 -311 0 -311 c 256
 189 -311 328 -261 475 -196 c 256
 598 -142 743 -80 969 -37 c 257
 943 199 933 439 933 641 c 256
 933 843 943 1084 969 1320 c 257
 743 1363 598 1425 475 1479 c 256
 328 1544 189 1594 0 1594 c 256
EndSplineSet
EndChar

StartChar: uni06DE
Encoding: 1758 1758 986
GlifName: uni06D_E_
Width: 2663
VWidth: 0
GlyphClass: 2
Flags: HW
LayerCount: 2
Fore
SplineSet
1331 1485 m 256
 1371 1485 1404 1451 1404 1411 c 256
 1404 1371 1371 1337 1331 1337 c 256
 1291 1337 1257 1371 1257 1411 c 256
 1257 1451 1291 1485 1331 1485 c 256
1331 -117 m 256
 1371 -117 1405 -151 1405 -191 c 256
 1405 -231 1371 -265 1331 -265 c 256
 1291 -265 1258 -231 1258 -191 c 256
 1258 -151 1291 -117 1331 -117 c 256
530 683 m 256
 570 683 604 650 604 610 c 256
 604 570 570 536 530 536 c 256
 490 536 456 570 456 610 c 256
 456 650 490 683 530 683 c 256
2132 684 m 256
 2172 684 2206 650 2206 610 c 256
 2206 570 2172 537 2132 537 c 256
 2092 537 2058 570 2058 610 c 256
 2058 650 2092 684 2132 684 c 256
790 1224 m 256
 829 1224 864 1189 864 1150 c 256
 864 1111 829 1077 790 1077 c 256
 751 1077 717 1111 717 1150 c 256
 717 1189 751 1224 790 1224 c 256
1872 143 m 256
 1911 143 1945 109 1945 70 c 256
 1945 31 1911 -4 1872 -4 c 256
 1833 -4 1798 31 1798 70 c 256
 1798 109 1833 143 1872 143 c 256
791 143 m 256
 830 143 864 108 864 69 c 256
 864 30 830 -4 791 -4 c 256
 752 -4 717 30 717 69 c 256
 717 108 752 143 791 143 c 256
1871 1224 m 256
 1910 1224 1945 1190 1945 1151 c 256
 1945 1112 1910 1077 1871 1077 c 256
 1832 1077 1798 1112 1798 1151 c 256
 1798 1190 1832 1224 1871 1224 c 256
1332 1670 m 257
 1021 1360 l 257
 581 1360 l 257
 581 921 l 257
 271 610 l 257
 581 299 l 257
 581 -140 l 257
 1021 -140 l 257
 1332 -450 l 257
 1642 -140 l 257
 2081 -140 l 257
 2081 299 l 257
 2392 610 l 257
 2081 921 l 257
 2081 1360 l 257
 1642 1360 l 257
 1332 1670 l 257
1331 1784 m 257
 1676 1440 l 257
 2161 1440 l 257
 2161 954 l 257
 2506 610 l 257
 2161 266 l 257
 2161 -220 l 257
 1676 -220 l 257
 1331 -564 l 257
 988 -220 l 257
 501 -220 l 257
 501 266 l 257
 158 610 l 257
 501 954 l 257
 501 1440 l 257
 988 1440 l 257
 1331 1784 l 257
EndSplineSet
Refer: 1700 57390 N 1 0 0 1 880 136 2
EndChar

StartChar: uni06DF
Encoding: 1759 1759 987
GlifName: uni06D_F_
Width: 0
VWidth: 0
GlyphClass: 2
Flags: H
LayerCount: 2
Fore
SplineSet
-82 1464 m 256
 -82 1509 -45 1545 0 1545 c 256
 45 1545 82 1509 82 1464 c 256
 82 1419 45 1382 0 1382 c 256
 -45 1382 -82 1419 -82 1464 c 256
EndSplineSet
EndChar

StartChar: uni06E0
Encoding: 1760 1760 988
GlifName: uni06E_0
Width: 0
VWidth: 0
GlyphClass: 2
Flags: H
LayerCount: 2
Fore
SplineSet
-82 1382 m 257
 -82 1545 l 257
 82 1545 l 257
 82 1382 l 257
 -82 1382 l 257
EndSplineSet
EndChar

StartChar: uni06E9
Encoding: 1769 1769 997
GlifName: uni06E_9
Width: 1236
VWidth: 0
GlyphClass: 2
Flags: HW
LayerCount: 2
Fore
SplineSet
348 63 m 257
 348 691 l 257
 114 958 l 257
 618 1419 l 257
 1122 958 l 257
 888 691 l 257
 888 63 l 257
 1056 63 l 257
 1056 0 l 257
 180 0 l 257
 180 63 l 257
 348 63 l 257
816 720 m 257
 1025 947 l 257
 618 1316 l 257
 211 947 l 257
 420 720 l 257
 420 63 l 257
 816 63 l 257
 816 720 l 257
653 901 m 257
 653 202 l 257
 583 202 l 257
 583 901 l 257
 653 901 l 257
EndSplineSet
EndChar

StartChar: uni06F0
Encoding: 1776 1776 1005
GlifName: uni06F_0
Width: 906
VWidth: 0
GlyphClass: 2
Flags: HW
LayerCount: 2
Fore
SplineSet
452 638 m 256
 346 638 296 570 296 482 c 256
 296 394 346 324 452 324 c 256
 558 324 610 394 610 482 c 256
 610 569 558 638 452 638 c 256
452 784 m 256
 638 784 756 652 756 482 c 256
 756 314 640 178 452 178 c 256
 264 178 150 314 150 482 c 256
 150 650 265 784 452 784 c 256
EndSplineSet
PairPos2: "'kern' Horizontal Kerning in Arabic lookup 7 subtable" uni06F7 dx=-167 dy=0 dh=-167 dv=0 dx=0 dy=0 dh=0 dv=0
PairPos2: "'kern' Horizontal Kerning in Arabic lookup 7 subtable" uni06F3 dx=-111 dy=0 dh=-111 dv=0 dx=0 dy=0 dh=0 dv=0
PairPos2: "'kern' Horizontal Kerning in Arabic lookup 7 subtable" uni06F2 dx=-111 dy=0 dh=-111 dv=0 dx=0 dy=0 dh=0 dv=0
PairPos2: "'kern' Horizontal Kerning in Arabic lookup 7 subtable" uni06F1 dx=56 dy=0 dh=56 dv=0 dx=0 dy=0 dh=0 dv=0
Substitution2: "'tnum' Tabular Numbers lookup 22 subtable" uni06F0.tnum
EndChar

StartChar: uni06F4
Encoding: 1780 1780 1010
GlifName: uni06F_4
Width: 1210
VWidth: 0
GlyphClass: 2
Flags: HW
LayerCount: 2
Fore
SplineSet
850 1413 m 256
 917 1413 993 1396 1071 1364 c 257
 1019 1194 l 257
 961 1218 892 1232 830 1232 c 256
 656 1232 558 1104 554 902 c 257
 600 818 715 781 833 781 c 256
 917 781 1002 800 1066 838 c 257
 1112 674 l 257
 1019 628 924 605 832 605 c 256
 672 605 526 682 440 826 c 257
 510 573 530 304 530 0 c 257
 346 0 l 257
 346 516 286 896 106 1346 c 257
 288 1410 l 257
 340 1263 400 1113 460 1008 c 257
 487 1259 631 1413 850 1413 c 256
EndSplineSet
PairPos2: "'kern' Horizontal Kerning in Arabic lookup 7 subtable" uni06F8 dx=-56 dy=0 dh=-56 dv=0 dx=0 dy=0 dh=0 dv=0
Substitution2: "'tnum' Tabular Numbers lookup 22 subtable" uni06F4.tnum
Substitution2: "'locl' Localized Forms in Arabic lookup 5 subtable" uni0664.urdu
EndChar

StartChar: uni06F5
Encoding: 1781 1781 1012
GlifName: uni06F_5
Width: 1400
VWidth: 0
GlyphClass: 2
Flags: HW
LayerCount: 2
Fore
SplineSet
706 171 m 257
 674 64 594 -4 464 -4 c 256
 278 -4 146 131 146 379 c 256
 146 619 250 902 574 1172 c 257
 540 1200 486 1244 449 1270 c 257
 549 1410 l 257
 617 1363 678 1315 744 1259 c 256
 1082 969 1256 679 1256 377 c 256
 1256 125 1124 -4 950 -4 c 256
 824 -4 738 63 706 171 c 257
641 425 m 257
 767 425 l 257
 770 369 l 258
 774 247 821 180 932 180 c 256
 1012 180 1086 222 1086 380 c 256
 1086 586 968 813 684 1067 c 257
 404 837 319 581 319 404 c 256
 319 236 392 180 482 180 c 256
 588 180 634 250 638 366 c 258
 641 425 l 257
EndSplineSet
PairPos2: "'kern' Horizontal Kerning in Arabic lookup 7 subtable" uni06F7 dx=-111 dy=0 dh=-111 dv=0 dx=0 dy=0 dh=0 dv=0
PairPos2: "'kern' Horizontal Kerning in Arabic lookup 7 subtable" uni06F3 dx=-56 dy=0 dh=-56 dv=0 dx=0 dy=0 dh=0 dv=0
PairPos2: "'kern' Horizontal Kerning in Arabic lookup 7 subtable" uni06F2 dx=-56 dy=0 dh=-56 dv=0 dx=0 dy=0 dh=0 dv=0
PairPos2: "'kern' Horizontal Kerning in Arabic lookup 7 subtable" uni06F1 dx=56 dy=0 dh=56 dv=0 dx=0 dy=0 dh=0 dv=0
Substitution2: "'tnum' Tabular Numbers lookup 22 subtable" uni06F5.tnum
EndChar

StartChar: uni06F6
Encoding: 1782 1782 1014
GlifName: uni06F_6
Width: 1162
VWidth: 0
GlyphClass: 2
Flags: HW
LayerCount: 2
Fore
SplineSet
622 618 m 257
 364 606 172 743 172 967 c 256
 172 1244 395 1407 619 1407 c 256
 744 1407 855 1366 947 1278 c 257
 856 1140 l 257
 797 1198 713 1226 625 1226 c 256
 487 1226 350 1140 350 972 c 256
 350 829 471 756 649 756 c 256
 754 756 854 788 962 822 c 257
 995 834 l 257
 1064 660 l 257
 1041 654 l 257
 710 553 484 288 276 -36 c 257
 126 70 l 257
 250 286 441 516 622 618 c 257
EndSplineSet
Substitution2: "'tnum' Tabular Numbers lookup 22 subtable" uni0666.tnum
Substitution2: "'locl' Localized Forms in Arabic lookup 5 subtable" uni0666
EndChar

StartChar: uni1D00
Encoding: 7424 7424 1327
GlifName: uni1D_00
Width: 995
VWidth: 0
GlyphClass: 2
Flags: HW
LayerCount: 2
Fore
SplineSet
723 267 m 257
 270 267 l 257
 308 386 l 257
 686 386 l 257
 723 267 l 257
196 0 m 257
 8 0 l 257
 382 1044 l 257
 602 1044 l 257
 978 0 l 257
 790 0 l 257
 492 878 l 257
 196 0 l 257
EndSplineSet
EndChar

StartChar: uni1D01
Encoding: 7425 7425 1328
GlifName: uni1D_01
Width: 1251
VWidth: 0
GlyphClass: 2
Flags: HW
LayerCount: 2
Fore
SplineSet
322 386 m 257
 530 386 l 257
 530 876 l 257
 492 876 l 257
 322 386 l 257
196 0 m 257
 8 0 l 257
 382 1044 l 257
 1180 1044 l 257
 1180 894 l 257
 712 894 l 257
 712 585 l 257
 1134 585 l 257
 1134 458 l 257
 712 458 l 257
 712 150 l 257
 1180 150 l 257
 1180 0 l 257
 530 0 l 257
 530 267 l 257
 286 267 l 257
 196 0 l 257
EndSplineSet
EndChar

StartChar: uni1D04
Encoding: 7428 7428 1329
GlifName: uni1D_04
Width: 1076
VWidth: 0
GlyphClass: 2
Flags: HW
LayerCount: 2
Fore
SplineSet
566 1055 m 256
 812 1055 958 892 984 722 c 257
 824 710 l 257
 794 814 708 906 568 906 c 256
 371 906 276 749 276 522 c 256
 276 296 370 138 566 138 c 256
 707 138 794 230 824 334 c 257
 984 322 l 257
 958 152 812 -11 568 -11 c 256
 274 -11 106 187 106 522 c 256
 106 857 274 1055 566 1055 c 256
EndSplineSet
EndChar

StartChar: uni1D05
Encoding: 7429 7429 1330
GlifName: uni1D_05
Width: 1074
VWidth: 0
GlyphClass: 2
Flags: HW
LayerCount: 2
Fore
SplineSet
147 1044 m 257
 525 1044 l 258
 834 1044 986 830 986 522 c 256
 986 214 834 0 525 0 c 258
 147 0 l 257
 147 1044 l 257
330 914 m 257
 330 136 l 257
 510 136 l 258
 711 136 808 274 808 522 c 256
 808 769 711 914 510 914 c 258
 330 914 l 257
EndSplineSet
EndChar

StartChar: uni1D07
Encoding: 7431 7431 1331
GlifName: uni1D_07
Width: 868
VWidth: 0
GlyphClass: 2
Flags: HW
LayerCount: 2
Fore
SplineSet
798 149 m 257
 798 0 l 257
 147 0 l 257
 147 1044 l 257
 798 1044 l 257
 798 894 l 257
 330 894 l 257
 330 585 l 257
 751 585 l 257
 751 458 l 257
 330 458 l 257
 330 149 l 257
 798 149 l 257
EndSplineSet
EndChar

StartChar: uni1D0A
Encoding: 7434 7434 1332
GlifName: uni1D_0A_
Width: 696
VWidth: 0
GlyphClass: 2
Flags: HW
LayerCount: 2
Fore
SplineSet
70 20 m 257
 98 146 l 257
 129 138 172 132 210 132 c 256
 312 132 366 178 366 278 c 258
 366 1044 l 257
 550 1044 l 257
 550 258 l 258
 550 66 420 -10 254 -10 c 256
 192 -10 126 0 70 20 c 257
EndSplineSet
EndChar

StartChar: uni1D0B
Encoding: 7435 7435 1333
GlifName: uni1D_0B_
Width: 1015
VWidth: 0
GlyphClass: 2
Flags: HW
LayerCount: 2
Fore
SplineSet
147 1044 m 257
 330 1044 l 257
 330 536 l 257
 766 1044 l 257
 984 1044 l 257
 545 522 l 257
 985 0 l 257
 766 0 l 257
 434 391 l 257
 330 270 l 257
 330 0 l 257
 147 0 l 257
 147 1044 l 257
EndSplineSet
EndChar

StartChar: uni1D0D
Encoding: 7437 7437 1334
GlifName: uni1D_0D_
Width: 1480
VWidth: 0
GlyphClass: 2
Flags: HW
LayerCount: 2
Fore
SplineSet
330 0 m 257
 147 0 l 257
 147 1044 l 257
 384 1044 l 257
 725 166 l 257
 1096 1044 l 257
 1334 1044 l 257
 1334 0 l 257
 1150 0 l 257
 1150 799 l 257
 804 0 l 257
 646 0 l 257
 330 794 l 257
 330 0 l 257
EndSplineSet
EndChar

StartChar: uni1D0F
Encoding: 7439 7439 1335
GlifName: uni1D_0F_
Width: 1099
VWidth: 0
GlyphClass: 2
Flags: HW
LayerCount: 2
Fore
SplineSet
550 1055 m 256
 868 1055 1019 834 1019 522 c 256
 1019 210 867 -11 550 -11 c 256
 233 -11 80 210 80 522 c 256
 80 834 232 1055 550 1055 c 256
550 906 m 256
 350 906 248 751 248 522 c 256
 248 292 349 137 550 137 c 256
 751 137 852 293 852 522 c 256
 852 752 750 906 550 906 c 256
EndSplineSet
EndChar

StartChar: uni1D18
Encoding: 7448 7448 1336
GlifName: uni1D_18
Width: 992
VWidth: 0
GlyphClass: 2
Flags: HW
LayerCount: 2
Fore
SplineSet
330 0 m 257
 147 0 l 257
 147 1044 l 257
 570 1044 l 258
 784 1044 912 922 912 730 c 256
 912 537 784 408 570 408 c 258
 330 408 l 257
 330 0 l 257
330 913 m 257
 330 538 l 257
 543 538 l 258
 673 538 729 608 729 730 c 256
 729 852 671 913 543 913 c 258
 330 913 l 257
EndSplineSet
EndChar

StartChar: uni1D1B
Encoding: 7451 7451 1337
GlifName: uni1D_1B_
Width: 1013
VWidth: 0
GlyphClass: 2
Flags: HW
LayerCount: 2
Fore
SplineSet
599 0 m 257
 414 0 l 257
 414 886 l 257
 64 886 l 257
 64 1044 l 257
 950 1044 l 257
 950 886 l 257
 599 886 l 257
 599 0 l 257
EndSplineSet
EndChar

StartChar: uni1D1C
Encoding: 7452 7452 1338
GlifName: uni1D_1C_
Width: 1070
VWidth: 0
GlyphClass: 2
Flags: HW
LayerCount: 2
Fore
SplineSet
785 1044 m 257
 958 1044 l 257
 958 388 l 258
 958 129 790 -10 535 -10 c 256
 280 -10 112 129 112 388 c 258
 112 1044 l 257
 285 1044 l 257
 285 399 l 258
 285 237 367 140 535 140 c 256
 703 140 785 237 785 399 c 258
 785 1044 l 257
EndSplineSet
EndChar

StartChar: uni1D20
Encoding: 7456 7456 1339
GlifName: uni1D_20
Width: 986
VWidth: 0
GlyphClass: 2
Flags: HW
LayerCount: 2
Fore
SplineSet
196 1044 m 257
 494 166 l 257
 790 1044 l 257
 978 1044 l 257
 605 0 l 257
 384 0 l 257
 8 1044 l 257
 196 1044 l 257
EndSplineSet
EndChar

StartChar: uni1D21
Encoding: 7457 7457 1340
GlifName: uni1D_21
Width: 1527
VWidth: 0
GlyphClass: 2
Flags: HW
LayerCount: 2
Fore
SplineSet
40 1044 m 257
 215 1044 l 257
 446 200 l 257
 676 1044 l 257
 850 1044 l 257
 1082 200 l 257
 1310 1044 l 257
 1487 1044 l 257
 1207 0 l 257
 991 0 l 257
 764 807 l 257
 532 0 l 257
 320 0 l 257
 40 1044 l 257
EndSplineSet
EndChar

StartChar: uni1D22
Encoding: 7458 7458 1341
GlifName: uni1D_22
Width: 993
VWidth: 0
GlyphClass: 2
Flags: HW
LayerCount: 2
Fore
SplineSet
98 1044 m 257
 892 1044 l 257
 892 908 l 257
 295 156 l 257
 892 156 l 257
 892 0 l 257
 98 0 l 257
 98 138 l 257
 694 888 l 257
 98 888 l 257
 98 1044 l 257
EndSplineSet
EndChar

StartChar: uni1E9E
Encoding: 7838 7838 1495
GlifName: uni1E_9E_
Width: 1245
VWidth: 0
GlyphClass: 2
Flags: HW
LayerCount: 2
Fore
SplineSet
147 0 m 257
 147 935 l 258
 147 1247 302 1444 604 1445 c 256
 834 1445 1034 1319 1034 1079 c 256
 1034 917 956 809 816 760 c 257
 1012 719 1158 609 1158 356 c 256
 1158 123 1024 -10 802 -10 c 256
 592 -10 467 101 467 317 c 257
 590 317 l 257
 590 197 666 140 780 140 c 256
 918 140 977 241 977 375 c 256
 977 611 794 686 572 686 c 257
 572 832 l 257
 786 832 854 955 854 1067 c 256
 854 1221 734 1292 604 1292 c 256
 420 1292 332 1162 332 956 c 258
 332 0 l 257
 147 0 l 257
EndSplineSet
EndChar

StartChar: uni200C
Encoding: 8204 8204 1584
GlifName: uni200C_
Width: 0
VWidth: 0
GlyphClass: 2
Flags: H
LayerCount: 2
Fore
SplineSet
41 1366 m 257
 41 -291 l 257
 -41 -291 l 257
 -41 1366 l 257
 41 1366 l 257
EndSplineSet
EndChar

StartChar: uni200D
Encoding: 8205 8205 1585
GlifName: uni200D_
Width: 0
VWidth: 0
GlyphClass: 2
Flags: H
LayerCount: 2
Fore
SplineSet
176 -289 m 257
 44 -158 l 257
 104 -98 l 257
 236 -229 l 257
 176 -289 l 257
-104 -8 m 257
 -236 123 l 257
 -176 183 l 257
 -44 52 l 257
 -104 -8 l 257
236 123 m 257
 -176 -289 l 257
 -236 -229 l 257
 176 183 l 257
 236 123 l 257
176 1024 m 257
 44 1156 l 257
 104 1216 l 257
 236 1084 l 257
 176 1024 l 257
-104 1304 m 257
 -236 1436 l 257
 -176 1496 l 257
 -44 1364 l 257
 -104 1304 l 257
236 1436 m 257
 -176 1024 l 257
 -236 1084 l 257
 176 1496 l 257
 236 1436 l 257
-41 1049 m 257
 41 1049 l 257
 41 158 l 257
 -41 158 l 257
 -41 1049 l 257
EndSplineSet
EndChar

StartChar: uni200E
Encoding: 8206 8206 1586
GlifName: uni200E_
Width: 0
VWidth: 0
GlyphClass: 2
Flags: H
LayerCount: 2
Fore
SplineSet
290 1035 m 257
 230 1095 l 257
 406 1271 l 257
 230 1447 l 257
 290 1507 l 257
 526 1271 l 257
 290 1035 l 257
291 -298 m 257
 231 -238 l 257
 408 -62 l 257
 231 114 l 257
 291 174 l 257
 526 -62 l 257
 291 -298 l 257
41 49 m 258
 41 7 70 -22 112 -22 c 258
 255 -22 l 257
 255 -104 l 257
 112 -104 l 258
 26 -104 -41 -37 -41 49 c 258
 -41 1159 l 258
 -41 1245 26 1312 112 1312 c 258
 255 1312 l 257
 255 1230 l 257
 112 1230 l 258
 70 1230 41 1201 41 1159 c 258
 41 49 l 258
EndSplineSet
EndChar

StartChar: uni200F
Encoding: 8207 8207 1587
GlifName: uni200F_
Width: 0
VWidth: 0
GlyphClass: 2
Flags: H
LayerCount: 2
Fore
SplineSet
-290 1035 m 257
 -526 1271 l 257
 -290 1507 l 257
 -230 1447 l 257
 -406 1271 l 257
 -230 1095 l 257
 -290 1035 l 257
-291 -298 m 257
 -526 -62 l 257
 -291 174 l 257
 -231 114 l 257
 -408 -62 l 257
 -231 -238 l 257
 -291 -298 l 257
-41 49 m 258
 -41 1159 l 258
 -41 1201 -70 1230 -112 1230 c 258
 -255 1230 l 257
 -255 1312 l 257
 -112 1312 l 258
 -26 1312 41 1245 41 1159 c 258
 41 49 l 258
 41 -37 -26 -104 -112 -104 c 258
 -255 -104 l 257
 -255 -22 l 257
 -112 -22 l 258
 -70 -22 -41 7 -41 49 c 258
EndSplineSet
EndChar

StartChar: uni202A
Encoding: 8234 8234 1592
GlifName: uni202A_
Width: 0
VWidth: 0
GlyphClass: 2
Flags: H
LayerCount: 2
Fore
SplineSet
-64 1014 m 257
 -124 1073 l 257
 52 1250 l 257
 -124 1426 l 257
 -64 1485 l 257
 172 1250 l 257
 -64 1014 l 257
-44 878 m 257
 44 878 l 257
 44 48 l 257
 -44 48 l 257
 -44 878 l 257
EndSplineSet
EndChar

StartChar: uni202B
Encoding: 8235 8235 1593
GlifName: uni202B_
Width: 0
VWidth: 0
GlyphClass: 2
Flags: H
LayerCount: 2
Fore
SplineSet
64 1014 m 257
 -172 1250 l 257
 64 1485 l 257
 124 1426 l 257
 -52 1250 l 257
 124 1073 l 257
 64 1014 l 257
-44 878 m 257
 44 878 l 257
 44 48 l 257
 -44 48 l 257
 -44 878 l 257
EndSplineSet
EndChar

StartChar: uni202C
Encoding: 8236 8236 1594
GlifName: uni202C_
Width: 0
VWidth: 0
GlyphClass: 2
Flags: H
LayerCount: 2
Fore
SplineSet
-236 1166 m 257
 0 1402 l 257
 236 1166 l 257
 176 1106 l 257
 0 1282 l 257
 -176 1106 l 257
 -236 1166 l 257
-44 910 m 257
 44 910 l 257
 44 48 l 257
 -44 48 l 257
 -44 910 l 257
EndSplineSet
EndChar

StartChar: uni202D
Encoding: 8237 8237 1595
GlifName: uni202D_
Width: 0
VWidth: 0
GlyphClass: 2
Flags: H
LayerCount: 2
Fore
SplineSet
80 1014 m 257
 21 1073 l 257
 197 1250 l 257
 21 1426 l 257
 80 1485 l 257
 316 1250 l 257
 80 1014 l 257
-164 1014 m 257
 -224 1073 l 257
 -48 1250 l 257
 -224 1426 l 257
 -164 1485 l 257
 71 1250 l 257
 -164 1014 l 257
-44 878 m 257
 44 878 l 257
 44 48 l 257
 -44 48 l 257
 -44 878 l 257
EndSplineSet
EndChar

StartChar: uni202E
Encoding: 8238 8238 1596
GlifName: uni202E_
Width: 0
VWidth: 0
GlyphClass: 2
Flags: H
LayerCount: 2
Fore
SplineSet
-80 1014 m 257
 -316 1250 l 257
 -80 1485 l 257
 -21 1426 l 257
 -197 1250 l 257
 -21 1073 l 257
 -80 1014 l 257
164 1014 m 257
 -71 1250 l 257
 164 1485 l 257
 224 1426 l 257
 48 1250 l 257
 224 1073 l 257
 164 1014 l 257
-44 878 m 257
 44 878 l 257
 44 48 l 257
 -44 48 l 257
 -44 878 l 257
EndSplineSet
EndChar

StartChar: uni2035
Encoding: 8245 8245 1598
GlifName: uni2035
Width: 456
VWidth: 0
GlyphClass: 2
Flags: HW
LayerCount: 2
Fore
SplineSet
239 1396 m 257
 346 945 l 257
 246 945 l 257
 111 1396 l 257
 239 1396 l 257
EndSplineSet
EndChar

StartChar: uni2070
Encoding: 8304 8304 1601
GlifName: uni2070
Width: 730
VWidth: 0
GlyphClass: 2
Flags: HW
LayerCount: 2
Fore
SplineSet
366 1709 m 256
 260 1709 227 1618 227 1464 c 256
 227 1310 260 1217 366 1217 c 256
 472 1217 504 1310 504 1464 c 256
 504 1618 472 1709 366 1709 c 256
366 1804 m 256
 562 1804 607 1634 607 1464 c 256
 607 1294 562 1122 366 1122 c 256
 170 1122 124 1294 124 1464 c 256
 124 1634 170 1804 366 1804 c 256
EndSplineSet
EndChar

StartChar: uni2074
Encoding: 8308 8308 1602
GlifName: uni2074
Width: 790
VWidth: 0
GlyphClass: 2
Flags: HW
LayerCount: 2
Fore
SplineSet
458 1340 m 257
 458 1652 l 257
 220 1340 l 257
 458 1340 l 257
458 1255 m 257
 124 1255 l 257
 124 1334 l 257
 466 1794 l 257
 560 1794 l 257
 560 1340 l 257
 666 1340 l 257
 666 1255 l 257
 560 1255 l 257
 560 1132 l 257
 458 1132 l 257
 458 1255 l 257
EndSplineSet
EndChar

StartChar: uni2075
Encoding: 8309 8309 1603
GlifName: uni2075
Width: 694
VWidth: 0
GlyphClass: 2
Flags: HW
LayerCount: 2
Fore
SplineSet
124 1324 m 257
 226 1324 l 257
 226 1252 263 1212 343 1212 c 256
 425 1212 470 1259 470 1355 c 256
 470 1447 423 1497 337 1497 c 256
 283 1497 239 1468 197 1428 c 257
 130 1465 l 257
 165 1794 l 257
 562 1794 l 257
 562 1708 l 257
 253 1708 l 257
 234 1550 l 257
 270 1570 312 1583 356 1583 c 256
 486 1583 570 1497 570 1361 c 256
 570 1210 480 1122 338 1122 c 256
 206 1122 124 1200 124 1324 c 257
EndSplineSet
EndChar

StartChar: uni2076
Encoding: 8310 8310 1604
GlifName: uni2076
Width: 694
VWidth: 0
GlyphClass: 2
Flags: HW
LayerCount: 2
Fore
SplineSet
361 1804 m 256
 480 1804 560 1728 560 1620 c 257
 472 1620 l 257
 472 1671 440 1716 359 1716 c 256
 255 1716 222 1614 220 1502 c 257
 258 1546 307 1568 368 1568 c 256
 486 1568 570 1481 570 1353 c 256
 570 1215 489 1122 354 1122 c 256
 182 1122 124 1248 124 1435 c 256
 124 1663 196 1804 361 1804 c 256
352 1477 m 256
 304 1477 259 1462 221 1406 c 257
 221 1280 260 1212 354 1212 c 256
 426 1212 469 1262 469 1346 c 256
 469 1426 424 1477 352 1477 c 256
EndSplineSet
EndChar

StartChar: uni2077
Encoding: 8311 8311 1605
GlifName: uni2077
Width: 719
VWidth: 0
GlyphClass: 2
Flags: HW
LayerCount: 2
Fore
SplineSet
595 1710 m 257
 465 1557 356 1361 356 1132 c 257
 257 1132 l 257
 257 1348 358 1558 472 1702 c 257
 124 1702 l 257
 124 1794 l 257
 576 1794 l 257
 595 1710 l 257
EndSplineSet
EndChar

StartChar: uni2078
Encoding: 8312 8312 1606
GlifName: uni2078
Width: 704
VWidth: 0
GlyphClass: 2
Flags: HW
LayerCount: 2
Fore
SplineSet
352 1804 m 256
 473 1804 555 1722 555 1624 c 256
 555 1566 526 1511 476 1476 c 257
 542 1435 581 1374 581 1308 c 256
 581 1204 496 1122 352 1122 c 256
 208 1122 124 1204 124 1309 c 256
 124 1375 162 1438 228 1478 c 257
 180 1513 150 1566 150 1624 c 256
 150 1723 230 1804 352 1804 c 256
352 1720 m 256
 291 1720 250 1678 250 1616 c 256
 250 1552 292 1513 352 1513 c 256
 412 1513 454 1552 454 1616 c 256
 454 1679 412 1720 352 1720 c 256
350 1432 m 256
 278 1432 228 1386 228 1318 c 256
 228 1248 274 1210 352 1210 c 256
 430 1210 476 1246 476 1316 c 256
 476 1384 423 1432 350 1432 c 256
EndSplineSet
EndChar

StartChar: uni2079
Encoding: 8313 8313 1607
GlifName: uni2079
Width: 694
VWidth: 0
GlyphClass: 2
Flags: HW
LayerCount: 2
Fore
SplineSet
473 1520 m 257
 473 1646 434 1714 340 1714 c 256
 268 1714 226 1664 226 1580 c 256
 226 1500 270 1450 342 1450 c 256
 390 1450 435 1464 473 1520 c 257
475 1425 m 257
 437 1381 387 1358 326 1358 c 256
 208 1358 124 1445 124 1573 c 256
 124 1711 205 1804 340 1804 c 256
 512 1804 570 1678 570 1491 c 256
 570 1263 498 1122 333 1122 c 256
 214 1122 134 1198 134 1306 c 257
 223 1306 l 257
 223 1255 255 1211 336 1211 c 256
 440 1211 473 1313 475 1425 c 257
EndSplineSet
EndChar

StartChar: uni2196
Encoding: 8598 8598 1629
GlifName: uni2196
Width: 1163
VWidth: 0
GlyphClass: 2
Flags: HW
LayerCount: 2
Fore
SplineSet
940 83 m 257
 284 738 l 257
 256 784 l 257
 256 380 l 257
 150 380 l 257
 150 946 l 257
 717 946 l 257
 717 840 l 257
 312 840 l 257
 358 812 l 257
 1014 157 l 257
 940 83 l 257
EndSplineSet
EndChar

StartChar: uni2197
Encoding: 8599 8599 1630
GlifName: uni2197
Width: 1163
VWidth: 0
GlyphClass: 2
Flags: HW
LayerCount: 2
Fore
SplineSet
150 157 m 257
 806 812 l 257
 852 840 l 257
 446 840 l 257
 446 946 l 257
 1014 946 l 257
 1014 380 l 257
 907 380 l 257
 907 784 l 257
 879 738 l 257
 224 83 l 257
 150 157 l 257
EndSplineSet
EndChar

StartChar: uni2198
Encoding: 8600 8600 1631
GlifName: uni2198
Width: 1163
VWidth: 0
GlyphClass: 2
Flags: HW
LayerCount: 2
Fore
SplineSet
224 946 m 257
 879 291 l 257
 907 244 l 257
 907 650 l 257
 1014 650 l 257
 1014 83 l 257
 446 83 l 257
 446 190 l 257
 852 190 l 257
 806 218 l 257
 150 872 l 257
 224 946 l 257
EndSplineSet
EndChar

StartChar: uni2199
Encoding: 8601 8601 1632
GlifName: uni2199
Width: 1163
VWidth: 0
GlyphClass: 2
Flags: HW
LayerCount: 2
Fore
SplineSet
1014 872 m 257
 358 218 l 257
 312 190 l 257
 717 190 l 257
 717 83 l 257
 150 83 l 257
 150 650 l 257
 256 650 l 257
 256 244 l 257
 284 291 l 257
 940 946 l 257
 1014 872 l 257
EndSplineSet
EndChar

StartChar: uni220E
Encoding: 8718 8718 1633
GlifName: uni220E_
Width: 1064
VWidth: 0
GlyphClass: 2
Flags: HW
LayerCount: 2
Fore
SplineSet
190 1202 m 257
 876 1202 l 257
 876 0 l 257
 190 0 l 257
 190 1202 l 257
EndSplineSet
EndChar

StartChar: uni25CC
Encoding: 9676 9676 1634
GlifName: uni25C_C_
Width: 1702
VWidth: 0
GlyphClass: 2
Flags: HW
LayerCount: 2
Fore
SplineSet
786 91 m 256
 786 139 803 156 851 156 c 256
 899 156 916 139 916 91 c 256
 916 43 899 26 851 26 c 256
 803 26 786 43 786 91 c 256
786 1447 m 256
 786 1495 803 1512 851 1512 c 256
 899 1512 916 1495 916 1447 c 256
 916 1399 899 1382 851 1382 c 256
 803 1382 786 1399 786 1447 c 256
1529 704 m 256
 1481 704 1464 721 1464 769 c 256
 1464 817 1481 834 1529 834 c 256
 1577 834 1594 817 1594 769 c 256
 1594 721 1577 704 1529 704 c 256
173 704 m 256
 125 704 108 721 108 769 c 256
 108 817 125 834 173 834 c 256
 221 834 238 817 238 769 c 256
 238 721 221 704 173 704 c 256
1264 290 m 256
 1264 338 1282 356 1330 356 c 256
 1378 356 1396 338 1396 290 c 256
 1396 242 1378 224 1330 224 c 256
 1282 224 1264 242 1264 290 c 256
306 1248 m 256
 306 1296 324 1314 372 1314 c 256
 420 1314 438 1296 438 1248 c 256
 438 1200 420 1182 372 1182 c 256
 324 1182 306 1200 306 1248 c 256
1330 1182 m 256
 1282 1182 1264 1200 1264 1248 c 256
 1264 1296 1282 1314 1330 1314 c 256
 1378 1314 1396 1296 1396 1248 c 256
 1396 1200 1378 1182 1330 1182 c 256
372 224 m 256
 324 224 306 242 306 290 c 256
 306 338 324 356 372 356 c 256
 420 356 438 338 438 290 c 256
 438 242 420 224 372 224 c 256
526 143 m 256
 526 191 544 208 592 208 c 256
 640 208 658 191 658 143 c 256
 658 95 640 76 592 76 c 256
 544 76 526 95 526 143 c 256
1110 1462 m 256
 1158 1462 1176 1443 1176 1395 c 256
 1176 1347 1158 1330 1110 1330 c 256
 1062 1330 1044 1347 1044 1395 c 256
 1044 1443 1062 1462 1110 1462 c 256
1477 444 m 256
 1429 444 1412 462 1412 510 c 256
 1412 558 1429 576 1477 576 c 256
 1525 576 1544 558 1544 510 c 256
 1544 462 1525 444 1477 444 c 256
158 1028 m 256
 158 1076 177 1094 225 1094 c 256
 273 1094 290 1076 290 1028 c 256
 290 980 273 962 225 962 c 256
 177 962 158 980 158 1028 c 256
1044 143 m 256
 1044 191 1062 208 1110 208 c 256
 1158 208 1176 191 1176 143 c 256
 1176 95 1158 76 1110 76 c 256
 1062 76 1044 95 1044 143 c 256
526 1395 m 256
 526 1443 544 1462 592 1462 c 256
 640 1462 658 1443 658 1395 c 256
 658 1347 640 1330 592 1330 c 256
 544 1330 526 1347 526 1395 c 256
1477 962 m 256
 1429 962 1412 980 1412 1028 c 256
 1412 1076 1429 1094 1477 1094 c 256
 1525 1094 1544 1076 1544 1028 c 256
 1544 980 1525 962 1477 962 c 256
225 444 m 256
 177 444 158 462 158 510 c 256
 158 558 177 576 225 576 c 256
 273 576 290 558 290 510 c 256
 290 462 273 444 225 444 c 256
EndSplineSet
EndChar

StartChar: uniA729
Encoding: 42793 42793 1636
GlifName: uniA_729
Width: 1750
VWidth: 0
GlyphClass: 2
Flags: HW
LayerCount: 2
Fore
SplineSet
688 146 m 257
 714 20 l 257
 658 0 593 -10 531 -10 c 256
 365 -10 230 66 230 258 c 258
 230 1333 l 257
 413 1333 l 257
 413 278 l 258
 413 178 474 132 576 132 c 256
 614 132 657 138 688 146 c 257
EndSplineSet
Refer: 1669 57354 N 1 0 0 1 -24 418 2
Refer: 560 658 N 1 0 0 1 639 0 2
EndChar

StartChar: uniA730
Encoding: 42800 42800 1637
GlifName: uniA_730
Width: 868
VWidth: 0
GlyphClass: 2
Flags: HW
LayerCount: 2
Fore
SplineSet
147 0 m 257
 147 1044 l 257
 798 1044 l 257
 798 894 l 257
 330 894 l 257
 330 564 l 257
 751 564 l 257
 751 438 l 257
 330 438 l 257
 330 0 l 257
 147 0 l 257
EndSplineSet
EndChar

StartChar: uniA731
Encoding: 42801 42801 1638
GlifName: uniA_731
Width: 918
VWidth: 0
GlyphClass: 2
Flags: HW
LayerCount: 2
Fore
SplineSet
79 313 m 257
 242 313 l 257
 242 185 339 134 470 134 c 256
 584 134 674 174 674 280 c 256
 674 386 593 412 437 460 c 256
 269 510 102 568 102 764 c 256
 102 944 250 1055 444 1055 c 256
 652 1055 821 940 821 741 c 257
 657 742 l 257
 657 854 568 910 454 910 c 256
 340 910 267 864 267 766 c 256
 267 670 347 636 495 594 c 256
 677 543 840 485 840 284 c 256
 840 91 675 -10 475 -10 c 256
 256 -10 79 95 79 313 c 257
EndSplineSet
EndChar

StartChar: uniA733
Encoding: 42803 42803 1640
GlifName: uniA_733
Width: 1748
VWidth: 0
GlyphClass: 2
Flags: HW
LayerCount: 2
Fore
SplineSet
526 1054 m 256
 779 1054 938 933 938 725 c 258
 938 281 l 257
 754 280 l 257
 754 725 l 258
 754 851 659 908 520 908 c 256
 381 908 284 852 284 725 c 257
 124 725 l 257
 117 937 274 1054 526 1054 c 256
1188 1054 m 256
 1441 1054 1608 933 1608 725 c 258
 1608 253 l 258
 1608 165 1635 120 1729 120 c 257
 1730 -0 l 257
 1550 -17 1424 56 1424 252 c 258
 1424 725 l 258
 1424 851 1321 908 1182 908 c 256
 1043 908 938 852 938 725 c 257
 777 725 l 257
 770 937 936 1054 1188 1054 c 256
EndSplineSet
Refer: 1670 57355 N 1 0 0 1 676 0 2
Refer: 1670 57355 N 1 0 0 1 -5 0 2
EndChar

StartChar: uniA735
Encoding: 42805 42805 1642
GlifName: uniA_735
Width: 1799
VWidth: 0
GlyphClass: 2
Flags: HW
LayerCount: 2
Fore
SplineSet
754 274 m 257
 754 725 l 258
 754 851 658 908 519 908 c 256
 380 908 284 852 284 725 c 257
 123 725 l 257
 116 937 274 1054 526 1054 c 256
 779 1054 938 933 938 725 c 258
 938 273 l 257
 754 274 l 257
98 273 m 256
 98 499 284 587 502 587 c 258
 920 587 l 257
 920 476 l 257
 512 477 l 258
 371 477 264 424 264 294 c 256
 264 196 315 129 453 129 c 256
 615 129 727 249 762 301 c 257
 824 288 l 257
 784 189 650 -14 394 -14 c 256
 208 -14 98 89 98 273 c 256
EndSplineSet
Refer: 324 111 N 1 0 0 1 674 0 2
EndChar

StartChar: uniA736
Encoding: 42806 42806 1643
GlifName: uniA_736
Width: 1958
VWidth: 0
GlyphClass: 2
Flags: HW
LayerCount: 2
Fore
SplineSet
1620 1400 m 257
 1804 1400 l 257
 1804 528 l 258
 1804 196 1603 0 1262 0 c 257
 1178 164 l 257
 1262 164 l 258
 1494 164 1620 303 1620 529 c 258
 1620 1400 l 257
EndSplineSet
Refer: 0 65 N 1 0 0 1 0 0 2
EndChar

StartChar: uniA737
Encoding: 42807 42807 1644
GlifName: uniA_737
Width: 1774
VWidth: 0
GlyphClass: 2
Flags: HW
LayerCount: 2
Fore
SplineSet
123 725 m 257
 116 937 274 1054 526 1054 c 256
 779 1054 938 933 938 725 c 258
 938 408 l 258
 938 270 1013 169 1157 169 c 256
 1334 169 1422 315 1444 489 c 257
 1480 404 l 257
 1456 178 1324 -10 1082 -10 c 256
 872 -10 754 143 754 354 c 258
 754 725 l 258
 754 851 658 908 519 908 c 256
 380 908 284 852 284 725 c 257
 123 725 l 257
1444 1044 m 257
 1628 1044 l 257
 1628 0 l 257
 1452 0 l 257
 1444 288 l 257
 1444 1044 l 257
908 587 m 257
 908 476 l 257
 512 477 l 258
 371 477 264 424 264 294 c 256
 264 196 315 129 453 129 c 256
 615 129 727 249 762 301 c 257
 824 288 l 257
 784 189 650 -14 394 -14 c 256
 208 -14 98 89 98 273 c 256
 98 499 284 587 502 587 c 258
 908 587 l 257
EndSplineSet
EndChar

StartChar: uniA738
Encoding: 42808 42808 1645
GlifName: uniA_738
Width: 1810
VWidth: 0
GlyphClass: 2
Flags: HW
LayerCount: 2
Fore
SplineSet
390 522 m 257
 882 522 l 257
 637 1200 l 257
 390 522 l 257
340 374 m 257
 206 0 l 257
 10 0 l 257
 531 1396 l 257
 742 1396 l 257
 1174 196 l 257
 1605 1396 l 257
 1801 1396 l 257
 1280 0 l 257
 1066 0 l 257
 932 374 l 257
 340 374 l 257
EndSplineSet
EndChar

StartChar: uniA739
Encoding: 42809 42809 1646
GlifName: uniA_739
Width: 1657
VWidth: 0
GlyphClass: 2
Flags: HW
LayerCount: 2
Fore
SplineSet
123 725 m 257
 116 937 274 1054 526 1054 c 256
 731 1054 870 974 918 834 c 258
 1156 187 l 257
 1457 1044 l 257
 1651 1044 l 257
 1268 0 l 257
 1042 0 l 257
 745 788 l 258
 713 872 627 908 519 908 c 256
 380 908 284 852 284 725 c 257
 123 725 l 257
876 587 m 257
 876 476 l 257
 512 477 l 258
 371 477 264 424 264 294 c 256
 264 196 315 129 453 129 c 256
 615 129 727 249 762 301 c 257
 824 288 l 257
 784 189 650 -14 394 -14 c 256
 208 -14 98 89 98 273 c 256
 98 499 284 587 502 587 c 258
 876 587 l 257
EndSplineSet
EndChar

StartChar: uniA73A
Encoding: 42810 42810 1647
GlifName: uniA_73A_
Width: 1810
VWidth: 0
GlyphClass: 2
Flags: HW
LayerCount: 2
Fore
SplineSet
838 1022 m 257
 1512 1022 l 257
 1512 874 l 257
 838 874 l 257
 838 1022 l 257
390 522 m 257
 882 522 l 257
 637 1200 l 257
 390 522 l 257
340 374 m 257
 206 0 l 257
 10 0 l 257
 531 1396 l 257
 742 1396 l 257
 1174 196 l 257
 1605 1396 l 257
 1801 1396 l 257
 1280 0 l 257
 1066 0 l 257
 932 374 l 257
 340 374 l 257
EndSplineSet
EndChar

StartChar: uniA73B
Encoding: 42811 42811 1648
GlifName: uniA_73B_
Width: 1657
VWidth: 0
GlyphClass: 2
Flags: HW
LayerCount: 2
Fore
SplineSet
907 794 m 257
 1382 794 l 257
 1382 683 l 257
 932 683 l 257
 907 794 l 257
123 725 m 257
 116 937 274 1054 526 1054 c 256
 731 1054 870 974 918 834 c 258
 1156 187 l 257
 1457 1044 l 257
 1651 1044 l 257
 1268 0 l 257
 1042 0 l 257
 745 788 l 258
 713 872 627 908 519 908 c 256
 380 908 284 852 284 725 c 257
 123 725 l 257
876 587 m 257
 876 476 l 257
 512 477 l 258
 371 477 264 424 264 294 c 256
 264 196 315 129 453 129 c 256
 615 129 727 249 762 301 c 257
 824 288 l 257
 784 189 650 -14 394 -14 c 256
 208 -14 98 89 98 273 c 256
 98 499 284 587 502 587 c 258
 876 587 l 257
EndSplineSet
EndChar

StartChar: uniA73C
Encoding: 42812 42812 1649
GlifName: uniA_73C_
Width: 1779
VWidth: 0
GlyphClass: 2
Flags: HW
LayerCount: 2
Fore
SplineSet
648 1236 m 257
 390 522 l 257
 1071 522 l 257
 1071 603 l 257
 648 1236 l 257
531 1396 m 257
 755 1396 l 257
 1164 764 l 257
 1572 1396 l 257
 1784 1396 l 257
 1256 603 l 257
 1256 0 l 257
 1071 0 l 257
 1071 374 l 257
 340 374 l 257
 206 0 l 257
 10 0 l 257
 531 1396 l 257
EndSplineSet
EndChar

StartChar: uniA73D
Encoding: 42813 42813 1650
GlifName: uniA_73D_
Width: 1657
VWidth: 0
GlyphClass: 2
Flags: HW
LayerCount: 2
Fore
SplineSet
123 725 m 257
 116 937 274 1054 526 1054 c 256
 731 1054 870 974 918 834 c 258
 1156 187 l 257
 1457 1044 l 257
 1651 1044 l 257
 1094 -471 l 257
 880 -471 l 257
 1064 -28 l 257
 745 788 l 258
 713 872 627 908 519 908 c 256
 380 908 284 852 284 725 c 257
 123 725 l 257
876 587 m 257
 876 476 l 257
 512 477 l 258
 371 477 264 424 264 294 c 256
 264 196 315 129 453 129 c 256
 615 129 727 249 762 301 c 257
 824 288 l 257
 784 189 650 -14 394 -14 c 256
 208 -14 98 89 98 273 c 256
 98 499 284 587 502 587 c 258
 876 587 l 257
EndSplineSet
EndChar

StartChar: uniA760
Encoding: 42848 42848 1653
GlifName: uniA_760
Width: 2303
VWidth: 0
GlyphClass: 2
Flags: HW
LayerCount: 2
Fore
SplineSet
2096 1396 m 257
 2308 1396 l 257
 1779 603 l 257
 1779 0 l 257
 1595 0 l 257
 1595 603 l 257
 1192 1206 l 257
 741 0 l 257
 529 0 l 257
 10 1396 l 257
 206 1396 l 257
 635 196 l 257
 1066 1396 l 257
 1279 1396 l 257
 1688 764 l 257
 2096 1396 l 257
EndSplineSet
EndChar

StartChar: uniA761
Encoding: 42849 42849 1654
GlifName: uniA_761
Width: 1820
VWidth: 0
GlyphClass: 2
Flags: HW
LayerCount: 2
Fore
SplineSet
1010 1044 m 257
 1318 187 l 257
 1620 1044 l 257
 1814 1044 l 257
 1257 -471 l 257
 1042 -471 l 257
 1227 -28 l 257
 914 781 l 257
 624 0 l 257
 398 0 l 257
 6 1044 l 257
 202 1044 l 257
 512 187 l 257
 813 1044 l 257
 1010 1044 l 257
EndSplineSet
EndChar

StartChar: uniAB50
Encoding: 43856 43856 1657
GlifName: uniA_B_50
Width: 1852
VWidth: 0
GlyphClass: 2
Flags: HW
LayerCount: 2
Fore
SplineSet
832 545 m 257
 1016 545 l 257
 1016 408 l 258
 1016 270 1092 169 1236 169 c 256
 1413 169 1501 315 1523 489 c 257
 1558 404 l 257
 1534 178 1402 -10 1160 -10 c 256
 950 -10 832 143 832 354 c 258
 832 545 l 257
1523 1044 m 257
 1706 1044 l 257
 1706 0 l 257
 1530 0 l 257
 1523 288 l 257
 1523 1044 l 257
EndSplineSet
Refer: 1672 57357 N -1 0 0 -1 1145 1045 2
Refer: 357 46 N 1 0 0 1 632 816 2
EndChar

StartChar: uniAB5B
Encoding: 43867 43867 1658
GlifName: uniA_B_5B_
Width: 854
VWidth: 0
GlyphClass: 2
Flags: HW
LayerCount: 2
Fore
SplineSet
428 1450 m 256
 622 1450 738 1324 738 1132 c 257
 646 1132 l 257
 646 1276 569 1357 428 1357 c 256
 287 1357 208 1276 208 1132 c 257
 116 1132 l 257
 116 1324 234 1450 428 1450 c 256
EndSplineSet
EndChar

StartChar: uniE000
Encoding: 57344 57344 1659
GlifName: uniE_000
Width: 122
VWidth: 0
GlyphClass: 2
Flags: HW
LayerCount: 2
Fore
SplineSet
0 184 m 258
 124 184 l 257
 124 0 l 257
 0 0 l 258
 -50 0 -92 42 -92 92 c 256
 -92 142 -50 184 0 184 c 258
EndSplineSet
EndChar

StartChar: uniE001
Encoding: 57345 57345 1660
GlifName: uniE_001
Width: 341
VWidth: 0
GlyphClass: 2
Flags: HW
LayerCount: 2
Fore
SplineSet
0 184 m 258
 343 184 l 257
 343 0 l 257
 0 0 l 258
 -50 0 -92 42 -92 92 c 256
 -92 142 -50 184 0 184 c 258
EndSplineSet
EndChar

StartChar: uniE002
Encoding: 57346 57346 1661
GlifName: uniE_002
Width: 479
VWidth: 0
GlyphClass: 2
Flags: HW
LayerCount: 2
Fore
SplineSet
0 184 m 258
 482 184 l 257
 482 0 l 257
 0 0 l 258
 -50 0 -92 42 -92 92 c 256
 -92 142 -50 184 0 184 c 258
EndSplineSet
EndChar

StartChar: uniE003
Encoding: 57347 57347 1662
GlifName: uniE_003
Width: 1928
VWidth: 0
GlyphClass: 2
Flags: HW
LayerCount: 2
Fore
SplineSet
1344 1415 m 257
 1438 1321 l 257
 204 -46 l 257
 110 48 l 257
 1344 1415 l 257
EndSplineSet
EndChar

StartChar: uniE004
Encoding: 57348 57348 1663
GlifName: uniE_004
Width: 1104
VWidth: 0
GlyphClass: 2
Flags: HW
LayerCount: 2
Fore
SplineSet
146 -72 m 257
 49 1 l 257
 898 1104 l 257
 995 1032 l 257
 146 -72 l 257
EndSplineSet
EndChar

StartChar: uniE005
Encoding: 57349 57349 1664
GlifName: uniE_005
Width: 1520
VWidth: 0
GlyphClass: 2
Flags: HW
LayerCount: 2
Fore
SplineSet
1260 -158 m 257
 1075 -158 l 257
 780 376 l 257
 897 444 l 257
 1260 -158 l 257
EndSplineSet
EndChar

StartChar: uniE006
Encoding: 57350 57350 1665
GlifName: uniE_006
Width: 1241
VWidth: 0
GlyphClass: 2
Flags: HW
LayerCount: 2
Fore
SplineSet
240 149 m 257
 240 268 l 257
 1001 268 l 257
 1001 149 l 257
 240 149 l 257
240 429 m 257
 240 550 l 257
 1001 550 l 257
 1001 429 l 257
 240 429 l 257
EndSplineSet
EndChar

StartChar: uniE007
Encoding: 57351 57351 1666
GlifName: uniE_007
Width: 949
VWidth: 0
GlyphClass: 2
Flags: HW
LayerCount: 2
Fore
SplineSet
350 1207 m 256
 310 1207 268 1210 230 1218 c 257
 254 1310 l 257
 284 1304 328 1298 370 1298 c 256
 450 1298 542 1319 542 1387 c 256
 542 1421 498 1435 448 1445 c 256
 370 1461 288 1487 288 1591 c 256
 288 1713 377 1798 497 1798 c 256
 539 1798 578 1786 616 1770 c 257
 586 1694 l 257
 562 1704 533 1712 502 1712 c 256
 433 1712 372 1676 372 1604 c 256
 372 1553 423 1542 479 1530 c 256
 557 1514 626 1488 626 1393 c 256
 626 1263 490 1207 350 1207 c 256
EndSplineSet
EndChar

StartChar: uniE008
Encoding: 57352 57352 1667
GlifName: uniE_008
Width: 1324
VWidth: 0
GlyphClass: 2
Flags: HW
LayerCount: 2
Fore
SplineSet
575 1255 m 256
 575 1336 515 1406 430 1406 c 256
 345 1406 285 1337 285 1255 c 256
 285 1173 347 1104 430 1104 c 256
 513 1104 575 1173 575 1255 c 256
704 1254 m 256
 704 1105 592 974 430 974 c 256
 268 974 152 1105 152 1254 c 256
 152 1400 264 1539 430 1539 c 256
 596 1539 704 1400 704 1254 c 256
EndSplineSet
EndChar

StartChar: uniE009
Encoding: 57353 57353 1668
GlifName: uniE_009
Width: 1253
VWidth: 0
GlyphClass: 2
Flags: HW
LayerCount: 2
Fore
SplineSet
584 1604 m 257
 680 1604 l 257
 680 -215 l 257
 584 -215 l 257
 584 1604 l 257
EndSplineSet
EndChar

StartChar: uniE00A
Encoding: 57354 57354 1669
GlifName: uniE_00A_
Width: 1329
VWidth: 0
GlyphClass: 2
Flags: HW
LayerCount: 2
Fore
SplineSet
98 504 m 257
 98 631 l 257
 714 631 l 257
 714 504 l 257
 98 504 l 257
EndSplineSet
EndChar

StartChar: uniE00B
Encoding: 57355 57355 1670
GlifName: uniE_00B_
Width: 1212
VWidth: 0
GlyphClass: 2
Flags: HW
LayerCount: 2
Fore
SplineSet
838 284 m 257
 791 157 672 -11 408 -11 c 256
 216 -11 102 94 102 272 c 256
 102 498 281 614 519 614 c 256
 638 614 739 598 836 570 c 257
 778 468 l 257
 707 487 636 492 543 492 c 256
 373 492 268 420 268 296 c 256
 268 194 326 132 464 132 c 256
 641 132 736 254 772 304 c 257
 838 284 l 257
EndSplineSet
EndChar

StartChar: uniE00C
Encoding: 57356 57356 1671
GlifName: uniE_00C_
Width: 1693
VWidth: 0
GlyphClass: 2
Flags: HW
LayerCount: 2
Fore
SplineSet
1586 682 m 258
 1586 0 l 257
 1403 0 l 257
 1403 655 l 258
 1403 793 1339 876 1219 876 c 256
 1051 876 965 741 936 556 c 257
 899 642 l 257
 922 878 1052 1054 1270 1054 c 256
 1461 1054 1586 902 1586 682 c 258
EndSplineSet
EndChar

StartChar: uniE00D
Encoding: 57357 57357 1672
GlifName: uniE_00D_
Width: 1165
VWidth: 0
GlyphClass: 2
Flags: HW
LayerCount: 2
Fore
SplineSet
1004 680 m 258
 1004 0 l 257
 820 0 l 257
 820 652 l 258
 820 795 742 876 610 876 c 256
 454 876 347 762 313 556 c 257
 278 642 l 257
 306 898 455 1054 660 1054 c 256
 866 1054 1004 906 1004 680 c 258
EndSplineSet
EndChar

StartChar: uniE00E
Encoding: 57358 57358 1673
GlifName: uniE_00E_
Width: 843
VWidth: 0
GlyphClass: 2
Flags: HW
LayerCount: 2
Fore
SplineSet
784 880 m 257
 767 886 737 890 706 890 c 256
 480 890 359 683 337 449 c 257
 281 480 l 257
 305 764 422 1055 724 1055 c 256
 748 1055 772 1051 794 1047 c 257
 784 880 l 257
EndSplineSet
EndChar

StartChar: uniE00F
Encoding: 57359 57359 1674
GlifName: uniE_00F_
Width: 1252
VWidth: 0
GlyphClass: 2
Flags: HW
LayerCount: 2
Fore
SplineSet
1040 522 m 256
 1040 212 891 -10 642 -10 c 256
 488 -10 360 74 268 224 c 257
 326 282 l 257
 391 187 488 138 584 138 c 256
 742 138 856 280 856 522 c 256
 856 766 742 905 584 905 c 256
 488 905 391 857 326 762 c 257
 268 820 l 257
 360 970 488 1054 642 1054 c 256
 891 1054 1040 832 1040 522 c 256
EndSplineSet
EndChar

StartChar: uniE010
Encoding: 57360 57360 1675
GlifName: uniE_010
Width: 1599
VWidth: 0
GlyphClass: 2
Flags: HW
LayerCount: 2
Fore
SplineSet
1286 -198 m 257
 1088 -198 l 257
 946 82 l 257
 1063 152 l 257
 1286 -198 l 257
EndSplineSet
EndChar

StartChar: uniE011
Encoding: 57361 57361 1676
GlifName: uniE_011
Width: 1076
VWidth: 0
GlyphClass: 2
Flags: HW
LayerCount: 2
Fore
SplineSet
466 1418 m 257
 649 1418 l 257
 649 942 l 257
 466 942 l 257
 466 1418 l 257
466 74 m 257
 649 74 l 257
 649 -444 l 257
 466 -444 l 257
 466 74 l 257
EndSplineSet
EndChar

StartChar: uniE012
Encoding: 57362 57362 1677
GlifName: uniE_012
Width: 1583
VWidth: 0
GlyphClass: 2
Flags: HW
LayerCount: 2
Fore
SplineSet
1154 1194 m 257
 1362 1415 l 257
 1456 1321 l 257
 1204 1060 l 257
 1154 1194 l 257
414 166 m 257
 222 -46 l 257
 127 48 l 257
 355 293 l 257
 414 166 l 257
EndSplineSet
EndChar

StartChar: uniE013
Encoding: 57363 57363 1678
GlifName: uniE_013
Width: 1079
VWidth: 0
GlyphClass: 2
Flags: HW
LayerCount: 2
Fore
SplineSet
792 914 m 257
 938 1104 l 257
 1036 1032 l 257
 873 820 l 257
 792 914 l 257
336 122 m 257
 188 -72 l 257
 90 1 l 257
 260 222 l 257
 336 122 l 257
EndSplineSet
EndChar

StartChar: uniE014
Encoding: 57364 57364 1679
GlifName: uniE_014
Width: 1241
VWidth: 0
GlyphClass: 2
Flags: HW
LayerCount: 2
Fore
SplineSet
240 289 m 257
 240 408 l 257
 1001 408 l 257
 1001 289 l 257
 240 289 l 257
EndSplineSet
EndChar

StartChar: uniE015
Encoding: 57365 57365 1680
GlifName: uniE_015
Width: 1477
VWidth: 0
GlyphClass: 2
Flags: HW
LayerCount: 2
Fore
SplineSet
1416 1048 m 257
 1416 969 l 257
 62 969 l 257
 62 1048 l 257
 1416 1048 l 257
EndSplineSet
EndChar

StartChar: uniE016
Encoding: 57366 57366 1681
GlifName: uniE_016
Width: 413
VWidth: 0
GlyphClass: 2
Flags: HW
LayerCount: 2
Fore
SplineSet
82 914 m 257
 82 1020 l 257
 332 1020 l 257
 332 914 l 257
 82 914 l 257
EndSplineSet
EndChar

StartChar: uniE017
Encoding: 57367 57367 1682
GlifName: uniE_017
Width: 608
VWidth: 0
GlyphClass: 2
Flags: HW
LayerCount: 2
Fore
SplineSet
552 945 m 257
 593 858 l 257
 58 602 l 257
 16 690 l 257
 552 945 l 257
EndSplineSet
EndChar

StartChar: uniE018
Encoding: 57368 57368 1683
GlifName: uniE_018
Width: 1142
VWidth: 0
GlyphClass: 2
Flags: HW
LayerCount: 2
Fore
SplineSet
274 52 m 257
 157 52 l 257
 869 1163 l 257
 986 1163 l 257
 274 52 l 257
EndSplineSet
EndChar

StartChar: uniE019
Encoding: 57369 57369 1684
GlifName: uniE_019
Width: 1484
VWidth: 0
GlyphClass: 2
Flags: HW
LayerCount: 2
Fore
SplineSet
554 -16 m 257
 672 102 l 257
 790 -16 l 257
 672 -134 l 257
 554 -16 l 257
852 -16 m 257
 970 102 l 257
 1088 -16 l 257
 970 -134 l 257
 852 -16 l 257
708 -252 m 257
 820 -138 l 257
 934 -252 l 257
 820 -364 l 257
 708 -252 l 257
EndSplineSet
EndChar

StartChar: uniE01A
Encoding: 57370 57370 1685
GlifName: uniE_01A_
Width: 1193
VWidth: 0
GlyphClass: 2
Flags: HW
LayerCount: 2
Fore
SplineSet
289 218 m 257
 231 309 l 257
 910 1189 l 257
 960 1088 l 257
 289 218 l 257
EndSplineSet
EndChar

StartChar: uniE020
Encoding: 57376 57376 1686
GlifName: uniE_020
Width: 898
VWidth: 0
GlyphClass: 2
Flags: HW
LayerCount: 2
Fore
SplineSet
140 434 m 256
 140 639 295 766 461 766 c 256
 558 766 644 730 722 656 c 257
 662 574 l 257
 604 624 540 649 468 649 c 256
 354 649 256 565 256 437 c 256
 256 321 350 254 490 254 c 256
 569 254 647 270 761 309 c 257
 800 202 l 257
 132 -11 l 257
 98 100 l 257
 379 188 l 257
 241 204 140 300 140 434 c 256
EndSplineSet
EndChar

StartChar: uniE021
Encoding: 57377 57377 1687
GlifName: uniE_021
Width: 523
VWidth: 0
GlyphClass: 2
Flags: HW
LayerCount: 2
Fore
SplineSet
568 1800 m 257
 650 1758 l 257
 587 1626 516 1572 416 1572 c 256
 352 1572 290 1597 236 1622 c 256
 192 1644 149 1661 111 1661 c 256
 39 1661 -4 1595 -48 1527 c 257
 -126 1574 l 257
 -54 1710 33 1771 120 1771 c 256
 172 1771 223 1749 275 1726 c 256
 327 1704 377 1682 426 1682 c 256
 480 1682 523 1712 568 1800 c 257
354 1376 m 257
 354 0 l 257
 170 0 l 257
 170 1376 l 257
 354 1376 l 257
EndSplineSet
EndChar

StartChar: uniE022
Encoding: 57378 57378 1688
GlifName: uniE_022
Width: 523
VWidth: 0
GlyphClass: 2
Flags: HW
LayerCount: 2
Fore
SplineSet
354 0 m 257
 170 0 l 257
 170 1376 l 257
 354 1376 l 257
 354 0 l 257
EndSplineSet
EndChar

StartChar: uniE023
Encoding: 57379 57379 1689
GlifName: uniE_023
Width: 1392
VWidth: 0
GlyphClass: 2
Flags: HW
LayerCount: 2
Fore
SplineSet
484 870 m 256
 572 870 660 834 802 770 c 256
 950 703 1084 648 1236 620 c 257
 1234 420 l 257
 758 310 281 90 281 -252 c 256
 281 -470 501 -574 777 -574 c 256
 941 -574 1110 -538 1234 -488 c 257
 1302 -661 l 257
 1153 -729 968 -772 780 -772 c 256
 394 -772 98 -594 98 -270 c 256
 98 120 501 372 983 520 c 257
 875 540 787 582 706 620 c 256
 618 660 554 688 498 688 c 256
 386 688 334 606 308 488 c 258
 302 456 l 257
 152 484 l 257
 158 522 l 258
 200 740 298 870 484 870 c 256
EndSplineSet
EndChar

StartChar: uniE024
Encoding: 57380 57380 1690
GlifName: uniE_024
Width: 1017
VWidth: 0
GlyphClass: 2
Flags: HW
LayerCount: 2
Fore
SplineSet
919 377 m 256
 919 90 648 -8 392 -8 c 256
 288 -8 182 6 88 32 c 257
 130 208 l 257
 205 188 298 175 388 175 c 256
 591 175 738 238 738 388 c 256
 738 516 623 684 398 884 c 257
 519 1026 l 257
 763 811 919 599 919 377 c 256
EndSplineSet
EndChar

StartChar: uniE025
Encoding: 57381 57381 1691
GlifName: uniE_025
Width: 769
VWidth: 0
GlyphClass: 2
Flags: HW
LayerCount: 2
Fore
SplineSet
381 602 m 257
 556 660 l 257
 626 426 661 260 661 114 c 256
 661 -212 483 -420 51 -584 c 257
 -27 -416 l 257
 337 -280 476 -137 476 112 c 256
 476 235 445 392 381 602 c 257
EndSplineSet
EndChar

StartChar: uniE026
Encoding: 57382 57382 1692
GlifName: uniE_026
Width: 2532
VWidth: 0
GlyphClass: 2
Flags: HW
LayerCount: 2
Fore
SplineSet
1578 0 m 256
 1478 0 1416 42 1376 108 c 257
 1392 -311 1168 -512 748 -512 c 256
 299 -512 98 -306 98 80 c 256
 98 243 133 442 183 598 c 257
 350 548 l 257
 314 420 278 248 278 104 c 256
 278 -197 422 -328 746 -328 c 256
 1088 -328 1208 -187 1208 65 c 256
 1208 207 1162 396 1111 566 c 257
 1292 634 l 257
 1348 426 l 257
 1384 269 1436 184 1570 184 c 256
 1680 184 1737 248 1751 397 c 258
 1767 594 l 257
 1932 581 l 257
 1919 403 l 258
 1907 252 1971 184 2094 184 c 256
 2204 184 2258 250 2258 382 c 256
 2258 444 2246 551 2227 652 c 257
 2406 694 l 257
 2427 596 2440 473 2440 383 c 256
 2440 127 2332 0 2120 0 c 256
 1968 0 1870 66 1836 186 c 257
 1804 64 1704 0 1578 0 c 256
EndSplineSet
EndChar

StartChar: uniE027
Encoding: 57383 57383 1693
GlifName: uniE_027
Width: 2467
VWidth: 0
GlyphClass: 2
Flags: HW
LayerCount: 2
Fore
SplineSet
1974 598 m 256
 1854 598 1698 506 1504 222 c 257
 1573 194 1664 184 1766 184 c 256
 1972 184 2170 226 2170 408 c 256
 2170 518 2095 598 1974 598 c 256
2002 779 m 256
 2232 779 2370 616 2370 407 c 256
 2370 94 2090 0 1750 0 c 256
 1602 0 1480 19 1386 56 c 257
 1376 -330 1152 -505 746 -505 c 256
 299 -505 98 -298 98 84 c 256
 98 252 133 449 183 605 c 257
 350 556 l 257
 314 428 278 255 278 99 c 256
 278 -189 421 -321 746 -321 c 256
 1087 -321 1208 -179 1208 74 c 256
 1208 214 1166 384 1111 567 c 257
 1291 645 l 257
 1321 543 1350 411 1367 291 c 257
 1593 625 1794 779 2002 779 c 256
EndSplineSet
EndChar

StartChar: uniE028
Encoding: 57384 57384 1694
GlifName: uniE_028
Width: 1606
VWidth: 0
GlyphClass: 2
Flags: HW
LayerCount: 2
Fore
SplineSet
612 184 m 257
 908 184 l 258
 1120 184 1309 218 1309 402 c 256
 1309 516 1234 598 1112 598 c 256
 988 598 820 504 612 184 c 257
397 184 m 257
 415 212 432 236 448 262 c 257
 448 1376 l 257
 631 1376 l 257
 631 691 l 258
 631 599 628 518 614 432 c 257
 783 660 964 779 1142 779 c 256
 1372 779 1508 613 1508 407 c 256
 1508 191 1388 0 872 0 c 258
 98 0 l 257
 98 184 l 257
 397 184 l 257
EndSplineSet
EndChar

StartChar: uniE029
Encoding: 57385 57385 1695
GlifName: uniE_029
Width: 1405
VWidth: 0
GlyphClass: 2
Flags: HW
LayerCount: 2
Fore
SplineSet
1034 1058 m 257
 928 922 l 257
 868 984 782 1038 665 1038 c 256
 519 1038 374 926 374 752 c 256
 374 580 532 514 789 514 c 256
 884 514 1004 527 1086 537 c 257
 1096 355 l 257
 665 329 282 147 282 -202 c 256
 282 -445 523 -548 811 -548 c 256
 963 -548 1129 -520 1245 -472 c 257
 1307 -646 l 257
 1169 -704 984 -740 804 -740 c 256
 408 -740 98 -574 98 -218 c 256
 98 37 272 266 541 384 c 257
 339 418 190 531 190 732 c 256
 190 1014 412 1222 659 1222 c 256
 816 1222 946 1150 1034 1058 c 257
EndSplineSet
EndChar

StartChar: uniE02A
Encoding: 57386 57386 1696
GlifName: uniE_02A_
Width: 887
VWidth: 0
GlyphClass: 2
Flags: HW
LayerCount: 2
Fore
SplineSet
0 184 m 258
 887 184 l 257
 887 0 l 257
 0 0 l 258
 -22 0 -31 22 -31 92 c 256
 -31 162 -22 184 0 184 c 258
EndSplineSet
EndChar

StartChar: uniE02B
Encoding: 57387 57387 1697
GlifName: uniE_02B_
Width: 1671
VWidth: 0
GlyphClass: 2
Flags: HW
LayerCount: 2
Fore
SplineSet
797 184 m 256
 1197 184 1332 254 1332 576 c 258
 1332 1372 l 257
 1516 1372 l 257
 1516 576 l 258
 1516 148 1289 0 779 0 c 256
 293 0 98 122 98 426 c 256
 98 507 111 614 135 708 c 257
 301 670 l 257
 281 583 270 492 270 432 c 256
 270 242 395 184 797 184 c 256
EndSplineSet
EndChar

StartChar: uniE02C
Encoding: 57388 57388 1698
GlifName: uniE_02C_
Width: 1401
VWidth: 0
GlyphClass: 2
Flags: HW
LayerCount: 2
Fore
SplineSet
662 -366 m 256
 936 -366 1062 -228 1062 59 c 258
 1062 1376 l 257
 1246 1376 l 257
 1246 59 l 258
 1246 -346 1026 -550 646 -550 c 256
 290 -550 98 -354 98 -50 c 256
 98 84 130 240 192 398 c 257
 354 338 l 257
 305 206 278 73 278 -30 c 256
 278 -244 404 -366 662 -366 c 256
EndSplineSet
EndChar

StartChar: uniE02D
Encoding: 57389 57389 1699
GlifName: uniE_02D_
Width: 1290
VWidth: 0
GlyphClass: 2
Flags: HW
LayerCount: 2
Fore
SplineSet
814 604 m 256
 656 604 598 394 566 240 c 257
 594 234 632 224 661 216 c 256
 749 192 826 174 890 174 c 256
 978 174 1013 226 1013 330 c 256
 1013 466 960 604 814 604 c 256
818 784 m 256
 1058 784 1181 582 1181 318 c 256
 1181 111 1084 -11 904 -11 c 256
 817 -11 711 11 591 42 c 256
 505 65 440 79 394 79 c 256
 314 79 283 34 283 -64 c 258
 283 -758 l 257
 98 -758 l 257
 98 -46 l 258
 98 161 207 292 402 270 c 257
 450 534 573 784 818 784 c 256
EndSplineSet
EndChar

StartChar: uniE02E
Encoding: 57390 57390 1700
GlifName: uniE_02E_
Width: 906
VWidth: 0
GlyphClass: 2
Flags: HW
LayerCount: 2
Fore
SplineSet
450 174 m 256
 570 174 632 240 632 341 c 256
 632 449 564 578 450 683 c 257
 338 579 268 449 268 341 c 256
 268 241 328 174 450 174 c 256
450 -11 m 256
 232 -11 98 130 98 310 c 256
 98 487 199 654 345 794 c 257
 312 826 280 855 244 886 c 257
 354 1019 l 257
 608 811 808 572 808 322 c 256
 808 132 662 -11 450 -11 c 256
EndSplineSet
EndChar

StartChar: uniE02F
Encoding: 57391 57391 1701
GlifName: uniE_02F_
Width: 982
VWidth: 0
GlyphClass: 2
Flags: HW
LayerCount: 2
Fore
SplineSet
690 16 m 257
 628 4 556 -8 476 -8 c 256
 266 -8 136 92 136 310 c 256
 136 536 248 790 492 790 c 256
 800 790 884 420 884 88 c 256
 884 -240 630 -450 172 -580 c 257
 98 -410 l 257
 451 -316 659 -173 690 16 c 257
710 203 m 257
 696 396 642 612 489 612 c 256
 359 612 300 464 300 325 c 256
 300 213 370 177 496 177 c 256
 577 177 652 189 710 203 c 257
EndSplineSet
EndChar

StartChar: uniE030
Encoding: 57392 57392 1702
GlifName: uniE_030
Width: 0
VWidth: 0
GlyphClass: 2
Flags: H
LayerCount: 2
Fore
SplineSet
77 1551 m 256
 27 1551 -25 1503 -25 1449 c 256
 -25 1387 48 1356 100 1344 c 257
 130 1380 144 1419 144 1460 c 256
 144 1510 123 1551 77 1551 c 256
86 1638 m 256
 174 1638 231 1564 231 1464 c 256
 231 1271 17 1158 -193 1098 c 257
 -219 1176 -268 1255 -348 1310 c 257
 -298 1386 l 257
 -230 1343 -179 1280 -141 1206 c 257
 -83 1227 -14 1258 34 1288 c 257
 -28 1309 -109 1354 -109 1446 c 256
 -109 1537 -20 1638 86 1638 c 256
EndSplineSet
EndChar

StartChar: uniE031
Encoding: 57393 57393 1703
GlifName: uniE_031
Width: 0
VWidth: 0
GlyphClass: 2
Flags: H
LayerCount: 2
Fore
SplineSet
216 1340 m 257
 242 1258 l 257
 -216 1113 l 257
 -242 1197 l 257
 216 1340 l 257
EndSplineSet
EndChar

StartChar: uniE032
Encoding: 57394 57394 1704
GlifName: uniE_032
Width: 0
VWidth: 0
GlyphClass: 2
Flags: H
LayerCount: 2
Fore
SplineSet
77 1551 m 256
 27 1551 -25 1503 -25 1449 c 256
 -25 1387 48 1356 100 1344 c 257
 130 1380 144 1419 144 1460 c 256
 144 1510 123 1551 77 1551 c 256
86 1638 m 256
 174 1638 231 1564 231 1464 c 256
 231 1268 10 1154 -206 1094 c 257
 -230 1176 l 257
 -144 1200 -22 1252 34 1288 c 257
 -30 1310 -109 1356 -109 1446 c 256
 -109 1540 -18 1638 86 1638 c 256
EndSplineSet
EndChar

StartChar: uniE033
Encoding: 57395 57395 1705
GlifName: uniE_033
Width: 0
VWidth: 0
GlyphClass: 2
Flags: H
LayerCount: 2
Fore
SplineSet
198 1281 m 256
 198 1317 187 1366 174 1412 c 257
 256 1436 l 257
 270 1384 283 1332 283 1270 c 256
 283 1172 231 1112 136 1112 c 256
 74 1112 14 1152 0 1214 c 257
 -14 1152 -74 1112 -136 1112 c 256
 -231 1112 -283 1172 -283 1270 c 256
 -283 1332 -270 1384 -256 1436 c 257
 -174 1412 l 257
 -187 1366 -198 1317 -198 1281 c 256
 -198 1227 -176 1200 -122 1200 c 256
 -62 1200 -38 1248 -38 1352 c 258
 -38 1376 l 257
 38 1376 l 257
 38 1352 l 258
 38 1248 62 1200 122 1200 c 256
 176 1200 198 1227 198 1281 c 256
EndSplineSet
EndChar

StartChar: uniE034
Encoding: 57396 57396 1706
GlifName: uniE_034
Width: 0
VWidth: 0
GlyphClass: 2
Flags: H
LayerCount: 2
Fore
SplineSet
0 1366 m 256
 -62 1366 -95 1331 -95 1274 c 256
 -95 1217 -61 1180 0 1180 c 256
 59 1180 95 1219 95 1274 c 256
 95 1329 62 1366 0 1366 c 256
0 1450 m 256
 107 1450 178 1377 178 1274 c 256
 178 1171 108 1096 0 1096 c 256
 -108 1096 -178 1172 -178 1274 c 256
 -178 1376 -108 1450 0 1450 c 256
EndSplineSet
EndChar

StartChar: uniE035
Encoding: 57397 57397 1707
GlifName: uniE_035
Width: 0
VWidth: 0
GlyphClass: 2
Flags: H
LayerCount: 2
Fore
SplineSet
-274 1142 m 257
 -244 1199 -184 1271 -98 1271 c 256
 -54 1271 -19 1253 17 1229 c 256
 47 1209 70 1198 94 1198 c 256
 140 1198 168 1228 194 1278 c 257
 274 1244 l 257
 242 1178 188 1113 100 1113 c 256
 59 1113 28 1128 -12 1154 c 256
 -40 1172 -64 1184 -88 1184 c 256
 -135 1184 -176 1146 -196 1104 c 257
 -274 1142 l 257
EndSplineSet
EndChar

StartChar: uniE036
Encoding: 57398 57398 1708
GlifName: uniE_036
Width: 0
VWidth: 0
GlyphClass: 2
Flags: H
LayerCount: 2
Fore
SplineSet
152 1568 m 257
 126 1490 l 257
 102 1500 67 1506 41 1506 c 256
 -27 1506 -80 1464 -80 1394 c 256
 -80 1333 -36 1288 26 1288 c 256
 42 1288 60 1291 78 1297 c 258
 216 1340 l 257
 241 1258 l 257
 -216 1113 l 257
 -241 1197 l 257
 -78 1248 l 257
 -128 1276 -159 1332 -159 1396 c 256
 -159 1511 -66 1590 48 1590 c 256
 82 1590 116 1583 152 1568 c 257
EndSplineSet
EndChar

StartChar: uniE037
Encoding: 57399 57399 1709
GlifName: uniE_037
Width: 0
VWidth: 0
GlyphClass: 2
Flags: H
LayerCount: 2
Fore
SplineSet
36 1113 m 257
 -36 1113 l 257
 -248 1382 l 257
 -180 1436 l 257
 0 1204 l 257
 180 1436 l 257
 248 1382 l 257
 36 1113 l 257
EndSplineSet
EndChar

StartChar: uniE038
Encoding: 57400 57400 1710
GlifName: uniE_038
Width: 1776
VWidth: 0
GlyphClass: 2
Flags: HW
LayerCount: 2
Fore
SplineSet
1628 791 m 257
 1660 676 1678 570 1678 474 c 256
 1678 122 1458 0 888 0 c 256
 318 0 98 122 98 474 c 256
 98 570 116 676 148 791 c 257
 314 752 l 257
 288 652 274 565 274 490 c 256
 274 254 420 184 888 184 c 256
 1356 184 1502 254 1502 490 c 256
 1502 565 1488 652 1462 752 c 257
 1628 791 l 257
EndSplineSet
EndChar

StartChar: uniE039
Encoding: 57401 57401 1711
GlifName: uniE_039
Width: 1534
VWidth: 0
GlyphClass: 2
Flags: HW
LayerCount: 2
Fore
SplineSet
1260 196 m 257
 1246 389 1193 605 1040 605 c 256
 910 605 852 457 852 318 c 256
 852 206 921 170 1047 170 c 256
 1128 170 1202 182 1260 196 c 257
1044 790 m 256
 1330 790 1436 454 1436 114 c 257
 1436 -310 1218 -552 758 -552 c 256
 338 -552 98 -338 98 38 c 256
 98 166 124 312 176 474 c 257
 345 406 l 257
 305 266 281 140 281 38 c 256
 281 -237 450 -367 774 -367 c 256
 1076 -367 1239 -229 1249 24 c 257
 1188 6 1108 -8 1027 -8 c 256
 818 -8 688 93 688 310 c 256
 688 536 800 790 1044 790 c 256
EndSplineSet
EndChar

StartChar: uniE03A
Encoding: 57402 57402 1712
GlifName: uniE_03A_
Width: 0
VWidth: 0
GlyphClass: 2
Flags: H
LayerCount: 2
Fore
SplineSet
-48 1447 m 257
 48 1447 l 257
 48 1088 l 257
 -48 1088 l 257
 -48 1447 l 257
EndSplineSet
EndChar

StartChar: uniE03B
Encoding: 57403 57403 1713
GlifName: uniE_03B_
Width: 1806
VWidth: 0
GlyphClass: 2
Flags: HW
LayerCount: 2
Fore
SplineSet
1542 449 m 257
 1467 429 1383 416 1288 416 c 256
 1083 416 948 492 948 708 c 256
 948 931 1053 1196 1303 1196 c 256
 1649 1196 1708 714 1708 478 c 256
 1708 83 1460 0 876 0 c 256
 295 0 98 117 98 471 c 256
 98 565 114 673 144 783 c 257
 313 744 l 257
 287 648 274 558 274 484 c 256
 274 250 391 184 890 184 c 256
 1428 186 1542 219 1542 449 c 257
1520 606 m 257
 1506 799 1453 1014 1300 1014 c 256
 1170 1014 1110 867 1110 728 c 256
 1110 616 1180 580 1306 580 c 256
 1387 580 1462 592 1520 606 c 257
EndSplineSet
EndChar

StartChar: uniE03C
Encoding: 57404 57404 1714
GlifName: uniE_03C_
Width: 1672
VWidth: 0
GlyphClass: 2
Flags: HW
LayerCount: 2
Fore
SplineSet
144 784 m 257
 313 744 l 257
 287 644 274 556 274 484 c 256
 274 260 405 184 792 184 c 256
 1168 184 1356 257 1356 403 c 256
 1356 545 1179 740 867 949 c 257
 867 1118 l 257
 1141 1278 1422 1397 1718 1481 c 257
 1758 1302 l 257
 1490 1222 1276 1136 1072 1030 c 257
 1072 1020 l 257
 1390 774 1540 581 1540 393 c 256
 1540 138 1277 0 786 0 c 256
 296 0 98 136 98 472 c 256
 98 566 114 672 144 784 c 257
EndSplineSet
EndChar

StartChar: uniE03D
Encoding: 57405 57405 1715
GlifName: uniE_03D_
Width: 1552
VWidth: 0
GlyphClass: 2
Flags: HW
LayerCount: 2
Fore
SplineSet
1151 584 m 257
 1324 664 l 257
 1405 457 1454 293 1454 88 c 256
 1454 -308 1183 -516 771 -516 c 256
 320 -516 98 -300 98 92 c 256
 98 242 128 418 184 606 c 257
 354 552 l 257
 314 399 279 239 279 107 c 256
 279 -180 430 -332 774 -332 c 256
 1109 -332 1270 -177 1270 83 c 256
 1270 231 1223 401 1151 584 c 257
EndSplineSet
EndChar

StartChar: uniE03E
Encoding: 57406 57406 1716
GlifName: uniE_03E_
Width: 1528
VWidth: 0
GlyphClass: 2
Flags: HW
LayerCount: 2
Fore
SplineSet
1382 758 m 257
 1328 592 l 257
 1272 611 1200 623 1139 623 c 256
 946 623 802 506 802 332 c 256
 802 220 872 186 1078 170 c 256
 1300 153 1430 106 1430 -92 c 256
 1430 -403 1125 -552 732 -552 c 256
 308 -552 106 -375 106 27 c 256
 106 147 120 270 148 406 c 257
 321 374 l 257
 296 240 282 130 282 18 c 256
 282 -268 416 -368 732 -368 c 256
 1001 -368 1254 -280 1254 -128 c 256
 1254 -52 1206 -24 1041 -10 c 256
 749 14 624 88 624 307 c 256
 624 589 827 805 1126 805 c 256
 1212 805 1304 788 1382 758 c 257
EndSplineSet
EndChar

StartChar: uniE03F
Encoding: 57407 57407 1717
GlifName: uniE_03F_
Width: 1966
VWidth: 0
GlyphClass: 2
Flags: HW
LayerCount: 2
Fore
SplineSet
144 784 m 257
 313 744 l 257
 287 644 274 555 274 483 c 256
 274 259 403 184 791 184 c 256
 1167 184 1353 255 1353 402 c 256
 1353 544 1183 733 867 949 c 257
 867 1118 l 257
 1141 1278 1422 1397 1718 1481 c 257
 1758 1302 l 257
 1490 1222 1276 1136 1072 1030 c 257
 1072 1020 l 257
 1312 835 1438 698 1546 486 c 256
 1668 252 1762 184 1966 184 c 258
 1967 184 l 257
 1967 0 l 257
 1966 0 l 258
 1736 0 1585 91 1485 306 c 257
 1459 103 1222 0 791 0 c 256
 296 0 98 136 98 472 c 256
 98 566 114 672 144 784 c 257
EndSplineSet
EndChar

StartChar: uniE040
Encoding: 57408 57408 1718
GlifName: uniE_040
Width: 1755
VWidth: 0
GlyphClass: 2
Flags: HW
LayerCount: 2
Fore
SplineSet
184 606 m 257
 354 552 l 257
 314 399 279 239 279 107 c 256
 279 -180 429 -332 773 -332 c 256
 1117 -332 1270 -176 1270 96 c 256
 1270 231 1222 398 1152 584 c 257
 1326 664 l 257
 1404 454 l 257
 1464 278 1534 184 1754 184 c 258
 1755 184 l 257
 1755 0 l 257
 1754 0 l 258
 1618 0 1494 50 1436 144 c 257
 1473 -284 1209 -516 771 -516 c 256
 320 -516 98 -300 98 92 c 256
 98 242 128 418 184 606 c 257
EndSplineSet
EndChar

StartChar: uniE041
Encoding: 57409 57409 1719
GlifName: uniE_041
Width: 588
VWidth: 0
GlyphClass: 2
Flags: HW
LayerCount: 2
Fore
SplineSet
430 811 m 257
 466 663 490 528 490 414 c 256
 490 162 366 0 50 0 c 258
 0 0 l 258
 -22 0 -31 22 -31 92 c 256
 -31 162 -22 184 0 184 c 258
 50 184 l 258
 240 184 312 269 312 426 c 256
 312 514 289 628 257 764 c 257
 430 811 l 257
EndSplineSet
EndChar

StartChar: uniE042
Encoding: 57410 57410 1720
GlifName: uniE_042
Width: 839
VWidth: 0
GlyphClass: 2
Flags: HW
LayerCount: 2
Fore
SplineSet
513 486 m 258
 513 283 553 184 771 184 c 258
 840 184 l 257
 840 0 l 257
 768 0 l 258
 598 0 459 77 420 215 c 257
 380 77 221 0 49 0 c 258
 0 0 l 258
 -22 0 -31 22 -31 92 c 256
 -31 162 -22 184 0 184 c 258
 49 184 l 258
 285 184 328 284 328 486 c 258
 328 635 l 257
 513 635 l 257
 513 486 l 258
EndSplineSet
EndChar

StartChar: uniE043
Encoding: 57411 57411 1721
GlifName: uniE_043
Width: 1440
VWidth: 0
GlyphClass: 2
Flags: HW
LayerCount: 2
Fore
SplineSet
1440 184 m 257
 1440 0 l 257
 1188 0 l 257
 1296 -44 1368 -120 1368 -226 c 256
 1368 -472 1064 -594 747 -594 c 256
 336 -594 98 -412 98 -34 c 256
 98 172 129 333 176 510 c 257
 348 464 l 257
 305 293 276 152 276 -20 c 256
 276 -300 440 -410 752 -410 c 256
 968 -410 1200 -352 1200 -190 c 256
 1200 -64 1046 -39 730 -0 c 257
 756 184 l 257
 1440 184 l 257
EndSplineSet
EndChar

StartChar: uniE044
Encoding: 57412 57412 1722
GlifName: uniE_044
Width: 611
VWidth: 0
GlyphClass: 2
Flags: HW
LayerCount: 2
Fore
SplineSet
156 1376 m 257
 340 1376 l 257
 340 441 l 258
 340 257 402 184 610 184 c 258
 611 184 l 257
 611 0 l 257
 610 0 l 258
 314 0 156 146 156 438 c 258
 156 1376 l 257
EndSplineSet
EndChar

StartChar: uniE045
Encoding: 57413 57413 1723
GlifName: uniE_045
Width: 1385
VWidth: 0
GlyphClass: 2
Flags: HW
LayerCount: 2
Fore
SplineSet
483 870 m 256
 571 870 660 834 802 770 c 256
 950 703 1084 648 1236 620 c 257
 1234 420 l 257
 1168 403 1099 384 1030 360 c 257
 1098 198 1187 184 1338 184 c 258
 1386 184 l 257
 1386 0 l 257
 1335 0 l 258
 1121 0 978 62 900 322 c 257
 555 196 281 6 281 -252 c 256
 281 -470 502 -574 778 -574 c 256
 942 -574 1110 -538 1234 -488 c 257
 1302 -661 l 257
 1153 -728 968 -772 780 -772 c 256
 394 -772 98 -594 98 -270 c 256
 98 120 501 372 983 520 c 257
 875 541 788 582 706 620 c 256
 618 660 554 688 498 688 c 256
 386 688 334 606 308 488 c 258
 302 456 l 257
 152 484 l 257
 158 522 l 258
 200 740 297 870 483 870 c 256
EndSplineSet
EndChar

StartChar: uniE046
Encoding: 57414 57414 1724
GlifName: uniE_046
Width: 1315
VWidth: 0
GlyphClass: 2
Flags: HW
LayerCount: 2
Fore
SplineSet
470 856 m 256
 563 856 663 811 782 757 c 256
 904 701 1046 638 1218 606 c 257
 1218 444 l 257
 804 169 l 258
 628 52 446 0 224 0 c 258
 0 0 l 258
 -22 0 -31 24 -31 92 c 256
 -31 160 -22 184 0 184 c 258
 253 184 l 258
 433 184 575 222 721 314 c 258
 1004 496 l 257
 876 520 772 566 686 606 c 256
 606 643 540 673 477 673 c 256
 370 673 316 594 290 474 c 258
 284 442 l 257
 134 470 l 257
 140 508 l 258
 180 716 274 856 470 856 c 256
EndSplineSet
EndChar

StartChar: uniE047
Encoding: 57415 57415 1725
GlifName: uniE_047
Width: 1363
VWidth: 0
GlyphClass: 2
Flags: HW
LayerCount: 2
Fore
SplineSet
470 856 m 256
 563 856 663 811 782 757 c 256
 904 701 1046 638 1218 606 c 257
 1218 444 l 257
 1027 318 l 257
 1101 216 1168 184 1306 184 c 258
 1364 184 l 257
 1364 0 l 257
 1302 0 l 258
 1123 0 995 62 903 236 c 257
 804 169 l 258
 628 52 446 0 224 0 c 258
 0 0 l 258
 -22 0 -31 24 -31 92 c 256
 -31 160 -22 184 0 184 c 258
 253 184 l 258
 433 184 575 222 721 314 c 258
 1004 496 l 257
 876 520 772 566 686 606 c 256
 606 643 540 673 477 673 c 256
 370 673 316 594 290 474 c 258
 284 442 l 257
 134 470 l 257
 140 508 l 258
 180 716 274 856 470 856 c 256
EndSplineSet
EndChar

StartChar: uniE048
Encoding: 57416 57416 1726
GlifName: uniE_048
Width: 1287
VWidth: 0
GlyphClass: 2
Flags: HW
LayerCount: 2
Fore
SplineSet
718 1012 m 257
 989 382 l 258
 1055 229 1132 184 1272 184 c 258
 1288 184 l 257
 1288 0 l 257
 1270 0 l 258
 1102 0 969 57 891 206 c 257
 808 62 648 -10 478 -10 c 256
 342 -10 200 36 88 134 c 257
 174 281 l 257
 267 207 376 174 476 174 c 256
 609 174 729 231 804 343 c 257
 546 930 l 257
 718 1012 l 257
EndSplineSet
EndChar

StartChar: uniE049
Encoding: 57417 57417 1727
GlifName: uniE_049
Width: 932
VWidth: 0
GlyphClass: 2
Flags: HW
LayerCount: 2
Fore
SplineSet
381 602 m 257
 556 660 l 257
 614 460 l 258
 675 241 740 184 932 184 c 258
 932 184 l 257
 932 0 l 257
 932 0 l 258
 804 0 700 43 647 119 c 257
 651 -223 473 -423 51 -584 c 257
 -27 -416 l 257
 337 -280 476 -137 476 115 c 256
 476 235 445 394 381 602 c 257
EndSplineSet
EndChar

StartChar: uniE04A
Encoding: 57418 57418 1728
GlifName: uniE_04A_
Width: 2758
VWidth: 0
GlyphClass: 2
Flags: HW
LayerCount: 2
Fore
SplineSet
183 598 m 257
 350 548 l 257
 314 420 278 248 278 104 c 256
 278 -197 422 -328 746 -328 c 256
 1088 -328 1208 -187 1208 65 c 256
 1208 207 1162 396 1111 566 c 257
 1292 634 l 257
 1348 426 l 257
 1384 269 1436 184 1570 184 c 256
 1680 184 1737 248 1751 397 c 258
 1767 594 l 257
 1932 581 l 257
 1919 403 l 258
 1907 252 1971 184 2089 184 c 256
 2203 184 2254 247 2254 380 c 256
 2254 440 2242 531 2220 650 c 257
 2398 688 l 257
 2424 510 l 258
 2460 260 2545 184 2757 184 c 258
 2758 184 l 257
 2758 0 l 257
 2757 0 l 258
 2549 0 2413 83 2381 231 c 257
 2361 79 2264 0 2110 0 c 256
 1958 0 1870 66 1836 186 c 257
 1804 64 1704 0 1578 0 c 256
 1478 0 1416 42 1376 108 c 257
 1392 -311 1168 -512 748 -512 c 256
 299 -512 98 -306 98 80 c 256
 98 243 133 442 183 598 c 257
EndSplineSet
EndChar

StartChar: uniE04B
Encoding: 57419 57419 1729
GlifName: uniE_04B_
Width: 1667
VWidth: 0
GlyphClass: 2
Flags: HW
LayerCount: 2
Fore
SplineSet
694 184 m 256
 807 182 866 246 880 397 c 258
 896 594 l 257
 1061 581 l 257
 1048 403 l 258
 1036 252 1100 184 1223 184 c 256
 1333 184 1388 248 1388 382 c 256
 1388 448 1374 574 1356 668 c 257
 1535 710 l 257
 1555 616 1570 479 1570 385 c 256
 1570 129 1464 0 1250 0 c 256
 1098 0 1000 66 966 186 c 257
 927 62 832 0 688 0 c 256
 534 0 439 73 411 209 c 257
 366 83 224 0 50 0 c 258
 0 0 l 258
 -22 0 -31 28 -31 94 c 256
 -31 158 -22 184 0 184 c 258
 50 184 l 258
 237 184 323 266 343 474 c 258
 358 643 l 257
 544 628 l 257
 524 421 l 258
 508 268 568 186 694 184 c 256
EndSplineSet
EndChar

StartChar: uniE04C
Encoding: 57420 57420 1730
GlifName: uniE_04C_
Width: 1887
VWidth: 0
GlyphClass: 2
Flags: HW
LayerCount: 2
Fore
SplineSet
1218 184 m 256
 1332 184 1383 247 1383 380 c 256
 1383 440 1371 531 1349 650 c 257
 1528 688 l 257
 1554 510 l 258
 1590 260 1674 184 1886 184 c 258
 1888 184 l 257
 1888 0 l 257
 1886 0 l 258
 1678 0 1542 83 1510 231 c 257
 1490 79 1393 0 1239 0 c 256
 1093 0 999 68 966 186 c 257
 927 62 834 0 690 0 c 256
 536 0 439 73 411 209 c 257
 366 83 224 0 50 0 c 258
 0 0 l 258
 -22 0 -31 28 -31 94 c 256
 -31 158 -22 184 0 184 c 258
 50 184 l 258
 237 184 323 266 343 474 c 258
 358 643 l 257
 544 628 l 257
 524 421 l 258
 508 268 568 186 694 184 c 256
 807 182 865 246 879 397 c 258
 896 594 l 257
 1061 581 l 257
 1048 403 l 258
 1036 252 1100 184 1218 184 c 256
EndSplineSet
EndChar

StartChar: uniE04D
Encoding: 57421 57421 1731
GlifName: uniE_04D_
Width: 2530
VWidth: 0
GlyphClass: 2
Flags: HW
LayerCount: 2
Fore
SplineSet
1974 598 m 256
 1854 598 1698 506 1504 222 c 257
 1573 194 1664 184 1766 184 c 256
 1972 184 2170 226 2170 408 c 256
 2170 518 2095 598 1974 598 c 256
2002 779 m 256
 2232 779 2370 616 2370 407 c 256
 2370 336 2350 279 2317 234 c 257
 2365 200 2439 184 2529 184 c 258
 2530 184 l 257
 2530 0 l 257
 2529 0 l 258
 2391 0 2286 39 2220 106 c 257
 2107 28 1936 0 1750 0 c 256
 1602 0 1480 19 1386 56 c 257
 1376 -330 1152 -505 746 -505 c 256
 299 -505 98 -298 98 84 c 256
 98 252 133 449 183 605 c 257
 350 556 l 257
 314 428 278 255 278 99 c 256
 278 -189 421 -321 746 -321 c 256
 1087 -321 1208 -179 1208 74 c 256
 1208 214 1166 384 1111 567 c 257
 1291 645 l 257
 1321 543 1350 411 1367 291 c 257
 1593 625 1794 779 2002 779 c 256
EndSplineSet
EndChar

StartChar: uniE04E
Encoding: 57422 57422 1732
GlifName: uniE_04E_
Width: 1688
VWidth: 0
GlyphClass: 2
Flags: HW
LayerCount: 2
Fore
SplineSet
1194 598 m 256
 1074 598 919 506 725 222 c 257
 794 194 886 184 988 184 c 256
 1194 184 1392 226 1392 408 c 256
 1392 518 1315 598 1194 598 c 256
328 635 m 257
 513 635 l 257
 514 490 l 258
 516 357 546 318 598 286 c 257
 806 628 1019 779 1223 779 c 256
 1453 779 1590 616 1590 407 c 256
 1590 94 1312 0 972 0 c 256
 690 0 496 71 420 215 c 257
 380 77 221 0 49 0 c 258
 0 0 l 258
 -22 0 -31 22 -31 92 c 256
 -31 162 -22 184 0 184 c 258
 49 184 l 258
 285 184 328 284 328 486 c 258
 328 635 l 257
EndSplineSet
EndChar

StartChar: uniE04F
Encoding: 57423 57423 1733
GlifName: uniE_04F_
Width: 1751
VWidth: 0
GlyphClass: 2
Flags: HW
LayerCount: 2
Fore
SplineSet
328 635 m 257
 513 635 l 257
 514 490 l 258
 516 357 546 318 598 286 c 257
 806 628 1019 779 1223 779 c 256
 1453 779 1590 616 1590 407 c 256
 1590 336 1571 279 1538 234 c 257
 1589 200 1658 184 1750 184 c 258
 1752 184 l 257
 1752 0 l 257
 1750 0 l 258
 1621 0 1511 34 1441 106 c 257
 1328 28 1158 0 972 0 c 256
 690 0 496 71 420 215 c 257
 380 77 221 0 49 0 c 258
 0 0 l 258
 -22 0 -31 22 -31 92 c 256
 -31 162 -22 184 0 184 c 258
 49 184 l 258
 285 184 328 284 328 486 c 258
 328 635 l 257
1194 598 m 256
 1074 598 919 506 725 222 c 257
 794 194 886 184 988 184 c 256
 1194 184 1392 226 1392 408 c 256
 1392 518 1315 598 1194 598 c 256
EndSplineSet
EndChar

StartChar: uniE050
Encoding: 57424 57424 1734
GlifName: uniE_050
Width: 1688
VWidth: 0
GlyphClass: 2
Flags: HW
LayerCount: 2
Fore
SplineSet
612 184 m 257
 908 184 l 258
 1120 184 1309 218 1309 402 c 256
 1309 516 1234 598 1112 598 c 256
 988 598 820 504 612 184 c 257
397 184 m 257
 415 212 432 236 448 262 c 257
 448 1376 l 257
 631 1376 l 257
 631 691 l 258
 631 599 628 518 614 432 c 257
 783 660 964 779 1142 779 c 256
 1372 779 1508 613 1508 407 c 256
 1508 346 1494 294 1470 251 c 257
 1520 209 1591 184 1688 184 c 258
 1688 184 l 257
 1688 0 l 257
 1688 0 l 258
 1538 0 1452 51 1384 125 c 257
 1270 29 1080 0 872 0 c 258
 98 0 l 257
 98 184 l 257
 397 184 l 257
EndSplineSet
EndChar

StartChar: uniE051
Encoding: 57425 57425 1735
GlifName: uniE_051
Width: 1359
VWidth: 0
GlyphClass: 2
Flags: HW
LayerCount: 2
Fore
SplineSet
3 0 m 258
 -19 0 -28 22 -28 92 c 256
 -28 162 -19 184 3 184 c 258
 150 184 l 257
 168 212 184 236 200 262 c 257
 200 1376 l 257
 384 1376 l 257
 384 691 l 258
 384 599 380 518 366 432 c 257
 535 660 716 779 894 779 c 256
 1124 779 1262 613 1262 407 c 256
 1262 191 1142 0 626 0 c 258
 3 0 l 258
365 184 m 257
 661 184 l 258
 873 184 1062 218 1062 402 c 256
 1062 516 988 598 866 598 c 256
 742 598 573 504 365 184 c 257
EndSplineSet
EndChar

StartChar: uniE052
Encoding: 57426 57426 1736
GlifName: uniE_052
Width: 1442
VWidth: 0
GlyphClass: 2
Flags: HW
LayerCount: 2
Fore
SplineSet
3 0 m 258
 -19 0 -28 22 -28 92 c 256
 -28 162 -19 184 3 184 c 258
 150 184 l 257
 168 212 185 236 201 262 c 257
 201 1376 l 257
 384 1376 l 257
 384 691 l 258
 384 599 382 518 368 432 c 257
 537 660 718 779 896 779 c 256
 1126 779 1262 613 1262 407 c 256
 1262 346 1248 294 1224 251 c 257
 1274 209 1345 184 1442 184 c 258
 1442 184 l 257
 1442 0 l 257
 1442 0 l 258
 1292 0 1206 51 1138 125 c 257
 1024 29 834 0 626 0 c 258
 3 0 l 258
366 184 m 257
 662 184 l 258
 874 184 1063 218 1063 402 c 256
 1063 516 988 598 866 598 c 256
 742 598 574 504 366 184 c 257
EndSplineSet
EndChar

StartChar: uniE053
Encoding: 57427 57427 1737
GlifName: uniE_053
Width: 1235
VWidth: 0
GlyphClass: 2
Flags: HW
LayerCount: 2
Fore
SplineSet
938 533 m 256
 938 631 822 675 700 675 c 256
 590 675 485 647 401 590 c 257
 401 582 l 257
 702 292 l 257
 834 363 938 451 938 533 c 256
1107 543 m 256
 1107 415 995 305 862 225 c 257
 931 184 1024 184 1106 184 c 258
 1236 184 l 257
 1236 0 l 257
 1083 0 l 258
 932 0 800 24 688 106 c 257
 429 -7 281 -147 281 -324 c 256
 281 -544 522 -620 778 -620 c 256
 913 -620 1048 -598 1149 -566 c 257
 1206 -737 l 257
 1078 -779 922 -805 770 -805 c 256
 420 -805 98 -677 98 -325 c 256
 98 -71 290 102 540 222 c 257
 206 544 l 257
 210 674 l 257
 346 791 516 850 702 850 c 256
 893 850 1107 759 1107 543 c 256
EndSplineSet
EndChar

StartChar: uniE054
Encoding: 57428 57428 1738
GlifName: uniE_054
Width: 1114
VWidth: 0
GlyphClass: 2
Flags: HW
LayerCount: 2
Fore
SplineSet
306 478 m 256
 306 338 418 250 542 250 c 256
 567 250 619 257 668 267 c 258
 984 327 l 257
 1016 146 l 257
 488 44 l 258
 335 16 180 0 46 0 c 258
 0 0 l 258
 -24 0 -31 29 -31 92 c 256
 -31 154 -24 184 0 184 c 258
 39 184 l 258
 113 184 182 189 276 203 c 257
 187 256 122 347 122 476 c 256
 122 754 333 942 575 942 c 256
 727 942 829 887 931 780 c 257
 828 648 l 257
 759 718 677 758 579 758 c 256
 437 758 306 656 306 478 c 256
EndSplineSet
EndChar

StartChar: uniE055
Encoding: 57429 57429 1739
GlifName: uniE_055
Width: 1185
VWidth: 0
GlyphClass: 2
Flags: HW
LayerCount: 2
Fore
SplineSet
634 675 m 256
 525 675 418 648 336 590 c 257
 336 582 l 257
 638 292 l 257
 770 364 873 450 873 534 c 256
 873 629 760 675 634 675 c 256
638 850 m 256
 832 850 1044 759 1044 544 c 256
 1044 414 930 306 798 225 c 257
 868 184 949 184 1033 184 c 258
 1186 184 l 257
 1186 0 l 257
 1010 0 l 258
 856 0 747 18 630 106 c 257
 496 40 344 0 153 0 c 258
 0 0 l 258
 -22 0 -31 22 -31 92 c 256
 -31 162 -22 184 0 184 c 258
 142 184 l 258
 272 184 371 203 465 232 c 257
 142 544 l 257
 144 674 l 257
 280 790 453 850 638 850 c 256
EndSplineSet
EndChar

StartChar: uniE056
Encoding: 57430 57430 1740
GlifName: uniE_056
Width: 1841
VWidth: 0
GlyphClass: 2
Flags: HW
LayerCount: 2
Fore
SplineSet
1516 576 m 258
 1516 274 1591 184 1841 184 c 258
 1842 184 l 257
 1842 0 l 257
 1841 0 l 258
 1614 0 1465 93 1424 257 c 257
 1356 74 1173 0 784 0 c 256
 291 0 98 120 98 426 c 256
 98 508 111 614 135 708 c 257
 301 670 l 257
 281 583 270 492 270 432 c 256
 270 246 391 184 780 184 c 256
 1218 184 1332 268 1332 576 c 258
 1332 1372 l 257
 1516 1372 l 257
 1516 576 l 258
EndSplineSet
EndChar

StartChar: uniE057
Encoding: 57431 57431 1741
GlifName: uniE_057
Width: 883
VWidth: 0
GlyphClass: 2
Flags: HW
LayerCount: 2
Fore
SplineSet
890 1481 m 257
 930 1302 l 257
 664 1222 448 1136 244 1030 c 257
 244 1020 l 257
 562 781 712 581 712 379 c 256
 712 137 500 0 124 0 c 258
 0 0 l 258
 -22 0 -31 26 -31 92 c 256
 -31 158 -22 184 0 184 c 258
 121 184 l 258
 390 184 529 253 529 391 c 256
 529 538 370 717 40 949 c 257
 40 1118 l 257
 314 1278 594 1397 890 1481 c 257
EndSplineSet
EndChar

StartChar: uniE058
Encoding: 57432 57432 1742
GlifName: uniE_058
Width: 1137
VWidth: 0
GlyphClass: 2
Flags: HW
LayerCount: 2
Fore
SplineSet
890 1481 m 257
 930 1302 l 257
 664 1222 448 1136 244 1030 c 257
 244 1020 l 257
 488 836 622 685 726 472 c 256
 834 252 930 184 1136 184 c 258
 1137 184 l 257
 1137 0 l 257
 1136 0 l 258
 904 0 751 93 650 308 c 257
 630 104 450 0 132 0 c 258
 0 0 l 258
 -22 0 -31 26 -31 92 c 256
 -31 158 -22 184 0 184 c 258
 129 184 l 258
 391 184 529 255 529 392 c 256
 529 542 363 722 40 949 c 257
 40 1118 l 257
 314 1278 594 1397 890 1481 c 257
EndSplineSet
EndChar

StartChar: uniE059
Encoding: 57433 57433 1743
GlifName: uniE_059
Width: 1553
VWidth: 0
GlyphClass: 2
Flags: HW
LayerCount: 2
Fore
SplineSet
1553 184 m 257
 1553 0 l 257
 1533 0 l 258
 1405 0 1290 49 1242 143 c 257
 1242 24 l 258
 1241 -344 1024 -550 646 -550 c 256
 290 -550 98 -354 98 -50 c 256
 98 84 130 240 192 398 c 257
 354 338 l 257
 305 206 278 73 278 -30 c 256
 278 -244 404 -366 662 -366 c 256
 936 -366 1062 -228 1062 59 c 258
 1062 1376 l 257
 1246 1376 l 257
 1246 478 l 258
 1246 288 1309 184 1533 184 c 258
 1553 184 l 257
EndSplineSet
EndChar

StartChar: uniE05A
Encoding: 57434 57434 1744
GlifName: uniE_05A_
Width: 601
VWidth: 0
GlyphClass: 2
Flags: HW
LayerCount: 2
Fore
SplineSet
0 184 m 256
 216 184 261 262 261 452 c 258
 261 1376 l 257
 445 1376 l 257
 445 452 l 258
 445 156 306 0 0 0 c 256
 -21 0 -32 24 -32 92 c 256
 -32 160 -21 184 0 184 c 256
EndSplineSet
EndChar

StartChar: uniE05B
Encoding: 57435 57435 1745
GlifName: uniE_05B_
Width: 707
VWidth: 0
GlyphClass: 2
Flags: HW
LayerCount: 2
Fore
SplineSet
444 473 m 258
 444 290 481 184 706 184 c 258
 707 184 l 257
 707 0 l 257
 706 0 l 258
 524 0 382 79 352 217 c 257
 321 77 184 0 0 0 c 256
 -21 0 -31 24 -31 92 c 256
 -31 160 -21 184 0 184 c 256
 232 184 261 279 261 463 c 258
 261 1376 l 257
 444 1376 l 257
 444 473 l 258
EndSplineSet
EndChar

StartChar: uniE05C
Encoding: 57436 57436 1746
GlifName: uniE_05C_
Width: 1481
VWidth: 0
GlyphClass: 2
Flags: HW
LayerCount: 2
Fore
SplineSet
814 604 m 256
 656 604 598 394 566 240 c 257
 594 234 632 224 661 216 c 256
 755 190 826 174 890 174 c 256
 976 174 1013 223 1013 335 c 256
 1013 459 962 604 814 604 c 256
818 784 m 256
 1014 784 1095 652 1162 496 c 256
 1226 346 1300 184 1480 184 c 258
 1481 184 l 257
 1481 0 l 257
 1480 0 l 258
 1316 0 1219 87 1151 243 c 257
 1137 95 1056 -11 908 -11 c 256
 812 -11 708 13 598 41 c 256
 516 63 439 79 391 79 c 256
 313 79 283 36 283 -62 c 258
 283 -758 l 257
 98 -758 l 257
 98 -46 l 258
 98 156 202 292 402 270 c 257
 448 519 563 784 818 784 c 256
EndSplineSet
EndChar

StartChar: uniE05D
Encoding: 57437 57437 1747
GlifName: uniE_05D_
Width: 1160
VWidth: 0
GlyphClass: 2
Flags: HW
LayerCount: 2
Fore
SplineSet
0 184 m 256
 172 184 244 328 316 474 c 256
 395 634 472 788 670 788 c 256
 886 788 1031 568 1031 350 c 256
 1031 133 901 -10 690 -10 c 256
 547 -10 417 61 324 174 c 257
 252 72 156 0 0 0 c 256
 -22 0 -31 22 -31 92 c 256
 -31 162 -22 184 0 184 c 256
416 318 m 257
 500 224 590 172 690 172 c 256
 790 172 864 238 864 350 c 256
 864 476 776 606 668 606 c 256
 564 606 508 523 448 385 c 258
 416 318 l 257
EndSplineSet
EndChar

StartChar: uniE05E
Encoding: 57438 57438 1748
GlifName: uniE_05E_
Width: 1329
VWidth: 0
GlyphClass: 2
Flags: HW
LayerCount: 2
Fore
SplineSet
416 318 m 257
 500 224 590 172 690 172 c 256
 790 172 864 238 864 350 c 256
 864 476 776 606 668 606 c 256
 564 606 508 523 448 385 c 258
 416 318 l 257
0 184 m 256
 172 184 244 330 316 476 c 256
 395 636 474 788 666 788 c 256
 866 788 951 631 1021 473 c 256
 1088 323 1156 184 1328 184 c 258
 1330 184 l 257
 1330 0 l 257
 1328 0 l 258
 1167 0 1043 95 995 248 c 257
 973 86 850 -11 690 -11 c 256
 547 -11 417 61 324 174 c 257
 252 72 156 0 0 0 c 256
 -22 0 -31 22 -31 92 c 256
 -31 162 -22 184 0 184 c 256
EndSplineSet
EndChar

StartChar: uniE05F
Encoding: 57439 57439 1749
GlifName: uniE_05F_
Width: 1188
VWidth: 0
GlyphClass: 2
Flags: HW
LayerCount: 2
Fore
SplineSet
694 870 m 257
 684 1038 l 257
 868 1050 l 257
 904 425 l 258
 914 253 984 184 1188 184 c 258
 1188 184 l 257
 1188 0 l 257
 1188 0 l 258
 972 0 851 55 785 166 c 257
 713 141 635 130 560 130 c 256
 336 130 162 226 162 420 c 256
 162 663 386 821 694 870 c 257
706 700 m 257
 452 674 337 562 337 446 c 256
 337 358 418 300 572 300 c 256
 626 300 691 308 739 322 c 257
 731 349 726 377 724 415 c 258
 706 700 l 257
EndSplineSet
EndChar

StartChar: uniE060
Encoding: 57440 57440 1750
GlifName: uniE_060
Width: 1379
VWidth: 0
GlyphClass: 2
Flags: HW
LayerCount: 2
Fore
SplineSet
0 184 m 258
 55 184 l 258
 162 184 226 196 298 220 c 257
 210 288 116 386 116 514 c 256
 116 650 194 785 320 843 c 257
 172 907 l 257
 244 1076 l 257
 777 848 l 258
 1129 696 1281 559 1281 332 c 256
 1281 126 1135 -11 895 -11 c 256
 749 -11 607 32 481 91 c 257
 367 35 239 0 72 0 c 258
 0 0 l 258
 -22 0 -31 23 -31 92 c 256
 -31 161 -22 184 0 184 c 258
484 266 m 257
 607 327 674 420 674 522 c 256
 674 651 617 744 494 744 c 256
 374 744 289 632 289 510 c 256
 289 398 388 316 484 266 c 257
653 220 m 257
 733 192 822 174 898 174 c 256
 1017 174 1102 219 1102 341 c 256
 1102 459 1020 543 796 641 c 257
 860 463 791 312 653 220 c 257
EndSplineSet
EndChar

StartChar: uniE061
Encoding: 57441 57441 1751
GlifName: uniE_061
Width: 1060
VWidth: 0
GlyphClass: 2
Flags: HW
LayerCount: 2
Fore
SplineSet
562 852 m 256
 742 852 860 722 860 524 c 256
 860 274 657 81 336 24 c 257
 364 -158 462 -287 622 -354 c 257
 641 -344 l 257
 713 30 832 184 1028 184 c 258
 1061 184 l 257
 1061 0 l 257
 1018 0 l 258
 880 0 821 -105 758 -483 c 257
 626 -550 l 257
 376 -460 214 -266 170 0 c 257
 0 0 l 258
 -22 0 -31 28 -31 92 c 256
 -31 156 -22 184 0 184 c 258
 154 184 l 257
 151 584 313 852 562 852 c 256
318 194 m 257
 552 206 704 327 704 502 c 256
 704 606 652 668 562 668 c 256
 406 668 306 474 318 194 c 257
EndSplineSet
EndChar

StartChar: uniE062
Encoding: 57442 57442 1752
GlifName: uniE_062
Width: 982
VWidth: 0
GlyphClass: 2
Flags: HW
LayerCount: 2
Fore
SplineSet
712 186 m 257
 700 384 648 612 489 612 c 256
 359 612 300 472 300 333 c 256
 300 221 370 184 496 184 c 257
 568 184 643 185 712 186 c 257
692 0 m 257
 619 0 546 0 476 0 c 257
 267 0 136 100 136 318 c 256
 136 542 249 792 492 792 c 256
 774 792 865 474 880 184 c 257
 982 184 l 257
 982 0 l 257
 874 0 l 257
 840 -277 588 -461 172 -578 c 257
 98 -409 l 257
 440 -317 653 -178 692 0 c 257
EndSplineSet
EndChar

StartChar: uniE063
Encoding: 57443 57443 1753
GlifName: uniE_063
Width: 1353
VWidth: 0
GlyphClass: 2
Flags: HW
LayerCount: 2
Fore
SplineSet
180 1332 m 257
 350 1398 l 257
 482 1086 558 762 570 420 c 257
 392 400 l 257
 381 722 306 1036 180 1332 c 257
1013 1376 m 257
 1198 1376 l 257
 1198 767 l 258
 1198 146 969 0 328 0 c 258
 135 0 l 257
 135 184 l 257
 337 184 l 258
 833 184 1013 240 1013 738 c 258
 1013 1376 l 257
EndSplineSet
EndChar

StartChar: uniE064
Encoding: 57444 57444 1754
GlifName: uniE_064
Width: 1468
VWidth: 0
GlyphClass: 2
Flags: HW
LayerCount: 2
Fore
SplineSet
192 1332 m 257
 362 1398 l 257
 496 1082 566 769 578 430 c 257
 400 411 l 257
 388 730 320 1032 192 1332 c 257
1013 1376 m 257
 1198 1376 l 257
 1198 441 l 258
 1198 249 1267 184 1467 184 c 258
 1468 184 l 257
 1468 0 l 257
 1467 0 l 258
 1211 0 1075 110 1053 338 c 257
 1052 384 l 257
 874 122 587 0 135 0 c 257
 135 184 l 257
 627 184 873 305 1013 612 c 257
 1013 1376 l 257
EndSplineSet
EndChar

StartChar: uniE065
Encoding: 57445 57445 1755
GlifName: uniE_065
Width: 1951
VWidth: 0
GlyphClass: 2
Flags: HW
LayerCount: 2
Fore
SplineSet
1718 658 m 257
 1701 566 1688 491 1688 412 c 256
 1688 282 1734 184 1950 184 c 258
 1952 184 l 257
 1952 0 l 257
 1950 0 l 258
 1720 0 1592 91 1540 267 c 257
 1400 69 1136 0 786 0 c 256
 292 0 98 185 98 489 c 256
 98 589 119 703 157 818 c 257
 321 770 l 257
 289 671 271 582 271 506 c 256
 271 284 423 184 815 184 c 256
 1329 184 1493 338 1548 685 c 257
 1718 658 l 257
EndSplineSet
EndChar

StartChar: uniE066
Encoding: 57446 57446 1756
GlifName: uniE_066
Width: 961
VWidth: 0
GlyphClass: 2
Flags: HW
LayerCount: 2
Fore
SplineSet
675 606 m 257
 661 799 607 1014 454 1014 c 256
 324 1014 266 867 266 728 c 256
 266 616 336 580 462 580 c 256
 543 580 617 592 675 606 c 257
0 184 m 258
 152 184 l 258
 590 184 696 221 696 449 c 257
 621 429 539 416 444 416 c 256
 239 416 104 492 104 708 c 256
 104 931 208 1196 458 1196 c 256
 804 1196 864 714 864 478 c 256
 864 134 716 0 144 0 c 258
 0 0 l 258
 -22 0 -31 22 -31 92 c 256
 -31 162 -22 184 0 184 c 258
EndSplineSet
EndChar

StartChar: uniE067
Encoding: 57447 57447 1757
GlifName: uniE_067
Width: 1944
VWidth: 0
GlyphClass: 2
Flags: HW
LayerCount: 2
Fore
SplineSet
1440 76 m 257
 1286 25 1087 0 897 0 c 256
 395 0 98 94 98 438 c 256
 98 556 131 681 173 806 c 257
 336 753 l 257
 302 649 274 551 274 459 c 256
 274 234 485 184 897 184 c 256
 1014 184 1152 192 1258 214 c 257
 1146 283 1064 389 1064 550 c 256
 1064 786 1226 939 1442 939 c 256
 1654 939 1818 787 1818 552 c 256
 1818 392 1732 282 1620 212 c 257
 1683 193 1754 184 1828 184 c 258
 1944 184 l 257
 1944 0 l 257
 1804 0 l 258
 1670 0 1554 26 1440 76 c 257
1440 260 m 257
 1557 316 1634 408 1634 544 c 256
 1634 668 1560 758 1442 758 c 256
 1322 758 1248 669 1248 544 c 256
 1248 410 1326 316 1440 260 c 257
EndSplineSet
EndChar

StartChar: uniE068
Encoding: 57448 57448 1758
GlifName: uniE_068
Width: 998
VWidth: 0
GlyphClass: 2
Flags: HW
LayerCount: 2
Fore
SplineSet
122 550 m 256
 122 786 284 939 500 939 c 256
 712 939 876 787 876 552 c 256
 876 392 790 282 678 212 c 257
 741 193 812 184 886 184 c 258
 998 184 l 257
 998 0 l 257
 862 0 l 258
 728 0 610 26 496 76 c 257
 382 26 263 0 127 0 c 258
 0 0 l 258
 -22 0 -32 22 -32 92 c 256
 -32 162 -22 184 0 184 c 258
 108 184 l 258
 184 184 254 193 322 212 c 257
 210 281 122 390 122 550 c 256
498 261 m 257
 615 317 692 409 692 544 c 256
 692 668 618 758 500 758 c 256
 380 758 306 669 306 544 c 256
 306 410 384 317 498 261 c 257
EndSplineSet
EndChar

StartChar: uniE069
Encoding: 57449 57449 1759
GlifName: uniE_069
Width: 1548
VWidth: 0
GlyphClass: 2
Flags: HW
LayerCount: 2
Fore
SplineSet
1265 179 m 257
 1253 377 1201 605 1042 605 c 256
 912 605 854 465 854 326 c 256
 854 214 924 177 1050 177 c 256
 1122 177 1196 178 1265 179 c 257
1249 7 m 257
 1180 4 1102 0 1030 0 c 256
 822 0 690 100 690 318 c 256
 690 542 803 791 1046 791 c 256
 1315 791 1420 490 1436 184 c 257
 1548 184 l 257
 1548 0 l 257
 1428 0 l 257
 1406 -356 1144 -552 758 -552 c 256
 338 -552 98 -338 98 38 c 256
 98 166 124 312 176 474 c 257
 345 406 l 257
 305 266 281 140 281 38 c 256
 281 -237 450 -367 774 -367 c 256
 1059 -367 1239 -235 1249 7 c 257
EndSplineSet
EndChar

StartChar: uniE06E
Encoding: 57454 57454 1764
GlifName: uniE_06E_
Width: 0
VWidth: 0
GlyphClass: 2
Flags: H
LayerCount: 2
Fore
SplineSet
-80 1201 m 257
 24 1201 l 258
 123 1201 229 1220 229 1302 c 256
 229 1350 192 1388 140 1388 c 256
 76 1388 6 1323 -80 1201 c 257
-179 1201 m 257
 -179 1614 l 257
 -90 1614 l 257
 -90 1308 l 257
 -4 1420 67 1476 157 1476 c 256
 247 1476 318 1411 318 1302 c 256
 318 1156 186 1113 24 1113 c 258
 -313 1113 l 257
 -313 1201 l 257
 -179 1201 l 257
EndSplineSet
EndChar

StartChar: uniE06F
Encoding: 57455 57455 1765
GlifName: uniE_06F_
Width: 0
VWidth: 0
GlyphClass: 2
Flags: H
LayerCount: 2
Fore
SplineSet
41 1292 m 257
 79 1274 124 1259 172 1259 c 256
 242 1259 310 1285 310 1352 c 256
 310 1397 280 1428 228 1428 c 256
 172 1428 113 1392 41 1292 c 257
-47 1328 m 257
 51 1459 139 1536 236 1536 c 256
 336 1536 406 1472 406 1348 c 256
 406 1214 284 1134 160 1134 c 256
 84 1134 23 1159 -29 1183 c 256
 -71 1203 -108 1219 -146 1219 c 256
 -214 1219 -255 1159 -301 1089 c 257
 -390 1142 l 257
 -318 1279 -228 1348 -134 1348 c 256
 -102 1348 -75 1338 -47 1328 c 257
EndSplineSet
EndChar

StartChar: uniE070
Encoding: 57456 57456 1766
GlifName: uniE_070
Width: 0
VWidth: 0
GlyphClass: 2
Flags: H
LayerCount: 2
Fore
SplineSet
230 1372 m 257
 230 1227 154 1133 0 1133 c 256
 -154 1133 -230 1228 -230 1372 c 257
 -145 1372 l 257
 -145 1277 -108 1218 0 1218 c 256
 105 1218 145 1281 145 1372 c 257
 230 1372 l 257
EndSplineSet
EndChar

StartChar: uniE071
Encoding: 57457 57457 1767
GlifName: uniE_071
Width: 0
VWidth: 0
GlyphClass: 2
Flags: H
LayerCount: 2
Fore
SplineSet
230 1166 m 257
 -230 1166 l 257
 -230 1250 l 257
 230 1250 l 257
 230 1166 l 257
EndSplineSet
EndChar

StartChar: uniE072
Encoding: 57458 57458 1768
GlifName: uniE_072
Width: 0
VWidth: 0
GlyphClass: 2
Flags: H
LayerCount: 2
Fore
SplineSet
-77 1551 m 256
 -123 1551 -144 1510 -144 1460 c 256
 -144 1419 -130 1380 -100 1344 c 257
 -48 1356 25 1387 25 1449 c 256
 25 1503 -27 1551 -77 1551 c 256
-86 1638 m 256
 18 1638 109 1540 109 1446 c 256
 109 1356 30 1310 -34 1288 c 257
 22 1252 144 1200 230 1176 c 257
 206 1094 l 257
 -10 1154 -231 1268 -231 1464 c 256
 -231 1564 -174 1638 -86 1638 c 256
EndSplineSet
EndChar

StartChar: uniE073
Encoding: 57459 57459 1769
GlifName: uniE_073
Width: 0
VWidth: 0
GlyphClass: 2
Flags: H
LayerCount: 2
Fore
SplineSet
-188 1113 m 257
 -224 1190 l 257
 189 1386 l 257
 225 1310 l 257
 -188 1113 l 257
-186 1420 m 257
 -111 1496 l 257
 -36 1420 l 257
 -111 1346 l 257
 -186 1420 l 257
10 1063 m 257
 85 1138 l 257
 160 1063 l 257
 85 988 l 257
 10 1063 l 257
EndSplineSet
EndChar

StartChar: uniE075
Encoding: 57461 57461 1770
GlifName: uniE_075
Width: 2140
VWidth: 0
GlyphClass: 2
Flags: HW
LayerCount: 2
Fore
SplineSet
1046 1280 m 257
 1142 1126 l 257
 804 930 643 804 598 694 c 257
 1424 694 l 258
 1820 694 2042 650 2042 426 c 256
 2042 148 1718 0 1312 0 c 258
 98 0 l 257
 98 184 l 257
 1358 184 l 258
 1660 184 1851 278 1851 400 c 256
 1851 484 1761 510 1462 510 c 258
 448 510 l 257
 370 595 l 257
 387 825 546 988 1046 1280 c 257
EndSplineSet
EndChar

StartChar: uniE076
Encoding: 57462 57462 1771
GlifName: uniE_076
Width: 1895
VWidth: 0
GlyphClass: 2
Flags: HW
LayerCount: 2
Fore
SplineSet
688 374 m 257
 572 299 l 257
 474 269 274 202 156 152 c 257
 100 302 l 257
 291 374 425 425 532 425 c 256
 590 425 642 410 688 374 c 257
EndSplineSet
Refer: 1716 57406 N 1 0 0 1 368 0 2
EndChar

StartChar: uniE077
Encoding: 57463 57463 1772
GlifName: uniE_077
Width: 1709
VWidth: 0
GlyphClass: 2
Flags: HW
LayerCount: 2
Fore
SplineSet
1294 814 m 257
 1258 958 1230 1058 1147 1058 c 256
 1086 1058 1052 989 1024 933 c 256
 916 711 776 562 552 506 c 256
 384 464 280 406 280 296 c 256
 280 208 359 184 508 184 c 258
 1612 184 l 257
 1612 0 l 257
 470 0 l 258
 266 0 98 76 98 284 c 256
 98 534 317 633 515 686 c 256
 683 732 777 839 858 1001 c 256
 914 1113 990 1254 1148 1254 c 256
 1366 1254 1412 1062 1458 854 c 257
 1294 814 l 257
EndSplineSet
EndChar

StartChar: uniE078
Encoding: 57464 57464 1773
GlifName: uniE_078
Width: 1488
VWidth: 0
GlyphClass: 2
Flags: HW
LayerCount: 2
Fore
SplineSet
1028 1204 m 257
 1051 1198 1078 1196 1110 1196 c 256
 1190 1196 1287 1202 1287 1281 c 256
 1287 1323 1261 1350 1215 1350 c 256
 1159 1350 1096 1298 1028 1204 c 257
960 1232 m 257
 1040 1358 1126 1430 1218 1430 c 256
 1308 1430 1373 1373 1373 1281 c 256
 1373 1143 1245 1110 1117 1110 c 256
 1009 1110 938 1132 892 1184 c 257
 858 1134 814 1110 738 1110 c 256
 668 1110 616 1132 584 1174 c 257
 554 1132 512 1110 447 1110 c 258
 415 1110 l 258
 317 1110 203 1076 203 992 c 256
 203 958 235 954 274 954 c 258
 865 954 l 257
 865 868 l 257
 271 868 l 258
 185 868 115 902 115 988 c 256
 115 1120 256 1196 415 1196 c 258
 447 1196 l 258
 531 1196 541 1230 541 1311 c 258
 541 1626 l 257
 627 1626 l 257
 627 1314 l 258
 627 1228 640 1196 738 1196 c 256
 830 1196 849 1225 849 1323 c 258
 849 1384 l 257
 935 1384 l 257
 935 1326 l 258
 935 1268 941 1250 960 1232 c 257
EndSplineSet
EndChar

StartChar: uniE079
Encoding: 57465 57465 1774
GlifName: uniE_079
Width: 1186
VWidth: 0
GlyphClass: 2
Flags: HW
LayerCount: 2
Fore
SplineSet
833 1402 m 256
 833 1360 859 1348 905 1348 c 256
 937 1348 962 1353 988 1359 c 257
 982 1418 967 1517 904 1517 c 256
 854 1517 833 1454 833 1402 c 256
992 1281 m 257
 962 1275 932 1270 898 1270 c 256
 812 1270 752 1308 752 1396 c 256
 752 1496 796 1600 904 1600 c 256
 1040 1600 1077 1440 1077 1310 c 256
 1077 1140 961 1110 791 1110 c 258
 730 1110 l 258
 664 1110 616 1132 584 1174 c 257
 554 1132 512 1110 447 1110 c 258
 415 1110 l 258
 317 1110 203 1076 203 992 c 256
 203 958 235 954 274 954 c 258
 865 954 l 257
 865 868 l 257
 271 868 l 258
 185 868 115 902 115 988 c 256
 115 1120 256 1196 415 1196 c 258
 447 1196 l 258
 531 1196 541 1230 541 1311 c 258
 541 1626 l 257
 627 1626 l 257
 627 1314 l 258
 627 1228 636 1196 730 1196 c 258
 814 1196 l 258
 927 1196 978 1205 992 1281 c 257
1037 1711 m 257
 978 1652 l 257
 921 1711 l 257
 978 1768 l 257
 1037 1711 l 257
903 1711 m 257
 844 1652 l 257
 786 1711 l 257
 844 1768 l 257
 903 1711 l 257
EndSplineSet
EndChar

StartChar: uniE07A
Encoding: 57466 57466 1775
GlifName: uniE_07A_
Width: 0
VWidth: 0
GlyphClass: 2
Flags: H
LayerCount: 2
Fore
SplineSet
-135 1427 m 257
 135 1427 l 257
 135 1331 l 257
 -135 1331 l 257
 -135 1427 l 257
EndSplineSet
EndChar

StartChar: uniE07B
Encoding: 57467 57467 1776
GlifName: uniE_07B_
Width: 0
VWidth: 0
GlyphClass: 2
Flags: H
LayerCount: 2
Fore
SplineSet
-127 1294 m 257
 -208 1654 l 257
 -118 1678 l 257
 -38 1316 l 257
 -127 1294 l 257
227 1675 m 257
 227 1385 l 258
 227 1149 110 1106 -88 1106 c 258
 -228 1106 l 257
 -228 1201 l 257
 -82 1201 l 258
 84 1201 132 1226 132 1378 c 258
 132 1675 l 257
 227 1675 l 257
EndSplineSet
EndChar

StartChar: uniE07C
Encoding: 57468 57468 1777
GlifName: uniE_07C_
Width: 0
VWidth: 0
GlyphClass: 2
Flags: H
LayerCount: 2
Fore
SplineSet
20 1192 m 257
 80 1132 l 257
 20 1071 l 257
 -40 1132 l 257
 20 1192 l 257
90 1379 m 257
 -16 1423 l 258
 -46 1435 -68 1441 -86 1441 c 256
 -130 1441 -148 1408 -158 1350 c 257
 -230 1363 l 257
 -213 1463 -176 1527 -92 1527 c 256
 -62 1527 -30 1519 26 1495 c 258
 216 1415 l 257
 212 1332 l 257
 -34 1274 -157 1194 -157 1092 c 256
 -157 1018 -84 982 20 982 c 256
 86 982 156 997 208 1018 c 257
 238 936 l 257
 176 908 99 889 21 889 c 256
 -129 889 -243 954 -243 1084 c 256
 -243 1214 -130 1309 90 1379 c 257
EndSplineSet
EndChar

